<svg width="71" height="82" viewBox="0 0 71 82" fill="none" xmlns="http://www.w3.org/2000/svg">
<path d="M70.8987 61.3952V20.4613L35.455 0L0 20.4613V61.3952L35.455 81.8677L70.8987 61.3952Z" fill="#EFB500"/>
<path d="M45.5561 36.864V51.1249C45.5561 52.3763 44.5414 53.4022 43.2788 53.4022H27.62C26.3687 53.4022 25.3428 52.3875 25.3428 51.1249V36.864" stroke="white" stroke-width="2" stroke-miterlimit="10"/>
<path d="M31.5322 53.3912V44.9474C31.5322 44.3274 32.0395 43.8201 32.6596 43.8201H38.2287C38.8487 43.8201 39.356 44.3274 39.356 44.9474V53.3912" stroke="white" stroke-width="2" stroke-miterlimit="10"/>
<path d="M19.8862 42.1515L34.6432 27.3946C35.0941 26.9437 35.8156 26.9437 36.2665 27.3946L51.0235 42.1515" stroke="white" stroke-width="2" stroke-miterlimit="10" stroke-linecap="round"/>
</svg>
