<svg width="71" height="82" viewBox="0 0 71 82" fill="none" xmlns="http://www.w3.org/2000/svg">
<path d="M70.8987 61.3952V20.4613L35.455 0L0 20.4613V61.3952L35.455 81.8677L70.8987 61.3952Z" fill="#EFB500"/>
<path d="M40.4939 38.9835C42.2932 38.9835 43.7519 37.5248 43.7519 35.7254C43.7519 33.9261 42.2932 32.4674 40.4939 32.4674C38.6945 32.4674 37.2358 33.9261 37.2358 35.7254C37.2358 37.5248 38.6945 38.9835 40.4939 38.9835Z" stroke="white" stroke-width="2" stroke-miterlimit="10"/>
<path d="M50.3696 25.8498C50.3696 25.8498 40.6181 24.9366 35.1617 30.393C31.8924 33.6623 30.9116 38.4648 30.6523 41.8017L34.4177 45.567C37.7546 45.3078 42.5571 44.327 45.8264 41.0577C51.2827 35.6013 50.3696 25.8498 50.3696 25.8498Z" stroke="white" stroke-width="2" stroke-miterlimit="10"/>
<path d="M28.7359 51.5533C27.011 53.2782 20.7881 55.7471 20.7881 55.7471C20.7881 55.7471 23.257 49.5241 24.9818 47.7993C26.7066 46.0744 28.1496 46.3112 29.1868 47.3483C30.2127 48.3855 30.4607 49.8285 28.7359 51.5533Z" stroke="white" stroke-width="2" stroke-miterlimit="10"/>
<path d="M25.7263 37.3826C24.103 39.0059 22.7952 40.7646 21.8145 42.5345C24.9823 40.7759 28.1839 40.0769 30.7543 40.5955C31.07 38.0026 31.8704 34.846 33.6741 32.1968C30.991 33.155 28.1952 34.9137 25.7263 37.3826Z" stroke="white" stroke-width="2" stroke-miterlimit="10"/>
<path d="M33.7642 54.4957C35.5341 53.5149 37.2927 52.2072 38.9161 50.5838C41.4752 48.0247 43.2677 45.1387 44.2034 42.3767C41.5428 44.2706 38.3299 45.0936 35.6806 45.4318C36.2556 48.0247 35.5566 51.2827 33.7642 54.4957Z" stroke="white" stroke-width="2" stroke-miterlimit="10"/>
</svg>
