<svg width="32" height="32" viewBox="0 0 32 32" fill="none" xmlns="http://www.w3.org/2000/svg">
<rect width="32" height="32" fill="white"/>
<path d="M9.95917 12.2226C9.95917 12.2226 16.8773 8.47052 26.7262 10.7786C26.7262 10.7786 28.682 1.36068 21.2968 2.54372C21.3026 2.54372 14.8982 3.72676 9.95917 12.2226Z" fill="#252F5C"/>
<path d="M10.3546 21.0727C10.3546 21.0727 7.34028 20.5824 6.50004 19.0756C5.64217 17.5209 6.99949 15.9363 8.45669 14.9855C12.4229 12.4023 16.7592 12.1452 18.1106 11.9898C18.1106 11.9838 8.85624 15.7689 10.3546 21.0727Z" fill="#252F5C"/>
<path d="M6.31241 21.6043C6.31241 21.6043 16.0172 27.072 26.2621 12.9213C26.2621 12.9213 21.9645 29.2311 11.9486 30.153C11.9486 30.153 4.39259 30.5498 6.31241 21.6043Z" fill="#252F5C"/>
</svg>
