<svg width="159" height="73" viewBox="0 0 159 73" fill="none" xmlns="http://www.w3.org/2000/svg">
<path d="M140.136 71.4207C113.196 69.5703 86.0163 66.6315 60.5981 72.6615C83.3201 62.6696 112.391 63.7798 140.136 71.4207Z" fill="white"/>
<path d="M54.4662 8.33437C68.1429 24.0297 68.0776 41.6625 59.5107 60.4708C69.6214 45.9074 69.7736 28.6012 65.3814 14.495C64.3377 12.4269 64.1855 12.0786 63.1636 10.4895C55.3359 -2.85482 35.0927 1.65133 30.8745 15.0174C38.0064 8.9439 45.6166 5.33027 54.4662 8.33437Z" fill="white"/>
<path d="M34.6582 51.7417C29.7442 60.9717 50.1831 77.2113 56.6626 69.0262C45.9866 69.0915 36.1368 60.0139 34.6582 51.7417Z" fill="white"/>
<path d="M15.3934 50.1305C20.003 45.842 17.9591 33.7821 13.7627 32.0188C15.4152 34.4787 17.6765 39.4855 15.4586 42.0107C9.54442 39.7903 8.54422 35.2406 7.21787 30.8215C6.19592 37.7876 9.60965 42.642 14.0018 47.0176C4.26075 47.7359 -0.848967 29.8419 7.82668 23.529C11.9362 23.3984 13.4365 27.295 14.5237 26.8161C13.8496 24.4433 11.3926 22.9194 9.26175 21.2432C11.5013 20.8296 14.7629 22.0269 16.3501 20.5684C-2.82762 14.7561 -4.63233 45.6244 8.30504 50.8271C10.1097 51.5455 11.3056 50.3482 15.9153 50.9795C20.2857 51.5673 24.8736 52.9822 22.3078 47.3876C21.3511 50.3917 18.5027 50.4788 15.3934 50.1305Z" fill="white"/>
<path d="M22.3947 39.2461C24.4168 32.5413 21.0683 23.812 16.1543 23.8773C20.1116 28.1005 20.4595 34.0434 22.3947 39.2461Z" fill="white"/>
<path d="M35.6365 43.7089C41.6377 32.5415 38.2239 21.7659 24.6777 18.1958C31.8096 25.0312 37.1368 32.7374 35.6365 43.7089Z" fill="white"/>
<path d="M35.2674 44.9717C34.1802 48.7377 29.8097 47.3009 27.7876 49.6084C31.0056 51.0234 32.7016 50.0438 34.702 49.5431C34.6585 48.1282 36.7677 45.6901 35.2674 44.9717Z" fill="white"/>
<path d="M24.7866 28.3838C30.6574 32.7811 25.8521 42.2505 26.3956 49.1948C33.5058 44.4057 31.9402 29.6682 24.7866 28.3838Z" fill="white"/>
<path d="M144.245 3.67627C148.876 23.856 159.357 42.1418 144.376 68.6998C162.923 48.1065 163.01 18.6097 144.245 3.67627Z" fill="white"/>
<path d="M120.109 36.8952L120.457 37.4612H122.066L121.153 36.0462L122.066 35.219L121.24 34.0653L120.435 34.936L119.413 33.3251C120.261 32.7156 120.718 31.9755 120.718 31.2136C120.718 30.234 119.979 29.5374 118.957 29.5374C117.761 29.5374 117.021 30.2557 117.021 31.3006C117.021 31.8449 117.261 32.3455 117.652 32.9986C116.804 33.5646 116.369 34.3047 116.369 35.1319C116.369 36.4381 117.326 37.5048 118.587 37.5048C119.196 37.5048 119.696 37.3088 120.109 36.8952ZM118.761 32.2585L118.522 31.8666C118.435 31.7142 118.37 31.4966 118.37 31.3006C118.37 30.9523 118.609 30.7129 118.935 30.7129C119.196 30.7129 119.37 30.9306 119.37 31.2571C119.37 31.5183 119.218 31.8449 118.935 32.1061L118.761 32.2585ZM119.457 35.8286C119.174 35.9809 118.935 36.068 118.717 36.068C118.239 36.068 117.848 35.6544 117.848 35.0884C117.848 34.7183 118.043 34.4789 118.435 34.2394L119.457 35.8286Z" fill="white"/>
<path d="M95.3438 47.3443H96.8441C97.8877 47.3443 98.6488 47.3008 99.2358 46.7783C99.6925 46.3865 99.9534 45.777 99.9534 45.0368C99.9534 44.0354 99.5837 43.4695 98.801 43.1865C99.5185 42.8382 99.8229 42.2939 99.8229 41.4232C99.8229 39.7905 98.9314 39.2681 96.9093 39.2681H95.3438V47.3443ZM96.931 45.9076V43.796H97.1267C97.9965 43.796 98.3444 44.1008 98.3444 44.8844C98.3444 45.6028 97.9965 45.9293 97.1485 45.9293C97.0615 45.9076 96.9963 45.9076 96.931 45.9076ZM96.931 42.6205V40.5742H97.0832C97.9095 40.5742 98.3009 40.9007 98.3009 41.6191C98.3009 42.3157 97.9095 42.6205 97.0832 42.6205H96.931Z" fill="white"/>
<path d="M104.063 47.3443H108.412V45.7552H106.064V43.8613H108.195V42.381H106.064V40.7483H108.412V39.2681H104.063V47.3443Z" fill="white"/>
<path d="M111.717 47.3443H113.217V43.9484C113.217 43.0341 113.195 42.2069 113.108 41.4667C113.304 42.2286 113.434 42.6858 113.478 42.8164L115.239 47.3443H116.739V39.2681H115.239V42.381C115.239 43.2518 115.326 44.2096 115.5 45.298C115.261 44.4491 115.087 43.8831 115 43.6436L113.347 39.2898H111.695V47.3443H111.717Z" fill="white"/>
<path d="M121.176 47.3446H122.393C123.415 47.3446 124.198 47.2793 124.894 46.7351C125.894 45.9949 126.307 44.8847 126.307 43.2956C126.307 40.5745 125.068 39.2466 122.567 39.2466H121.176V47.3446ZM122.785 45.8425V40.7269H122.894C124.111 40.7269 124.698 41.5759 124.698 43.3174C124.698 44.9718 124.068 45.8208 122.915 45.8208H122.785V45.8425Z" fill="white"/>
<path d="M130.46 47.3443H134.809V45.7552H132.46V43.8613H134.591V42.381H132.46V40.7483H134.809V39.2681H130.46V47.3443Z" fill="white"/>
<path d="M138.113 47.3443H139.701V43.9919L141.027 47.3443H142.745L141.179 43.6654C142.049 43.3824 142.462 42.6858 142.462 41.5538C142.462 39.9211 141.614 39.2681 139.809 39.2681H138.113V47.3443ZM139.679 42.7511V40.5089C139.766 40.5089 139.831 40.5089 139.896 40.5089C140.614 40.5089 140.918 40.8572 140.918 41.6191C140.918 42.381 140.549 42.7729 139.853 42.7729C139.809 42.7729 139.744 42.7511 139.679 42.7511Z" fill="white"/>
<path d="M80.6019 33.2598L73.47 14.7781H70.2085L77.7752 33.2598H80.6019Z" fill="white"/>
<path d="M83.69 36.4818C82.8855 36.4383 82.0158 36.4165 81.0373 36.4165H79.3413V37.0913L81.3634 40.9444L83.69 36.4818Z" fill="white"/>
<path d="M84.0163 33.3251L90.8655 16.5196H142.724V14.7781H90.7786H88.3215L81.2114 33.2598H81.5158C82.4073 33.2598 83.2553 33.2816 84.0163 33.3251Z" fill="white"/>
<path d="M79.1229 47.3443H80.6449H81.4929C84.1239 47.3443 86.1678 47.279 87.8638 46.0817C89.451 44.9497 90.4512 42.8816 90.4512 40.4218C90.4512 37.9619 89.451 35.8721 87.8638 34.7619C86.7331 33.9564 85.4285 33.6734 83.9064 33.5646C83.1454 33.4993 82.3409 33.4993 81.4712 33.4993H81.1015H80.6449H80.6667H77.8617H76.1875V58.6641H79.1229V47.3443ZM79.1229 36.5904V36.2204H80.6449C81.4277 36.2204 82.1452 36.2421 82.7975 36.3075C85.7546 36.5687 87.2114 37.5918 87.2114 40.5959C87.2114 44.0789 85.0154 44.6449 80.6449 44.6449H79.1229V36.5904Z" fill="white"/>
<path d="M135.308 2.82703C109.564 7.79033 82.6022 3.74133 55.7925 0.780762C83.0806 9.53184 112.043 11.8611 135.308 2.82703Z" fill="white"/>
<path d="M25.3517 23.8123C24.5689 22.9198 24.4167 21.7442 23.9601 20.6993C21.5248 20.1987 18.0676 18.1088 17.7632 20.9606C21.3509 21.0694 24.3297 24.2477 25.3517 23.8123Z" fill="white"/>
<path d="M95.5396 27.8612V19.7849H97.1486V22.789H98.9533V19.7849H100.562V27.8612H98.9533V24.3564H97.1486V27.8612H95.5396ZM101.389 27.8612L103.28 19.7849H104.976L106.781 27.8612H105.15L104.868 26.4462H103.28L103.041 27.8612H101.389ZM103.563 25.2054H104.65C104.411 24.0081 104.237 22.7672 104.106 21.4829C103.954 22.6584 103.78 23.8992 103.563 25.2054ZM107.629 27.8612V19.7849H109.325C111.13 19.7849 111.978 20.438 111.978 22.0706C111.978 23.2026 111.565 23.8992 110.695 24.1822L112.26 27.8612H110.543L109.216 24.5088V27.8612H107.629ZM109.194 23.2897C109.26 23.2897 109.325 23.3115 109.368 23.3115C110.064 23.3115 110.434 22.9196 110.434 22.1577C110.434 21.3958 110.129 21.0475 109.412 21.0475C109.347 21.0475 109.281 21.0475 109.194 21.0693V23.2897ZM113.848 27.8612V21.287H112.608V19.7849H116.739V21.287H115.5V27.8612H113.848ZM117.348 27.8612L118.153 19.7849H120.24L120.653 22.8761C120.762 23.7468 120.871 24.5958 120.914 25.4884C121.045 24.1822 121.132 23.3115 121.197 22.8761L121.719 19.7849H123.784L124.48 27.8612H122.849L122.675 24.1169C122.632 23.3768 122.588 22.4407 122.588 21.3087L121.523 27.8612H120.349L119.349 21.2652C119.349 22.2883 119.262 23.2244 119.218 24.1387L118.957 27.8612H117.348ZM124.915 27.8612L126.807 19.7849H128.503L130.307 27.8612H128.698L128.416 26.4462H126.785L126.546 27.8612H124.915ZM127.068 25.2054H128.155C127.916 24.0081 127.742 22.7672 127.611 21.4829C127.459 22.6584 127.285 23.8992 127.068 25.2054ZM131.134 27.8612V19.7849H132.786L134.439 24.1387C134.526 24.3781 134.7 24.9441 134.939 25.7931C134.787 24.7264 134.678 23.7468 134.678 22.8761V19.7849H136.178V27.8612H134.678L132.895 23.3332C132.83 23.2026 132.721 22.7455 132.525 21.9836C132.612 22.7237 132.634 23.5509 132.634 24.4652V27.8612H131.134ZM137.678 27.8612V19.7849H139.331L140.983 24.1387C141.07 24.3781 141.244 24.9441 141.484 25.7931C141.331 24.7264 141.223 23.7468 141.223 22.8761V19.7849H142.723V27.8612H141.223L139.44 23.3332C139.374 23.2026 139.266 22.7455 139.07 21.9836C139.157 22.7237 139.179 23.5509 139.179 24.4652V27.8612H137.678Z" fill="white"/>
<path d="M98.8882 54.8331C98.8882 55.1379 99.0839 55.2903 99.3448 55.2903C99.6927 55.2903 99.8884 55.0726 99.9754 54.8549C99.9971 54.8114 99.9971 54.746 99.9971 54.7025V54.2454C99.4753 54.2454 98.8882 54.3324 98.8882 54.8331Z" fill="white"/>
<path d="M132.221 53.2654C131.743 53.2654 131.525 53.7008 131.503 54.0273H132.895C132.895 53.7225 132.765 53.2654 132.221 53.2654Z" fill="white"/>
<path d="M109.586 54.8331C109.586 55.1379 109.782 55.2903 110.043 55.2903C110.391 55.2903 110.587 55.0726 110.674 54.8549C110.695 54.8114 110.695 54.746 110.695 54.7025V54.2454C110.173 54.2454 109.586 54.3324 109.586 54.8331Z" fill="white"/>
<path d="M129.286 53.2874C128.786 53.2874 128.503 53.7227 128.503 54.2887C128.503 54.8112 128.764 55.2465 129.264 55.2465C129.59 55.2465 129.873 55.0289 129.96 54.6806C129.981 54.6153 129.981 54.5499 129.981 54.4846V54.0275C129.981 53.9622 129.981 53.8969 129.96 53.8316C129.895 53.5486 129.634 53.2874 129.286 53.2874Z" fill="white"/>
<path d="M120.719 53.2874C120.393 53.2874 120.088 53.505 120.001 53.8751C120.001 53.9186 119.979 53.984 119.979 54.071V54.5282C119.979 54.5935 119.979 54.637 120.001 54.7023C120.088 55.0289 120.371 55.2465 120.719 55.2465C121.219 55.2465 121.502 54.8329 121.502 54.2452C121.48 53.7445 121.219 53.2874 120.719 53.2874Z" fill="white"/>
<path d="M95.4097 49.2385V58.6427H142.723V49.2385H95.4097ZM97.8667 55.595H97.3883V54.093C97.3883 53.6794 97.2361 53.3093 96.7795 53.3093C96.4751 53.3093 96.2359 53.527 96.1489 53.7882C96.1272 53.8535 96.1272 53.9188 96.1272 54.0059V55.5733H95.6488V51.7637H96.1272V53.3964C96.1924 53.2658 96.3229 53.1352 96.4751 53.0698C96.6056 52.9828 96.7795 52.9392 96.9535 52.9392C97.3013 52.9392 97.8667 53.1569 97.8667 54.0494V55.595ZM100.063 55.595L100.019 55.2685H99.9975C99.8453 55.4644 99.5627 55.6603 99.193 55.6603C98.6712 55.6603 98.3885 55.2903 98.3885 54.9202C98.3885 54.2889 98.9539 53.9406 99.9541 53.9406V53.8971C99.9541 53.6794 99.8888 53.2875 99.367 53.2875C99.1278 53.2875 98.8669 53.3528 98.6929 53.4834L98.5842 53.1787C98.8017 53.0481 99.1061 52.9392 99.4322 52.9392C100.237 52.9392 100.411 53.4835 100.411 54.0059V54.9855C100.411 55.2032 100.411 55.4426 100.454 55.6168H100.063V55.595ZM102.476 53.3746C102.433 53.3746 102.389 53.3528 102.324 53.3528C101.998 53.3528 101.759 53.6141 101.694 53.9624C101.694 54.0277 101.672 54.093 101.672 54.1801V55.5733H101.215V53.7882C101.215 53.4835 101.215 53.2222 101.193 52.9828H101.607L101.628 53.4834H101.65C101.759 53.1351 102.063 52.9175 102.368 52.9175C102.433 52.9175 102.455 52.9175 102.498 52.9392V53.3746H102.476ZM104.324 53.3311H103.65V54.746C103.65 55.0726 103.737 55.2467 103.998 55.2467C104.129 55.2467 104.216 55.225 104.281 55.225L104.303 55.5733C104.216 55.6168 104.064 55.6386 103.89 55.6386C103.672 55.6386 103.498 55.5733 103.368 55.4427C103.237 55.312 103.194 55.0726 103.194 54.7678V53.3528H102.802V52.9828H103.194V52.3515L103.65 52.2209V52.961H104.324V53.3311ZM108.564 55.595H108.108V54.1147C108.108 53.6141 107.934 53.3093 107.543 53.3093C107.282 53.3093 107.064 53.5052 106.977 53.7447C106.955 53.81 106.934 53.8971 106.934 53.9841V55.595H106.477V54.0277C106.477 53.6141 106.303 53.3093 105.934 53.3093C105.629 53.3093 105.433 53.5488 105.346 53.7882C105.325 53.8535 105.303 53.9406 105.303 54.0277V55.595H104.846V53.6794C104.846 53.4181 104.846 53.2005 104.825 52.9828H105.238L105.259 53.3964H105.281C105.433 53.1569 105.673 52.9175 106.107 52.9175C106.455 52.9175 106.738 53.1352 106.847 53.4399C106.934 53.2875 107.021 53.1787 107.129 53.0916C107.282 52.9828 107.456 52.9175 107.695 52.9175C108.043 52.9175 108.543 53.1351 108.543 54.0494V55.595H108.564ZM110.761 55.595L110.717 55.2685H110.695C110.543 55.4644 110.26 55.6603 109.891 55.6603C109.369 55.6603 109.086 55.2903 109.086 54.9202C109.086 54.2889 109.652 53.9406 110.652 53.9406V53.8971C110.652 53.6794 110.587 53.2875 110.065 53.2875C109.826 53.2875 109.565 53.3528 109.391 53.4834L109.282 53.1787C109.499 53.0481 109.804 52.9392 110.13 52.9392C110.935 52.9392 111.108 53.4835 111.108 54.0059V54.9855C111.108 55.2032 111.108 55.4426 111.152 55.6168H110.761V55.595ZM114.131 55.595H113.652V54.093C113.652 53.6794 113.5 53.3311 113.044 53.3311C112.739 53.3311 112.5 53.5488 112.413 53.81C112.391 53.8753 112.391 53.9406 112.391 54.0277V55.595H111.913V53.6794C111.913 53.4181 111.913 53.2005 111.891 52.9828H112.304L112.326 53.4181C112.457 53.1787 112.761 52.9392 113.196 52.9392C113.565 52.9392 114.109 53.1569 114.109 54.0494V55.595H114.131ZM117.088 55.595H116.61V54.093C116.61 53.6794 116.457 53.3311 116.001 53.3311C115.696 53.3311 115.457 53.5488 115.37 53.81C115.348 53.8753 115.348 53.9406 115.348 54.0277V55.595H114.87V53.6794C114.87 53.4181 114.87 53.2005 114.848 52.9828H115.261L115.283 53.4181C115.414 53.1787 115.718 52.9392 116.153 52.9392C116.523 52.9392 117.066 53.1569 117.066 54.0494V55.595H117.088ZM118.958 54.3107H117.632V53.9624H118.958V54.3107ZM120.806 55.6386C120.436 55.6386 120.132 55.4862 119.936 55.1597H119.915L119.893 55.595H119.48C119.48 55.4209 119.501 55.1597 119.501 54.9202V51.7637H119.958V53.3964C120.132 53.1134 120.415 52.9175 120.85 52.9175C121.502 52.9175 121.958 53.4617 121.937 54.2454C121.958 55.1814 121.371 55.6386 120.806 55.6386ZM124.633 54.376H122.806C122.806 55.0073 123.22 55.2903 123.698 55.2903C124.046 55.2903 124.242 55.225 124.415 55.1597L124.502 55.508C124.329 55.595 124.046 55.6603 123.633 55.6603C122.828 55.6603 122.35 55.1379 122.35 54.3542C122.35 53.5705 122.806 52.9392 123.567 52.9392C124.415 52.9392 124.633 53.6794 124.633 54.1583C124.655 54.2454 124.655 54.3107 124.633 54.376ZM127.46 55.595H126.981V54.093C126.981 53.6794 126.829 53.3311 126.372 53.3311C126.068 53.3311 125.829 53.5488 125.742 53.81C125.72 53.8753 125.72 53.9406 125.72 54.0277V55.595H125.242V53.6794C125.242 53.4181 125.242 53.2005 125.22 52.9828H125.633L125.655 53.4181C125.785 53.1787 126.09 52.9392 126.525 52.9392C126.894 52.9392 127.438 53.1569 127.438 54.0494V55.595H127.46ZM130.047 55.595L130.025 55.1379C129.873 55.4209 129.569 55.6603 129.134 55.6603C128.503 55.6603 128.025 55.1161 128.025 54.3324C128.025 53.4617 128.568 52.9392 129.199 52.9392C129.59 52.9392 129.873 53.1351 129.982 53.3311V51.7855H130.46V54.942C130.46 55.1814 130.46 55.4426 130.482 55.6168H130.047V55.595ZM133.33 54.376H131.504C131.504 55.0073 131.917 55.2903 132.395 55.2903C132.743 55.2903 132.939 55.225 133.113 55.1597L133.2 55.508C133.026 55.595 132.743 55.6603 132.33 55.6603C131.526 55.6603 131.047 55.1379 131.047 54.3542C131.047 53.5705 131.504 52.9392 132.265 52.9392C133.113 52.9392 133.33 53.6794 133.33 54.1583C133.33 54.2454 133.33 54.3107 133.33 54.376ZM135.2 53.3746C135.157 53.3746 135.113 53.3528 135.048 53.3528C134.722 53.3528 134.483 53.6141 134.417 53.9624C134.417 54.0277 134.396 54.093 134.396 54.1801V55.5733H133.939V53.7882C133.939 53.4835 133.939 53.2222 133.917 52.9828H134.331L134.352 53.4834H134.374C134.483 53.1351 134.787 52.9175 135.092 52.9175C135.157 52.9175 135.179 52.9175 135.222 52.9392V53.3746H135.2ZM135.592 55.6386C135.396 55.6386 135.265 55.4862 135.265 55.2903C135.265 55.0943 135.396 54.942 135.592 54.942C135.787 54.942 135.918 55.0726 135.918 55.2903C135.918 55.508 135.787 55.6386 135.592 55.6386ZM138.331 55.595L138.31 55.1379C138.157 55.4209 137.853 55.6603 137.418 55.6603C136.788 55.6603 136.309 55.1161 136.309 54.3324C136.309 53.4617 136.853 52.9392 137.483 52.9392C137.875 52.9392 138.157 53.1351 138.266 53.3311V51.7855H138.744V54.942C138.744 55.1814 138.744 55.4426 138.766 55.6168H138.331V55.595ZM141.615 54.376H139.788C139.788 55.0073 140.201 55.2903 140.68 55.2903C141.027 55.2903 141.223 55.225 141.397 55.1597L141.484 55.508C141.31 55.595 141.028 55.6603 140.614 55.6603C139.81 55.6603 139.332 55.1379 139.332 54.3542C139.332 53.5705 139.788 52.9392 140.549 52.9392C141.397 52.9392 141.615 53.6794 141.615 54.1583C141.615 54.2454 141.615 54.3107 141.615 54.376Z" fill="white"/>
<path d="M140.506 53.2654C140.027 53.2654 139.81 53.7008 139.788 54.0273H141.18C141.18 53.7225 141.049 53.2654 140.506 53.2654Z" fill="white"/>
<path d="M123.546 53.2654C123.067 53.2654 122.85 53.7008 122.828 54.0273H124.22C124.198 53.7225 124.067 53.2654 123.546 53.2654Z" fill="white"/>
<path d="M137.571 53.2874C137.071 53.2874 136.788 53.7227 136.788 54.2887C136.788 54.8112 137.049 55.2465 137.549 55.2465C137.875 55.2465 138.158 55.0289 138.245 54.6806C138.267 54.6153 138.267 54.5499 138.267 54.4846V54.0275C138.267 53.9622 138.267 53.8969 138.245 53.8316C138.18 53.5486 137.919 53.2874 137.571 53.2874Z" fill="white"/>
<path d="M80.9067 49.2385V58.6427H95.4096V49.2385H80.9067ZM85.4294 55.595H84.9945L84.6031 54.3542C84.5162 54.0712 84.4292 53.81 84.364 53.5052C84.2987 53.81 84.2117 54.093 84.1248 54.376L83.7117 55.6168H83.2768L82.494 53.0045H82.9724L83.3203 54.3324C83.4072 54.6154 83.4725 54.8984 83.516 55.1597H83.5377C83.6029 54.8984 83.6899 54.6154 83.7769 54.3324L84.2117 53.0045H84.6031L85.0163 54.3107C85.1032 54.6154 85.1902 54.8984 85.2554 55.1597H85.2772C85.3207 54.8984 85.3859 54.6154 85.4729 54.3107L85.8425 53.0045H86.2991L85.4294 55.595ZM89.4302 55.595H88.9953L88.6039 54.3542C88.517 54.0712 88.43 53.81 88.3648 53.5052C88.2995 53.81 88.2125 54.093 88.1256 54.376L87.7125 55.6168H87.2776L86.4948 53.0045H86.9732L87.3211 54.3324C87.408 54.6154 87.4733 54.8984 87.5168 55.1597H87.5385C87.6037 54.8984 87.6907 54.6154 87.7777 54.3324L88.2126 53.0045H88.6039L89.0171 54.3107C89.104 54.6154 89.191 54.8984 89.2562 55.1597H89.278C89.3215 54.8984 89.3867 54.6154 89.4737 54.3107L89.8433 53.0045H90.2999L89.4302 55.595ZM93.4527 55.595H93.0179L92.6265 54.3542C92.5395 54.0712 92.4525 53.81 92.3873 53.5052C92.3221 53.81 92.2351 54.093 92.1481 54.376L91.735 55.6168H91.3001L90.5174 53.0045H90.9957L91.3219 54.3107C91.4088 54.5937 91.4741 54.8767 91.5176 55.1379H91.5393C91.6045 54.8767 91.6915 54.5937 91.7785 54.3107L92.2134 52.9828H92.6047L93.0179 54.2889C93.1048 54.5937 93.1918 54.8767 93.257 55.1379H93.2788C93.3223 54.8767 93.3875 54.5937 93.4745 54.2889L93.8441 52.9828H94.3007L93.4527 55.595ZM94.7356 55.6386C94.5399 55.6386 94.4094 55.4862 94.4094 55.2903C94.4094 55.0943 94.5399 54.942 94.7356 54.942C94.9313 54.942 95.0618 55.0726 95.0618 55.2903C95.0618 55.508 94.9313 55.6386 94.7356 55.6386Z" fill="white"/>
</svg>
