<svg width="177" height="81" viewBox="0 0 177 81" fill="none" xmlns="http://www.w3.org/2000/svg">
<path d="M156.687 78.9834C126.565 76.9145 96.1752 73.6286 67.7549 80.3708C93.1605 69.1987 125.665 70.44 156.687 78.9834Z" fill="#EFB500"/>
<path d="M60.8996 8.44593C76.1916 25.9951 76.1187 45.7104 66.5399 66.7402C77.8448 50.4567 78.015 31.1065 73.104 15.3341C71.9371 13.0218 71.7669 12.6324 70.6242 10.8556C61.8721 -4.06483 39.2379 0.973548 34.5215 15.9183C42.4957 9.12744 51.0048 5.08701 60.8996 8.44593Z" fill="#EFB500"/>
<path d="M38.7513 56.98C33.2569 67.3002 56.1098 85.4578 63.3547 76.306C51.4176 76.379 40.4045 66.2292 38.7513 56.98Z" fill="#EFB500"/>
<path d="M17.2115 55.1785C22.3656 50.3835 20.0803 36.8992 15.3882 34.9276C17.2359 37.678 19.7643 43.2762 17.2845 46.0997C10.6717 43.617 9.55338 38.5299 8.07037 33.5889C6.92773 41.3777 10.7447 46.8055 15.6556 51.6979C4.76399 52.5011 -0.949239 32.4936 8.7511 25.435C13.346 25.289 15.0235 29.6458 16.2391 29.1104C15.4854 26.4573 12.7382 24.7535 10.3557 22.8793C12.8598 22.4169 16.5065 23.7556 18.2813 22.1248C-3.1616 15.626 -5.17946 50.1401 9.28596 55.9574C11.3038 56.7606 12.641 55.4219 17.795 56.1278C22.6817 56.7849 27.8114 58.367 24.9426 52.1117C23.8729 55.4706 20.6881 55.5679 17.2115 55.1785Z" fill="#EFB500"/>
<path d="M25.0399 43.0087C27.3009 35.5119 23.5569 25.7516 18.0625 25.8246C22.4872 30.5466 22.8762 37.1914 25.0399 43.0087Z" fill="#EFB500"/>
<path d="M39.8458 47.9984C46.5558 35.512 42.7389 23.4637 27.5928 19.4719C35.567 27.1147 41.5233 35.731 39.8458 47.9984Z" fill="#EFB500"/>
<path d="M39.4325 49.4103C38.217 53.6212 33.3303 52.0147 31.0693 54.5948C34.6675 56.1769 36.5638 55.0816 38.8004 54.5217C38.7518 52.9396 41.11 50.2136 39.4325 49.4103Z" fill="#EFB500"/>
<path d="M27.7139 30.8634C34.278 35.7801 28.9051 46.368 29.5129 54.1324C37.4628 48.7776 35.7124 32.2995 27.7139 30.8634Z" fill="#EFB500"/>
<path d="M161.283 3.23737C166.462 25.8005 178.18 46.2461 161.429 75.9409C182.167 52.9153 182.264 19.9346 161.283 3.23737Z" fill="#EFB500"/>
<path d="M134.295 40.38L134.684 41.0128H136.483L135.462 39.4307L136.483 38.5058L135.559 37.2158L134.66 38.1894L133.517 36.3882C134.465 35.7067 134.976 34.8792 134.976 34.0273C134.976 32.932 134.149 32.1531 133.006 32.1531C131.669 32.1531 130.843 32.9563 130.843 34.1246C130.843 34.7331 131.11 35.2929 131.548 36.0231C130.6 36.656 130.113 37.4835 130.113 38.4085C130.113 39.8689 131.183 41.0615 132.593 41.0615C133.274 41.0615 133.833 40.8425 134.295 40.38ZM132.788 35.1956L132.52 34.7575C132.423 34.5871 132.35 34.3437 132.35 34.1246C132.35 33.7352 132.617 33.4674 132.982 33.4674C133.274 33.4674 133.468 33.7108 133.468 34.0759C133.468 34.368 133.298 34.7331 132.982 35.0252L132.788 35.1956ZM133.566 39.1873C133.249 39.3577 132.982 39.4551 132.739 39.4551C132.204 39.4551 131.766 38.9926 131.766 38.3598C131.766 37.946 131.985 37.6783 132.423 37.4105L133.566 39.1873Z" fill="#EFB500"/>
<path d="M106.605 52.0632H108.283C109.45 52.0632 110.301 52.0145 110.957 51.4303C111.468 50.9922 111.76 50.3107 111.76 49.4831C111.76 48.3635 111.346 47.7306 110.471 47.4142C111.273 47.0248 111.614 46.4163 111.614 45.4427C111.614 43.6172 110.617 43.033 108.356 43.033H106.605V52.0632ZM108.38 50.4567V48.0957H108.599C109.571 48.0957 109.96 48.4365 109.96 49.3127C109.96 50.116 109.571 50.4811 108.623 50.4811C108.526 50.4567 108.453 50.4567 108.38 50.4567ZM108.38 46.7814V44.4934H108.55C109.474 44.4934 109.912 44.8585 109.912 45.6617C109.912 46.4406 109.474 46.7814 108.55 46.7814H108.38Z" fill="#EFB500"/>
<path d="M116.354 52.0632H121.217V50.2863H118.591V48.1688H120.974V46.5136H118.591V44.6881H121.217V43.033H116.354V52.0632Z" fill="#EFB500"/>
<path d="M124.911 52.0632H126.589V48.2661C126.589 47.2438 126.564 46.3189 126.467 45.4914C126.686 46.3433 126.832 46.8544 126.88 47.0004L128.85 52.0632H130.527V43.033H128.85V46.5136C128.85 47.4872 128.947 48.5582 129.141 49.7752C128.874 48.8259 128.679 48.1931 128.582 47.9254L126.734 43.0574H124.887V52.0632H124.911Z" fill="#EFB500"/>
<path d="M135.487 52.0633H136.849C137.991 52.0633 138.867 51.9902 139.645 51.3817C140.763 50.5542 141.225 49.3128 141.225 47.536C141.225 44.4935 139.839 43.0088 137.043 43.0088H135.487V52.0633ZM137.286 50.3838V44.6639H137.408C138.769 44.6639 139.426 45.6132 139.426 47.5604C139.426 49.4102 138.721 50.3595 137.432 50.3595H137.286V50.3838Z" fill="#EFB500"/>
<path d="M145.869 52.0632H150.731V50.2863H148.106V48.1688H150.488V46.5136H148.106V44.6881H150.731V43.033H145.869V52.0632Z" fill="#EFB500"/>
<path d="M154.427 52.0632H156.202V48.3148L157.685 52.0632H159.605L157.855 47.9497C158.827 47.6333 159.289 46.8544 159.289 45.5887C159.289 43.7632 158.341 43.033 156.323 43.033H154.427V52.0632ZM156.177 46.9274V44.4204C156.274 44.4204 156.347 44.4204 156.42 44.4204C157.223 44.4204 157.563 44.8098 157.563 45.6617C157.563 46.5136 157.15 46.9518 156.372 46.9518C156.323 46.9518 156.25 46.9274 156.177 46.9274Z" fill="#EFB500"/>
<path d="M90.121 36.315L82.1467 15.6504H78.5L86.9604 36.315H90.121Z" fill="#EFB500"/>
<path d="M93.5752 39.9175C92.6757 39.8688 91.7032 39.8445 90.6092 39.8445H88.7129V40.599L90.9739 44.9072L93.5752 39.9175Z" fill="#EFB500"/>
<path d="M93.9399 36.3881L101.598 17.5976H159.581V15.6504H101.501H98.7536L90.8037 36.315H91.1441C92.1409 36.315 93.089 36.3394 93.9399 36.3881Z" fill="#EFB500"/>
<path d="M88.4686 52.0631H90.1704H91.1186C94.0603 52.0631 96.3456 51.9901 98.2419 50.6514C100.017 49.3857 101.135 47.0734 101.135 44.323C101.135 41.5726 100.017 39.2359 98.2419 37.9946C96.9777 37.094 95.519 36.7776 93.8172 36.6559C92.9662 36.5829 92.0667 36.5829 91.0942 36.5829H90.6809H90.1704H90.1947H87.0585H85.1865V64.7199H88.4686V52.0631ZM88.4686 40.0392V39.6254H90.1704C91.0456 39.6254 91.8479 39.6497 92.5773 39.7227C95.8836 40.0148 97.5125 41.1588 97.5125 44.5177C97.5125 48.4121 95.057 49.045 90.1704 49.045H88.4686V40.0392Z" fill="#EFB500"/>
<path d="M151.291 2.28796C122.506 7.83748 92.36 3.31024 62.3838 0C92.8949 9.78468 125.278 12.3891 151.291 2.28796Z" fill="#EFB500"/>
<path d="M28.3451 25.7518C27.4699 24.7538 27.2997 23.4395 26.7892 22.2711C24.0663 21.7113 20.2007 19.3747 19.8604 22.5632C23.8718 22.6849 27.2025 26.2386 28.3451 25.7518Z" fill="#EFB500"/>
<path d="M106.824 30.2788V21.2487H108.623V24.6076H110.641V21.2487H112.44V30.2788H110.641V26.3601H108.623V30.2788H106.824ZM113.364 30.2788L115.479 21.2487H117.375L119.393 30.2788H117.57L117.254 28.6967H115.479L115.212 30.2788H113.364ZM115.795 27.3093H117.011C116.743 25.9706 116.549 24.5832 116.403 23.1472C116.233 24.4615 116.038 25.8489 115.795 27.3093ZM120.341 30.2788V21.2487H122.238C124.256 21.2487 125.204 21.9789 125.204 23.8044C125.204 25.07 124.742 25.8489 123.769 26.1653L125.52 30.2788H123.599L122.116 26.5304V30.2788H120.341ZM122.092 25.1674C122.165 25.1674 122.238 25.1917 122.286 25.1917C123.064 25.1917 123.478 24.7536 123.478 23.9017C123.478 23.0498 123.137 22.6604 122.335 22.6604C122.262 22.6604 122.189 22.6604 122.092 22.6847V25.1674ZM127.295 30.2788V22.9281H125.909V21.2487H130.528V22.9281H129.142V30.2788H127.295ZM131.209 30.2788L132.108 21.2487H134.442L134.904 24.7049C135.026 25.6785 135.147 26.6278 135.196 27.6257C135.342 26.1653 135.439 25.1917 135.512 24.7049L136.095 21.2487H138.405L139.183 30.2788H137.36L137.165 26.0923C137.117 25.2648 137.068 24.2181 137.068 22.9525L135.877 30.2788H134.564L133.445 22.9038C133.445 24.0478 133.348 25.0944 133.3 26.1167L133.008 30.2788H131.209ZM139.669 30.2788L141.784 21.2487H143.681L145.699 30.2788H143.899L143.583 28.6967H141.76L141.493 30.2788H139.669ZM142.076 27.3093H143.292C143.024 25.9706 142.83 24.5832 142.684 23.1472C142.514 24.4615 142.319 25.8489 142.076 27.3093ZM146.622 30.2788V21.2487H148.47L150.318 26.1167C150.415 26.3844 150.609 27.0172 150.877 27.9665C150.707 26.7738 150.585 25.6785 150.585 24.7049V21.2487H152.263V30.2788H150.585L148.592 25.2161C148.519 25.07 148.397 24.5589 148.178 23.707C148.276 24.5346 148.3 25.4595 148.3 26.4818V30.2788H146.622ZM153.94 30.2788V21.2487H155.788L157.636 26.1167C157.733 26.3844 157.927 27.0172 158.195 27.9665C158.025 26.7738 157.903 25.6785 157.903 24.7049V21.2487H159.58V30.2788H157.903L155.909 25.2161C155.836 25.07 155.715 24.5589 155.496 23.707C155.593 24.5346 155.618 25.4595 155.618 26.4818V30.2788H153.94Z" fill="#EFB500"/>
<path d="M110.567 60.4362C110.567 60.7769 110.786 60.9473 111.078 60.9473C111.467 60.9473 111.686 60.7039 111.783 60.4605C111.807 60.4118 111.807 60.3388 111.807 60.2901V59.779C111.224 59.779 110.567 59.8764 110.567 60.4362Z" fill="#EFB500"/>
<path d="M147.838 58.6837C147.304 58.6837 147.06 59.1705 147.036 59.5356H148.592C148.592 59.1948 148.446 58.6837 147.838 58.6837Z" fill="#EFB500"/>
<path d="M122.53 60.4362C122.53 60.7769 122.749 60.9473 123.041 60.9473C123.43 60.9473 123.649 60.7039 123.746 60.4605C123.77 60.4118 123.77 60.3388 123.77 60.2901V59.779C123.187 59.779 122.53 59.8764 122.53 60.4362Z" fill="#EFB500"/>
<path d="M144.557 58.7081C143.998 58.7081 143.682 59.1949 143.682 59.8278C143.682 60.4119 143.973 60.8987 144.533 60.8987C144.897 60.8987 145.213 60.6553 145.311 60.2659C145.335 60.1929 145.335 60.1198 145.335 60.0468V59.5357C145.335 59.4627 145.335 59.3896 145.311 59.3166C145.238 59.0002 144.946 58.7081 144.557 58.7081Z" fill="#EFB500"/>
<path d="M134.978 58.7081C134.613 58.7081 134.273 58.9515 134.176 59.3653C134.176 59.414 134.151 59.487 134.151 59.5844V60.0955C134.151 60.1685 134.151 60.2172 134.176 60.2902C134.273 60.6553 134.589 60.8987 134.978 60.8987C135.537 60.8987 135.853 60.4363 135.853 59.7791C135.829 59.2193 135.537 58.7081 134.978 58.7081Z" fill="#EFB500"/>
<path d="M106.678 54.181V64.6958H159.58V54.181H106.678ZM109.425 61.2882H108.89V59.6088C108.89 59.1463 108.72 58.7325 108.209 58.7325C107.869 58.7325 107.602 58.9759 107.504 59.268C107.48 59.341 107.48 59.4141 107.48 59.5114V61.2639H106.945V57.0044H107.48V58.8299C107.553 58.6839 107.699 58.5378 107.869 58.4648C108.015 58.3674 108.209 58.3188 108.404 58.3188C108.793 58.3188 109.425 58.5622 109.425 59.5601V61.2882ZM111.88 61.2882L111.832 60.9231H111.807C111.637 61.1422 111.321 61.3613 110.908 61.3613C110.324 61.3613 110.008 60.9475 110.008 60.5337C110.008 59.8278 110.641 59.4384 111.759 59.4384V59.3897C111.759 59.1463 111.686 58.7082 111.102 58.7082C110.835 58.7082 110.543 58.7812 110.349 58.9273L110.227 58.5865C110.47 58.4405 110.811 58.3188 111.175 58.3188C112.075 58.3188 112.269 58.9273 112.269 59.5114V60.6067C112.269 60.8501 112.269 61.1179 112.318 61.3126H111.88V61.2882ZM114.579 58.8056C114.53 58.8056 114.482 58.7812 114.409 58.7812C114.044 58.7812 113.777 59.0733 113.704 59.4627C113.704 59.5358 113.679 59.6088 113.679 59.7061V61.2639H113.169V59.268C113.169 58.9273 113.169 58.6352 113.145 58.3674H113.607L113.631 58.9273H113.655C113.777 58.5378 114.117 58.2944 114.457 58.2944C114.53 58.2944 114.555 58.2944 114.603 58.3188V58.8056H114.579ZM116.645 58.7569H115.892V60.339C115.892 60.7041 115.989 60.8988 116.281 60.8988C116.427 60.8988 116.524 60.8745 116.597 60.8745L116.621 61.2639C116.524 61.3126 116.354 61.3369 116.159 61.3369C115.916 61.3369 115.722 61.2639 115.576 61.1179C115.43 60.9718 115.381 60.7041 115.381 60.3633V58.7812H114.944V58.3674H115.381V57.6616L115.892 57.5155V58.3431H116.645V58.7569ZM121.386 61.2882H120.876V59.6331C120.876 59.0733 120.681 58.7325 120.244 58.7325C119.952 58.7325 119.709 58.9516 119.612 59.2193C119.587 59.2924 119.563 59.3897 119.563 59.4871V61.2882H119.052V59.5358C119.052 59.0733 118.858 58.7325 118.445 58.7325C118.104 58.7325 117.885 59.0003 117.788 59.268C117.764 59.341 117.74 59.4384 117.74 59.5358V61.2882H117.229V59.1463C117.229 58.8542 117.229 58.6108 117.205 58.3674H117.667L117.691 58.8299H117.715C117.885 58.5622 118.153 58.2944 118.639 58.2944C119.028 58.2944 119.344 58.5378 119.466 58.8786C119.563 58.7082 119.66 58.5865 119.782 58.4891C119.952 58.3674 120.146 58.2944 120.414 58.2944C120.803 58.2944 121.362 58.5378 121.362 59.5601V61.2882H121.386ZM123.842 61.2882L123.793 60.9231H123.769C123.599 61.1422 123.283 61.3613 122.869 61.3613C122.286 61.3613 121.97 60.9475 121.97 60.5337C121.97 59.8278 122.602 59.4384 123.72 59.4384V59.3897C123.72 59.1463 123.647 58.7082 123.064 58.7082C122.796 58.7082 122.505 58.7812 122.31 58.9273L122.189 58.5865C122.432 58.4405 122.772 58.3188 123.137 58.3188C124.036 58.3188 124.231 58.9273 124.231 59.5114V60.6067C124.231 60.8501 124.231 61.1179 124.279 61.3126H123.842V61.2882ZM127.61 61.2882H127.075V59.6088C127.075 59.1463 126.905 58.7569 126.394 58.7569C126.054 58.7569 125.787 59.0003 125.689 59.2924C125.665 59.3654 125.665 59.4384 125.665 59.5358V61.2882H125.13V59.1463C125.13 58.8542 125.13 58.6108 125.106 58.3674H125.568L125.592 58.8542C125.738 58.5865 126.078 58.3188 126.565 58.3188C126.978 58.3188 127.586 58.5622 127.586 59.5601V61.2882H127.61ZM130.916 61.2882H130.382V59.6088C130.382 59.1463 130.211 58.7569 129.701 58.7569C129.36 58.7569 129.093 59.0003 128.996 59.2924C128.971 59.3654 128.971 59.4384 128.971 59.5358V61.2882H128.437V59.1463C128.437 58.8542 128.437 58.6108 128.412 58.3674H128.874L128.899 58.8542C129.044 58.5865 129.385 58.3188 129.871 58.3188C130.284 58.3188 130.892 58.5622 130.892 59.5601V61.2882H130.916ZM133.007 59.8522H131.524V59.4627H133.007V59.8522ZM135.074 61.3369C134.66 61.3369 134.32 61.1665 134.101 60.8014H134.077L134.053 61.2882H133.591C133.591 61.0935 133.615 60.8014 133.615 60.5337V57.0044H134.126V58.8299C134.32 58.5135 134.636 58.2944 135.122 58.2944C135.852 58.2944 136.362 58.9029 136.338 59.7792C136.362 60.8258 135.706 61.3369 135.074 61.3369ZM139.353 59.9252H137.31C137.31 60.6311 137.772 60.9475 138.307 60.9475C138.696 60.9475 138.915 60.8745 139.109 60.8014L139.207 61.1909C139.012 61.2882 138.696 61.3613 138.234 61.3613C137.335 61.3613 136.8 60.7771 136.8 59.9009C136.8 59.0246 137.31 58.3188 138.161 58.3188C139.109 58.3188 139.353 59.1463 139.353 59.6818C139.377 59.7792 139.377 59.8522 139.353 59.9252ZM142.513 61.2882H141.978V59.6088C141.978 59.1463 141.808 58.7569 141.297 58.7569C140.957 58.7569 140.69 59.0003 140.592 59.2924C140.568 59.3654 140.568 59.4384 140.568 59.5358V61.2882H140.033V59.1463C140.033 58.8542 140.033 58.6108 140.009 58.3674H140.471L140.495 58.8542C140.641 58.5865 140.981 58.3188 141.468 58.3188C141.881 58.3188 142.489 58.5622 142.489 59.5601V61.2882H142.513ZM145.406 61.2882L145.382 60.7771C145.212 61.0935 144.871 61.3613 144.385 61.3613C143.68 61.3613 143.145 60.7528 143.145 59.8765C143.145 58.9029 143.753 58.3188 144.458 58.3188C144.896 58.3188 145.212 58.5378 145.333 58.7569V57.0287H145.868V60.558C145.868 60.8258 145.868 61.1179 145.892 61.3126H145.406V61.2882ZM149.077 59.9252H147.035C147.035 60.6311 147.497 60.9475 148.032 60.9475C148.421 60.9475 148.64 60.8745 148.834 60.8014L148.931 61.1909C148.737 61.2882 148.421 61.3613 147.959 61.3613C147.059 61.3613 146.524 60.7771 146.524 59.9009C146.524 59.0246 147.035 58.3188 147.886 58.3188C148.834 58.3188 149.077 59.1463 149.077 59.6818C149.077 59.7792 149.077 59.8522 149.077 59.9252ZM151.168 58.8056C151.119 58.8056 151.071 58.7812 150.998 58.7812C150.633 58.7812 150.366 59.0733 150.293 59.4627C150.293 59.5358 150.268 59.6088 150.268 59.7061V61.2639H149.758V59.268C149.758 58.9273 149.758 58.6352 149.734 58.3674H150.196L150.22 58.9273H150.244C150.366 58.5378 150.706 58.2944 151.046 58.2944C151.119 58.2944 151.144 58.2944 151.192 58.3188V58.8056H151.168ZM151.606 61.3369C151.387 61.3369 151.241 61.1665 151.241 60.9475C151.241 60.7284 151.387 60.558 151.606 60.558C151.824 60.558 151.97 60.7041 151.97 60.9475C151.97 61.1909 151.824 61.3369 151.606 61.3369ZM154.669 61.2882L154.645 60.7771C154.474 61.0935 154.134 61.3613 153.648 61.3613C152.943 61.3613 152.408 60.7528 152.408 59.8765C152.408 58.9029 153.016 58.3188 153.721 58.3188C154.158 58.3188 154.474 58.5378 154.596 58.7569V57.0287H155.131V60.558C155.131 60.8258 155.131 61.1179 155.155 61.3126H154.669V61.2882ZM158.34 59.9252H156.298C156.298 60.6311 156.76 60.9475 157.295 60.9475C157.684 60.9475 157.902 60.8745 158.097 60.8014L158.194 61.1909C158 61.2882 157.684 61.3613 157.222 61.3613C156.322 61.3613 155.787 60.7771 155.787 59.9009C155.787 59.0246 156.298 58.3188 157.149 58.3188C158.097 58.3188 158.34 59.1463 158.34 59.6818C158.34 59.7792 158.34 59.8522 158.34 59.9252Z" fill="#EFB500"/>
<path d="M157.1 58.6837C156.565 58.6837 156.322 59.1705 156.298 59.5356H157.854C157.854 59.1948 157.708 58.6837 157.1 58.6837Z" fill="#EFB500"/>
<path d="M138.137 58.6837C137.602 58.6837 137.359 59.1705 137.335 59.5356H138.891C138.867 59.1948 138.721 58.6837 138.137 58.6837Z" fill="#EFB500"/>
<path d="M153.819 58.7081C153.259 58.7081 152.943 59.1949 152.943 59.8278C152.943 60.4119 153.235 60.8987 153.794 60.8987C154.159 60.8987 154.475 60.6553 154.572 60.2659C154.597 60.1929 154.597 60.1198 154.597 60.0468V59.5357C154.597 59.4627 154.597 59.3896 154.572 59.3166C154.499 59.0002 154.208 58.7081 153.819 58.7081Z" fill="#EFB500"/>
<path d="M90.4639 54.181V64.6958H106.68V54.181H90.4639ZM95.5207 61.2882H95.0345L94.5968 59.9009C94.4996 59.5844 94.4024 59.2924 94.3294 58.9516C94.2565 59.2924 94.1592 59.6088 94.062 59.9252L93.6001 61.3126H93.1138L92.2386 58.3918H92.7735L93.1625 59.8765C93.2597 60.1929 93.3326 60.5094 93.3813 60.8014H93.4056C93.4785 60.5094 93.5758 60.1929 93.673 59.8765L94.1592 58.3918H94.5968L95.0588 59.8522C95.156 60.1929 95.2533 60.5094 95.3262 60.8014H95.3505C95.3991 60.5094 95.4721 60.1929 95.5693 59.8522L95.9826 58.3918H96.4932L95.5207 61.2882ZM99.994 61.2882H99.5078L99.0702 59.9009C98.9729 59.5844 98.8757 59.2924 98.8028 58.9516C98.7298 59.2924 98.6326 59.6088 98.5353 59.9252L98.0734 61.3126H97.5872L96.712 58.3918H97.2468L97.6358 59.8765C97.733 60.1929 97.806 60.5094 97.8546 60.8014H97.8789C97.9518 60.5094 98.0491 60.1929 98.1463 59.8765L98.6326 58.3918H99.0702L99.5321 59.8522C99.6294 60.1929 99.7266 60.5094 99.7995 60.8014H99.8239C99.8725 60.5094 99.9454 60.1929 100.043 59.8522L100.456 58.3918H100.966L99.994 61.2882ZM104.492 61.2882H104.005L103.568 59.9009C103.471 59.5844 103.373 59.2924 103.3 58.9516C103.227 59.2924 103.13 59.6088 103.033 59.9252L102.571 61.3126H102.085L101.21 58.3918H101.744L102.109 59.8522C102.206 60.1686 102.279 60.485 102.328 60.7771H102.352C102.425 60.485 102.522 60.1686 102.62 59.8522L103.106 58.3674H103.544L104.005 59.8278C104.103 60.1686 104.2 60.485 104.273 60.7771H104.297C104.346 60.485 104.419 60.1686 104.516 59.8278L104.929 58.3674H105.44L104.492 61.2882ZM105.926 61.3369C105.707 61.3369 105.561 61.1665 105.561 60.9475C105.561 60.7284 105.707 60.558 105.926 60.558C106.145 60.558 106.291 60.7041 106.291 60.9475C106.291 61.1909 106.145 61.3369 105.926 61.3369Z" fill="#EFB500"/>
</svg>
