<svg width="71" height="82" viewBox="0 0 71 82" fill="none" xmlns="http://www.w3.org/2000/svg">
<path d="M70.8987 61.3952V20.4613L35.455 0L0 20.4613V61.3952L35.455 81.8677L70.8987 61.3952Z" fill="#EFB500"/>
<path d="M36.9964 24L23.3838 28.4691C22.5593 28.738 22 29.5372 22 30.4386V54H37V24H36.9964Z" stroke="white" stroke-width="2" stroke-miterlimit="10" stroke-linejoin="round"/>
<path d="M37 27L46.0779 30.2659C46.628 30.5078 47 31.226 47 32.0386V54H37V27Z" stroke="white" stroke-width="2" stroke-miterlimit="10" stroke-linejoin="round"/>
<path d="M20 54H49" stroke="white" stroke-width="2" stroke-miterlimit="10" stroke-linecap="round" stroke-linejoin="round"/>
<path d="M27.2751 32.7461H25.6787V34.3425H27.2751V32.7461Z" fill="white"/>
<path d="M30.4831 32.7461H28.8867V34.3425H30.4831V32.7461Z" fill="white"/>
<path d="M33.6872 32.7461H32.0908V34.3425H33.6872V32.7461Z" fill="white"/>
<path d="M42.5964 32.7461H41V34.3425H42.5964V32.7461Z" fill="white"/>
<path d="M27.2751 35.9731H25.6787V37.5695H27.2751V35.9731Z" fill="white"/>
<path d="M30.4831 35.9731H28.8867V37.5695H30.4831V35.9731Z" fill="white"/>
<path d="M33.6872 35.9731H32.0908V37.5695H33.6872V35.9731Z" fill="white"/>
<path d="M42.5964 35.9731H41V37.5695H42.5964V35.9731Z" fill="white"/>
<path d="M27.2751 39.2002H25.6787V40.7966H27.2751V39.2002Z" fill="white"/>
<path d="M30.4831 39.2002H28.8867V40.7966H30.4831V39.2002Z" fill="white"/>
<path d="M33.6872 39.2002H32.0908V40.7966H33.6872V39.2002Z" fill="white"/>
<path d="M42.5964 39.2002H41V40.7966H42.5964V39.2002Z" fill="white"/>
<path d="M27.2751 42.4235H25.6787V44.0198H27.2751V42.4235Z" fill="white"/>
<path d="M30.4831 42.4235H28.8867V44.0198H30.4831V42.4235Z" fill="white"/>
<path d="M33.6872 42.4235H32.0908V44.0198H33.6872V42.4235Z" fill="white"/>
<path d="M42.5964 42.4235H41V44.0198H42.5964V42.4235Z" fill="white"/>
<path d="M27.2751 45.6506H25.6787V47.247H27.2751V45.6506Z" fill="white"/>
<path d="M30.4831 45.6506H28.8867V47.247H30.4831V45.6506Z" fill="white"/>
<path d="M33.6872 45.6506H32.0908V47.247H33.6872V45.6506Z" fill="white"/>
<path d="M42.5964 45.6506H41V47.247H42.5964V45.6506Z" fill="white"/>
<path d="M27.2751 48.8778H25.6787V50.4742H27.2751V48.8778Z" fill="white"/>
<path d="M30.4831 48.8778H28.8867V50.4742H30.4831V48.8778Z" fill="white"/>
<path d="M33.6872 48.8778H32.0908V50.4742H33.6872V48.8778Z" fill="white"/>
<path d="M42.5964 48.8778H41V50.4742H42.5964V48.8778Z" fill="white"/>
</svg>
