<svg width="71" height="82" viewBox="0 0 71 82" fill="none" xmlns="http://www.w3.org/2000/svg">
<path d="M70.8987 61.3952V20.4613L35.455 0L0 20.4613V61.3952L35.455 81.8677L70.8987 61.3952Z" fill="#EFB500"/>
<path d="M47.4045 40.8999C47.4045 39.1863 48.5319 37.7433 50.0763 37.2247C49.7156 35.7704 49.1406 34.4064 48.3966 33.155C46.9423 33.8878 45.1273 33.6623 43.9097 32.4448C42.6922 31.2272 42.4667 29.4122 43.1995 27.9579C41.9482 27.2026 40.5841 26.6389 39.1298 26.2782C38.6112 27.8227 37.1795 28.95 35.4547 28.95C33.7411 28.95 32.2981 27.8227 31.7795 26.2782C30.3252 26.6389 28.9612 27.2139 27.7098 27.9579C28.4426 29.4122 28.2171 31.2272 26.9996 32.4448C25.7821 33.6623 23.967 33.8878 22.5128 33.155C21.7574 34.4064 21.1938 35.7704 20.833 37.2247C22.3775 37.7433 23.5048 39.175 23.5048 40.8999C23.5048 42.6134 22.3775 44.0564 20.833 44.575C21.1938 46.0293 21.7687 47.3934 22.5128 48.6447C23.967 47.9119 25.7821 48.1374 26.9996 49.3549C28.2171 50.5725 28.4426 52.3875 27.7098 53.8418C28.9612 54.5971 30.3252 55.1608 31.7795 55.5215C32.2981 53.9771 33.7298 52.8497 35.4547 52.8497C37.1682 52.8497 38.6112 53.9771 39.1298 55.5215C40.5841 55.1608 41.9482 54.5858 43.1995 53.8418C42.4667 52.3875 42.6922 50.5725 43.9097 49.3549C45.1273 48.1374 46.9423 47.9119 48.3966 48.6447C49.1519 47.3934 49.7156 46.0293 50.0763 44.575C48.5206 44.0564 47.4045 42.6134 47.4045 40.8999ZM35.4434 44.7892C33.3014 44.7892 31.5541 43.0531 31.5541 40.8999C31.5541 38.7579 33.2902 37.0105 35.4434 37.0105C37.5966 37.0105 39.3327 38.7466 39.3327 40.8999C39.3327 43.0531 37.5966 44.7892 35.4434 44.7892Z" stroke="white" stroke-width="2" stroke-miterlimit="10"/>
</svg>
