<svg width="140" height="45" viewBox="0 0 140 45" fill="none" xmlns="http://www.w3.org/2000/svg">
<path d="M42.5809 27.408C39.5606 27.408 37.4551 25.0547 37.4551 22.1964C37.4551 19.3382 39.5892 16.9563 42.6094 16.9563C45.6297 16.9563 47.7352 19.3096 47.7352 22.1679C47.7352 25.0261 45.6011 27.408 42.5809 27.408ZM42.5809 18.5855C40.6277 18.5855 39.2653 20.1861 39.2653 22.1679C39.2653 24.1496 40.6563 25.7788 42.6094 25.7788C44.5626 25.7788 45.925 24.1782 45.925 22.1964C45.925 20.2243 44.534 18.5855 42.5809 18.5855Z" fill="#252F5C"/>
<path d="M56.1275 27.408L53.7075 23.8828H51.5448V27.408H49.8203V17.2993H54.203C56.461 17.2993 57.852 18.5284 57.852 20.5101C57.852 22.1869 56.8802 23.1968 55.5082 23.5875L58.1664 27.4175H56.1275V27.408ZM54.0696 18.919H51.5543V22.3108H54.0791C55.3177 22.3108 56.0989 21.6439 56.0989 20.6054C56.0989 19.5002 55.3463 18.919 54.0696 18.919Z" fill="#252F5C"/>
<path d="M61.7967 17.6709H60.0723V27.4175H61.7967V17.6709Z" fill="#252F5C"/>
<path d="M71.7143 19.1953H66.1598V21.7296H71.0855V23.2635H66.1598V25.8836H71.7905V27.408H64.4258V17.6709H71.7143V19.1953Z" fill="#252F5C"/>
<path d="M80.7092 17.6709H82.4051V27.408H80.9569L75.5357 20.4815V27.408H73.8398V17.6709H75.4405L80.7092 24.4068V17.6709Z" fill="#252F5C"/>
<path d="M89.0934 27.408H87.3499V19.2524H84.2344V17.6709H92.2089V19.2524H89.0934V27.408Z" fill="#252F5C"/>
<path d="M95.8573 17.6709H94.1328V27.4175H95.8573V17.6709Z" fill="#252F5C"/>
<path d="M102.279 21.6248C104.356 22.1297 105.443 22.8633 105.443 24.4925C105.443 26.3313 103.994 27.4175 101.927 27.4175C100.422 27.4175 99.002 26.903 97.8301 25.855L98.8686 24.6259C99.8118 25.4357 100.745 25.8931 101.975 25.8931C103.042 25.8931 103.718 25.4072 103.718 24.6545C103.718 23.9399 103.327 23.5684 101.498 23.1492C99.4021 22.6442 98.2302 22.0344 98.2302 20.2242C98.2302 18.5283 99.6403 17.385 101.584 17.385C103.013 17.385 104.156 17.8138 105.147 18.6141L104.223 19.9098C103.337 19.2524 102.451 18.9094 101.555 18.9094C100.545 18.9094 99.9547 19.4239 99.9547 20.0813C99.9452 20.8435 100.393 21.177 102.279 21.6248Z" fill="#252F5C"/>
<path d="M42.0465 39.8223H40.303V31.6668H37.1875V30.0852H45.162V31.6668H42.0465V39.8223Z" fill="#252F5C"/>
<path d="M54.2807 31.6096H48.7167V34.1439H53.6424V35.6778H48.7167V38.2979H54.3474V39.8318H46.9922V30.0852H54.2807V31.6096Z" fill="#252F5C"/>
<path d="M60.959 39.9938C58.0912 39.9938 55.957 37.7834 55.957 34.9728C55.957 32.1908 58.0531 29.9232 61.0257 29.9232C62.8359 29.9232 63.9315 30.5521 64.8748 31.4381L63.7696 32.7053C62.9788 31.9812 62.1404 31.4953 61.0161 31.4953C59.1297 31.4953 57.7768 33.0292 57.7768 34.9442C57.7768 36.8688 59.1392 38.4218 61.0161 38.4218C62.2261 38.4218 62.9978 37.9359 63.8363 37.1546L64.951 38.2693C63.922 39.3269 62.7978 39.9938 60.959 39.9938Z" fill="#252F5C"/>
<path d="M68.4862 35.7159V39.8223H66.7617V30.0852H68.4862V34.1344H73.1832V30.0852H74.9077V39.8223H73.1832V35.7159H68.4862Z" fill="#252F5C"/>
<path d="M84.301 30.0852H86.0064V39.8223H84.5582L79.1371 32.8958V39.8223H77.4316V30.0852H79.0323L84.301 36.8211V30.0852Z" fill="#252F5C"/>
<path d="M93.2195 39.9938C90.1993 39.9938 88.0938 37.7263 88.0938 34.9728C88.0938 32.2194 90.2279 29.9232 93.2481 29.9232C96.2683 29.9232 98.3739 32.1908 98.3739 34.9442C98.3739 37.6977 96.2397 39.9938 93.2195 39.9938ZM93.2195 31.4858C91.2664 31.4858 89.904 33.0292 89.904 34.9347C89.904 36.8402 91.295 38.4122 93.2481 38.4122C95.2013 38.4122 96.5637 36.8688 96.5637 34.9633C96.5637 33.0578 95.1727 31.4858 93.2195 31.4858Z" fill="#252F5C"/>
<path d="M100.469 30.0852H102.193V38.2693H107.367V39.8223H100.469V30.0852Z" fill="#252F5C"/>
<path d="M113.294 39.9938C110.274 39.9938 108.168 37.7263 108.168 34.9728C108.168 32.2194 110.302 29.9232 113.322 29.9232C116.343 29.9232 118.448 32.1908 118.448 34.9442C118.448 37.6977 116.314 39.9938 113.294 39.9938ZM113.294 31.4858C111.341 31.4858 109.978 33.0292 109.978 34.9347C109.978 36.8402 111.369 38.4122 113.322 38.4122C115.275 38.4122 116.638 36.8688 116.638 34.9633C116.638 33.0578 115.247 31.4858 113.294 31.4858Z" fill="#252F5C"/>
<path d="M125.203 39.9938C122.125 39.9938 120.105 37.8215 120.105 34.9728C120.105 32.2289 122.211 29.9232 125.174 29.9232C126.889 29.9232 127.937 30.3996 128.957 31.2476L127.861 32.5433C127.099 31.905 126.355 31.4953 125.107 31.4953C123.297 31.4953 121.916 33.0578 121.916 34.9442C121.916 36.9641 123.25 38.4408 125.26 38.4408C126.184 38.4408 127.032 38.1455 127.632 37.6977V35.8779H125.117V34.3916H129.3V38.4885C128.328 39.2983 126.937 39.9938 125.203 39.9938Z" fill="#252F5C"/>
<path d="M135.759 39.8223H134.016V35.9827L130.119 30.0852H132.148L134.902 34.4011L137.684 30.0852H139.666L135.759 35.9446V39.8223Z" fill="#252F5C"/>
<path d="M6.24219 16.0703C6.24219 16.0703 17.5323 9.90599 33.6051 13.6979C33.6051 13.6979 36.7968 -1.77471 24.7446 0.168896C24.7541 0.168896 14.3024 2.1125 6.24219 16.0703Z" fill="#252F5C"/>
<path d="M7.12854 30.0852C7.12854 30.0852 2.24094 29.304 0.878509 26.903C-0.512504 24.4259 1.68834 21.9011 4.05116 20.3862C10.4822 16.2704 17.5135 15.8607 19.7048 15.613C19.7048 15.6034 4.69903 21.6343 7.12854 30.0852Z" fill="#252F5C"/>
<path d="M0.506973 31.0379C0.506973 31.0379 16.2559 39.9652 32.8814 16.861C32.8814 16.861 25.9072 43.4904 9.65336 44.9957C9.65336 44.9957 -2.60851 45.6436 0.506973 31.0379Z" fill="#252F5C"/>
</svg>
