<svg width="101" height="33" viewBox="0 0 101 33" fill="none" xmlns="http://www.w3.org/2000/svg">
<path d="M30.7927 19.8201C28.6086 19.8201 27.0859 18.1183 27.0859 16.0514C27.0859 13.9844 28.6293 12.262 30.8133 12.262C32.9974 12.262 34.52 13.9638 34.52 16.0307C34.52 18.0977 32.9767 19.8201 30.7927 19.8201ZM30.7927 13.4402C29.3802 13.4402 28.395 14.5976 28.395 16.0307C28.395 17.4638 29.4009 18.642 30.8133 18.642C32.2257 18.642 33.211 17.4845 33.211 16.0514C33.211 14.6252 32.2051 13.4402 30.7927 13.4402Z" fill="white"/>
<path d="M40.5845 19.8201L38.8345 17.2709H37.2705V19.8201H36.0234V12.51H39.1928C40.8256 12.51 41.8316 13.3988 41.8316 14.8319C41.8316 16.0445 41.1288 16.7748 40.1367 17.0573L42.0589 19.827H40.5845V19.8201ZM39.0963 13.6813H37.2774V16.1341H39.1032C39.9989 16.1341 40.5638 15.6518 40.5638 14.9008C40.5638 14.1016 40.0195 13.6813 39.0963 13.6813Z" fill="white"/>
<path d="M44.6885 12.7787H43.4414V19.827H44.6885V12.7787Z" fill="white"/>
<path d="M51.8645 13.8811H47.8477V15.7138H51.4097V16.823H47.8477V18.7177H51.9196V19.8201H46.5938V12.7787H51.8645V13.8811Z" fill="white"/>
<path d="M58.3699 12.7787H59.5963V19.8201H58.549L54.6287 14.8112V19.8201H53.4023V12.7787H54.5598L58.3699 17.6498V12.7787Z" fill="white"/>
<path d="M64.4279 19.8201H63.167V13.9224H60.9141V12.7787H66.6808V13.9224H64.4279V19.8201Z" fill="white"/>
<path d="M69.3174 12.7787H68.0703V19.827H69.3174V12.7787Z" fill="white"/>
<path d="M73.9597 15.638C75.4617 16.0031 76.2471 16.5336 76.2471 17.7118C76.2471 19.0415 75.1999 19.827 73.7048 19.827C72.6162 19.827 71.5896 19.4549 70.7422 18.697L71.4932 17.8082C72.1753 18.3939 72.8505 18.7246 73.7393 18.7246C74.5109 18.7246 75.0001 18.3732 75.0001 17.8289C75.0001 17.3122 74.7176 17.0435 73.3948 16.7403C71.879 16.3752 71.0316 15.9342 71.0316 14.6252C71.0316 13.3988 72.0513 12.572 73.4568 12.572C74.4902 12.572 75.317 12.882 76.0336 13.4608L75.3653 14.3978C74.7245 13.9224 74.0837 13.6744 73.4361 13.6744C72.7058 13.6744 72.2786 14.0464 72.2786 14.5218C72.2717 15.073 72.5955 15.3141 73.9597 15.638Z" fill="white"/>
<path d="M30.4044 28.7975H29.1436V22.8999H26.8906V21.7561H32.6574V22.8999H30.4044V28.7975Z" fill="white"/>
<path d="M39.2512 22.8585H35.2275V24.6912H38.7896V25.8005H35.2275V27.6952H39.2994V28.8044H33.9805V21.7561H39.2512V22.8585Z" fill="white"/>
<path d="M44.0859 28.9216C42.0121 28.9216 40.4688 27.3231 40.4688 25.2906C40.4688 23.2788 41.9845 21.639 44.1341 21.639C45.4432 21.639 46.2355 22.0938 46.9176 22.7345L46.1184 23.6508C45.5465 23.1272 44.9402 22.7758 44.1272 22.7758C42.7631 22.7758 41.7847 23.8851 41.7847 25.27C41.7847 26.6617 42.7699 27.7847 44.1272 27.7847C45.0022 27.7847 45.5603 27.4334 46.1666 26.8684L46.9727 27.6745C46.2286 28.4393 45.4156 28.9216 44.0859 28.9216Z" fill="white"/>
<path d="M49.5244 25.828V28.7975H48.2773V21.7561H49.5244V24.6843H52.9211V21.7561H54.1681V28.7975H52.9211V25.828H49.5244Z" fill="white"/>
<path d="M60.9597 21.7561H62.193V28.7975H61.1458L57.2255 23.7886V28.7975H55.9922V21.7561H57.1497L60.9597 26.6272V21.7561Z" fill="white"/>
<path d="M67.4098 28.9216C65.2258 28.9216 63.7031 27.2818 63.7031 25.2906C63.7031 23.2995 65.2464 21.639 67.4305 21.639C69.6146 21.639 71.1372 23.2788 71.1372 25.27C71.1372 27.2611 69.5939 28.9216 67.4098 28.9216ZM67.4098 22.769C65.9974 22.769 65.0122 23.8851 65.0122 25.2631C65.0122 26.641 66.0181 27.7778 67.4305 27.7778C68.8429 27.7778 69.8282 26.6617 69.8282 25.2837C69.8282 23.9058 68.8223 22.769 67.4098 22.769Z" fill="white"/>
<path d="M72.6484 21.7561H73.8955V27.6745H77.6367V28.7975H72.6484V21.7561Z" fill="white"/>
<path d="M81.9333 28.9216C79.7492 28.9216 78.2266 27.2818 78.2266 25.2906C78.2266 23.2995 79.7699 21.639 81.954 21.639C84.138 21.639 85.6607 23.2788 85.6607 25.27C85.6607 27.2611 84.1174 28.9216 81.9333 28.9216ZM81.9333 22.769C80.5209 22.769 79.5356 23.8851 79.5356 25.2631C79.5356 26.641 80.5415 27.7778 81.954 27.7778C83.3664 27.7778 84.3516 26.6617 84.3516 25.2837C84.3516 23.9058 83.3457 22.769 81.9333 22.769Z" fill="white"/>
<path d="M90.5376 28.9216C88.3122 28.9216 86.8516 27.3507 86.8516 25.2906C86.8516 23.3064 88.3742 21.639 90.5169 21.639C91.7571 21.639 92.515 21.9835 93.2522 22.5967L92.4599 23.5337C91.9087 23.0721 91.3713 22.7758 90.4687 22.7758C89.1596 22.7758 88.1606 23.9058 88.1606 25.27C88.1606 26.7306 89.1252 27.7985 90.579 27.7985C91.2473 27.7985 91.8605 27.5849 92.2945 27.2611V25.9452H90.4756V24.8703H93.5002V27.833C92.7975 28.4186 91.7916 28.9216 90.5376 28.9216Z" fill="white"/>
<path d="M98.1725 28.7975H96.9117V26.0209L94.0938 21.7561H95.5613L97.5524 24.8772L99.5643 21.7561H100.997L98.1725 25.9934V28.7975Z" fill="white"/>
<path d="M4.51172 11.6212C4.51172 11.6212 12.6761 7.16353 24.2993 9.90567C24.2993 9.90567 26.6073 -1.28338 17.8917 0.122137C17.8986 0.122137 10.3405 1.52766 4.51172 11.6212Z" fill="white"/>
<path d="M5.1533 21.7562C5.1533 21.7562 1.61882 21.1912 0.633579 19.455C-0.372334 17.6636 1.21921 15.8378 2.92789 14.7423C7.57851 11.7659 12.6632 11.4697 14.2478 11.2905C14.2478 11.2836 3.39639 15.6449 5.1533 21.7562Z" fill="white"/>
<path d="M0.366618 22.4451C0.366618 22.4451 11.7555 28.9009 23.7782 12.1931C23.7782 12.1931 18.7349 31.4501 6.98084 32.5387C6.98084 32.5387 -1.88635 33.0072 0.366618 22.4451Z" fill="white"/>
</svg>
