<svg width="148" height="43" viewBox="0 0 148 43" fill="none" xmlns="http://www.w3.org/2000/svg">
<path d="M59.3703 0C59.3476 0.0689206 59.4011 0.120973 59.4252 0.169651C60.8976 3.11058 62.3826 6.04525 63.8492 8.9886C65.0666 11.4326 66.2903 13.8733 67.5116 16.3154C68.7329 18.7575 69.9532 21.2001 71.175 23.6417C72.3004 25.8905 73.4238 28.1403 74.5487 30.3892C75.6736 32.638 76.7971 34.8878 77.922 37.1366C78.804 38.8997 79.6782 40.6665 80.566 42.4271C80.5752 42.4454 80.5723 42.4695 80.5766 42.5004C75.1984 42.5004 69.8269 42.5004 64.4511 42.5004C60.0605 33.719 55.6654 24.929 51.2646 16.1279C51.3649 15.9178 51.4632 15.7009 51.5697 15.4888C53.125 12.3898 54.6846 9.29319 56.2366 6.19225C57.255 4.15692 58.2623 2.11533 59.2739 0.076632C59.2874 0.0491601 59.3293 0.0400029 59.3221 0C59.338 0 59.3539 0 59.3703 0Z" fill="#EFB500"/>
<path d="M0 2.94001C0.0877171 2.94001 0.167241 2.94001 0.246283 2.94001C8.52784 2.94001 16.8089 2.94049 25.0905 2.93616C25.2649 2.93616 25.4245 3.00845 25.6009 2.99207C25.7758 2.9752 25.9609 2.95833 26.1286 2.9964C26.3175 3.0393 26.5021 3.03592 26.6887 3.03303C26.7711 3.03159 26.8222 3.1087 26.9108 3.08894C26.9745 3.07448 27.0434 3.10629 27.1094 3.12268C27.2174 3.15015 27.3369 3.16943 27.4487 3.17425C27.6511 3.18244 27.8338 3.26437 28.0295 3.29377C28.1909 3.31787 28.3481 3.37474 28.5052 3.42294C28.8464 3.52849 29.1963 3.59355 29.5269 3.74923C29.8339 3.89333 30.1506 4.02636 30.4672 4.15456C30.6914 4.24517 30.9256 4.34204 31.1174 4.50157C31.1507 4.52904 31.1868 4.52952 31.2201 4.54832C31.4557 4.6799 31.6982 4.79894 31.9179 4.95799C31.971 4.99655 32.0365 5.02064 32.0987 5.04378C32.2746 5.10932 32.4047 5.2409 32.5498 5.35127C32.7392 5.49538 32.9281 5.63997 33.1175 5.78359C33.2226 5.86311 33.3127 5.95806 33.4207 6.0371C33.841 6.34363 34.1822 6.73836 34.5393 7.11236C34.6796 7.25888 34.8194 7.41021 34.9538 7.56444C35.2975 7.9582 35.6165 8.37076 35.899 8.81128C36.07 9.07828 36.2513 9.33902 36.419 9.60844C36.5766 9.86147 36.7101 10.127 36.8176 10.4071C36.8759 10.5589 36.9361 10.7141 37.0132 10.8553C37.1106 11.0341 37.1762 11.2235 37.2446 11.4105C37.3901 11.8086 37.5058 12.2178 37.6509 12.6159C37.7256 12.8212 37.7608 13.0352 37.8249 13.2424C37.8538 13.3359 37.8398 13.4531 37.8923 13.5258C37.9584 13.6179 37.8933 13.7191 37.9613 13.815C38.0133 13.8887 37.996 14.0223 38.0095 14.1268C38.036 14.3346 38.0928 14.5413 38.0702 14.7563C38.0528 14.9192 38.1362 15.0739 38.1194 15.2426C38.1034 15.4016 38.0842 15.5718 38.1227 15.7221C38.1921 15.9901 38.1439 16.2571 38.1647 16.5232C38.1743 16.6489 38.0953 16.7588 38.1126 16.8894C38.129 17.0157 38.1415 17.1531 38.1092 17.2726C38.0736 17.4047 38.0774 17.5333 38.0659 17.664C38.0543 17.7941 38.0316 17.9247 38.0114 18.0524C37.9844 18.224 37.9439 18.3956 37.9271 18.5686C37.9107 18.7368 37.8162 18.8867 37.8268 19.0583C37.7078 19.239 37.7145 19.4593 37.6393 19.6549C37.5646 19.8487 37.5092 20.054 37.462 20.255C37.3786 20.6083 37.2094 20.9225 37.0788 21.2541C36.9482 21.5862 36.8041 21.912 36.6373 22.2281C36.445 22.5935 36.2397 22.9511 36.0064 23.2918C35.7924 23.6046 35.5799 23.9179 35.3717 24.2345C35.3563 24.2582 35.3471 24.2905 35.324 24.3102C35.1061 24.4967 34.9586 24.7474 34.7456 24.9392C34.4921 25.1681 34.3003 25.4549 34.0482 25.6872C33.8506 25.8689 33.6511 26.0515 33.4472 26.2236C33.1561 26.4694 32.8361 26.6839 32.5358 26.9186C32.1989 27.1817 31.8317 27.3851 31.4649 27.5958C30.9796 27.8743 30.4682 28.1004 29.9752 28.3621C29.8132 28.4479 29.6383 28.483 29.4662 28.5288C29.3361 28.5635 29.2194 28.6527 29.0763 28.6276C29.045 28.6845 29.0522 28.725 29.084 28.7819C29.23 29.0431 29.379 29.3029 29.5231 29.5646C29.6561 29.806 29.7944 30.0451 29.9226 30.2894C30.0407 30.5145 30.1602 30.7386 30.2908 30.9574C30.3935 31.1295 30.4865 31.3098 30.5839 31.4857C30.7289 31.7474 30.8784 32.0072 31.0205 32.2693C31.1227 32.4578 31.223 32.6515 31.3271 32.839C31.461 33.081 31.5786 33.334 31.7425 33.56C31.7979 33.6367 31.8163 33.7393 31.8659 33.8213C32.0948 34.1991 32.2944 34.5934 32.5175 34.9746C32.6293 35.1654 32.7329 35.3664 32.839 35.5626C32.9672 35.7992 33.1016 36.0339 33.2366 36.2672C33.3556 36.473 33.4679 36.6846 33.5846 36.8928C33.7267 37.1473 33.8593 37.4066 34.0039 37.6601C34.1253 37.8726 34.2391 38.0919 34.3591 38.3069C34.4796 38.5223 34.5924 38.7416 34.721 38.9537C34.829 39.1315 34.9259 39.318 35.0271 39.5012C35.1683 39.7561 35.3139 40.0092 35.4517 40.2656C35.5678 40.482 35.6927 40.6945 35.8045 40.9133C35.9337 41.1664 36.0869 41.4078 36.218 41.6589C36.352 41.9163 36.5245 42.1544 36.6229 42.4301C36.6301 42.4508 36.6527 42.4662 36.6672 42.4836C36.4614 42.5212 22.7915 42.5366 21.9857 42.5C21.9553 42.4657 21.9351 42.4272 21.9134 42.3857C21.7148 42.0011 21.497 41.6266 21.2892 41.2468C21.135 40.9654 20.9813 40.6815 20.8135 40.4068C20.6304 40.1065 20.4641 39.7952 20.2925 39.4887C20.1884 39.3026 20.0896 39.1069 19.9855 38.9195C19.8515 38.6775 19.7161 38.4346 19.5739 38.196C19.4525 37.9926 19.3411 37.7796 19.2264 37.57C19.104 37.3468 18.9787 37.1256 18.8573 36.9029C18.7392 36.687 18.6148 36.4745 18.5001 36.2566C18.4028 36.0711 18.2982 35.8898 18.1878 35.711C18.0905 35.5525 18.0109 35.3828 17.9208 35.2194C17.7945 34.9905 17.6683 34.7616 17.5376 34.5346C17.3434 34.1977 17.1873 33.8386 16.9588 33.521C16.9029 33.3075 16.7651 33.134 16.6614 32.946C16.5274 32.7041 16.3959 32.4592 16.2494 32.2231C16.1481 32.0602 16.071 31.8794 15.9698 31.7136C15.8291 31.4833 15.7043 31.2437 15.5717 31.0095C15.4666 30.8239 15.3683 30.6283 15.2642 30.4403C15.1302 30.1983 15.0126 29.9453 14.8488 29.7193C14.7909 29.6393 14.7611 29.539 14.7013 29.4108C14.7013 33.7957 14.7013 38.1387 14.7013 42.4802C14.4844 42.5207 0.84488 42.5371 0.000481962 42.499C0 29.3221 0 16.1434 0 2.94001ZM14.7003 13.2058C14.7003 15.164 14.7003 17.0972 14.7003 19.0375C14.7399 19.0375 14.7707 19.0375 14.8015 19.0375C16.8089 19.0375 18.8168 19.0366 20.8241 19.039C20.9576 19.039 21.0781 18.9932 21.2015 18.96C21.5553 18.8645 21.8801 18.6978 22.2059 18.5353C22.2604 18.5084 22.3115 18.4794 22.3582 18.4351C22.5737 18.2283 22.7674 18.0037 22.9347 17.757C23.0908 17.5271 23.2286 17.2924 23.2768 17.0061C23.3144 16.7844 23.4205 16.5747 23.4152 16.3424C23.4904 16.2369 23.4894 16.1053 23.4557 16.0036C23.4065 15.8566 23.4147 15.7043 23.3703 15.5583C23.2879 15.2874 23.2465 15.003 23.0788 14.763C23.0272 14.6893 22.965 14.6155 22.9395 14.5322C22.8874 14.363 22.7689 14.2401 22.658 14.1211C22.5028 13.9538 22.3226 13.8063 22.111 13.7051C22.0777 13.6892 22.0411 13.6887 22.0083 13.6589C21.8907 13.5509 21.7408 13.494 21.5953 13.4381C21.4497 13.3822 21.3157 13.2781 21.1456 13.3027C21.0246 13.215 20.8743 13.2964 20.7591 13.2473C20.6251 13.1904 20.4964 13.2082 20.3663 13.2082C18.5594 13.2053 16.7525 13.2063 14.9461 13.2063C14.8666 13.2058 14.7876 13.2058 14.7003 13.2058Z" fill="#EFB500"/>
<path d="M133.311 29.3562C130.854 29.3562 128.423 29.3562 125.983 29.3562C125.983 33.7367 125.983 38.112 125.983 42.4983C121.095 42.4983 116.216 42.4983 111.331 42.4983C111.331 29.3167 111.331 16.1374 111.331 2.949C116.204 2.949 121.078 2.949 125.962 2.949C125.957 2.94514 125.964 2.94948 125.968 2.95575C125.973 2.96153 125.977 2.96924 125.977 2.97599C125.977 7.34449 125.977 11.713 125.977 16.0897C128.418 16.0897 130.849 16.0897 133.297 16.0897C133.297 11.7149 133.297 7.33389 133.297 2.94611C138.188 2.94611 143.062 2.94611 147.945 2.94611C147.945 16.1287 147.945 29.3138 147.945 42.5036C143.067 42.5036 138.194 42.5036 133.311 42.5036C133.311 38.1265 133.311 33.7512 133.311 29.3562Z" fill="#EFB500"/>
<path d="M73.2588 2.94371C84.9835 2.94371 96.7 2.94371 108.425 2.94371C108.425 7.83563 108.425 12.7247 108.425 17.6233C108.429 17.6195 108.424 17.6262 108.418 17.631C108.412 17.6354 108.404 17.6392 108.398 17.6392C104.993 17.6397 101.589 17.6397 98.1762 17.6397C98.1762 25.9261 98.1762 34.2047 98.1762 42.4815C97.955 42.5229 84.4191 42.5393 83.4764 42.5008C83.4764 34.2226 83.4764 25.9439 83.4764 17.6749C83.4629 17.6599 83.4586 17.6527 83.4523 17.6484C83.4465 17.644 83.4388 17.6402 83.432 17.6402C80.0438 17.6397 76.6552 17.6397 73.2588 17.6397C73.2588 12.743 73.2588 7.85346 73.2588 2.94371Z" fill="#EFB500"/>
<path d="M38.0947 42.5009C41.5191 35.6522 44.9347 28.8209 48.3509 21.9881C48.4025 22.0045 48.4106 22.0527 48.4343 22.0999C49.2329 23.6972 50.0373 25.2915 50.8378 26.8878C51.7015 28.6103 52.5623 30.3338 53.4231 32.0578C54.4737 34.1606 55.523 36.2643 56.5736 38.3671C57.2551 39.7316 57.9376 41.095 58.6201 42.4595C58.6258 42.471 58.6331 42.4816 58.6446 42.5014C51.7998 42.5009 44.9612 42.5009 38.0947 42.5009Z" fill="#EFB500"/>
</svg>
