<svg width="163" height="48" viewBox="0 0 163 48" fill="none" xmlns="http://www.w3.org/2000/svg">
<path d="M65.4119 0.774902C65.387 0.850837 65.4459 0.908185 65.4725 0.961817C67.0947 4.20203 68.7307 7.43534 70.3466 10.6782C71.6879 13.371 73.0362 16.06 74.3817 18.7506C75.7273 21.4412 77.0718 24.1324 78.4179 26.8225C79.6578 29.3001 80.8956 31.7789 82.135 34.2566C83.3744 36.7343 84.6121 39.213 85.8515 41.6907C86.8233 43.6331 87.7865 45.5798 88.7646 47.5196C88.7747 47.5397 88.7715 47.5663 88.7763 47.6003C82.8508 47.6003 76.9327 47.6003 71.0098 47.6003C66.1723 37.9253 61.3301 28.2408 56.4814 18.544C56.5919 18.3125 56.7002 18.0736 56.8176 17.8399C58.5311 14.4255 60.2495 11.0138 61.9593 7.5973C63.0813 5.35485 64.1912 3.1055 65.3057 0.859333C65.3206 0.829065 65.3668 0.818976 65.3588 0.774902C65.3764 0.774902 65.3939 0.774902 65.4119 0.774902Z" fill="white"/>
<path d="M0 4.01377C0.0966435 4.01377 0.18426 4.01377 0.271345 4.01377C9.39566 4.01377 18.5194 4.0143 27.6438 4.00952C27.836 4.00952 28.0118 4.08917 28.2061 4.07112C28.3989 4.05253 28.6028 4.03395 28.7876 4.0759C28.9957 4.12316 29.1991 4.11944 29.4046 4.11625C29.4954 4.11466 29.5517 4.19962 29.6494 4.17785C29.7195 4.16192 29.7954 4.19697 29.8682 4.21502C29.9871 4.24529 30.1188 4.26653 30.242 4.27184C30.465 4.28087 30.6663 4.37114 30.8819 4.40353C31.0597 4.43008 31.2328 4.49274 31.406 4.54584C31.7819 4.66213 32.1674 4.73382 32.5317 4.90533C32.8699 5.0641 33.2188 5.21066 33.5677 5.35191C33.8146 5.45174 34.0727 5.55847 34.284 5.73424C34.3207 5.7645 34.3605 5.76504 34.3971 5.78574C34.6568 5.93071 34.9239 6.06187 35.166 6.2371C35.2244 6.27958 35.2967 6.30613 35.3652 6.33162C35.559 6.40384 35.7023 6.5488 35.8622 6.6704C36.0709 6.82918 36.279 6.98848 36.4877 7.14672C36.6035 7.23434 36.7028 7.33894 36.8217 7.42603C37.2848 7.76375 37.6607 8.19865 38.0542 8.61071C38.2087 8.77214 38.3627 8.93887 38.5108 9.10879C38.8895 9.54263 39.241 9.99717 39.5522 10.4825C39.7407 10.7767 39.9403 11.064 40.1251 11.3608C40.2988 11.6396 40.4458 11.9322 40.5643 12.2407C40.6285 12.4079 40.6949 12.5789 40.7798 12.7345C40.8871 12.9315 40.9593 13.1402 41.0347 13.3462C41.1951 13.7849 41.3225 14.2357 41.4824 14.6743C41.5647 14.9005 41.6034 15.1363 41.6741 15.3646C41.7059 15.4676 41.6905 15.5967 41.7484 15.6768C41.8212 15.7783 41.7495 15.8898 41.8243 15.9954C41.8817 16.0767 41.8626 16.2238 41.8774 16.339C41.9067 16.5679 41.9693 16.7957 41.9444 17.0325C41.9252 17.212 42.0171 17.3824 41.9985 17.5683C41.981 17.7435 41.9597 17.931 42.0022 18.0966C42.0787 18.3919 42.0256 18.6861 42.0484 18.9792C42.059 19.1178 41.972 19.2388 41.9911 19.3827C42.0091 19.5219 42.0229 19.6732 41.9874 19.8049C41.9481 19.9504 41.9523 20.0922 41.9396 20.2361C41.9268 20.3794 41.9019 20.5233 41.8796 20.6641C41.8498 20.8531 41.8052 21.0421 41.7866 21.2328C41.7686 21.4181 41.6645 21.5832 41.6762 21.7723C41.545 21.9714 41.5525 22.2141 41.4696 22.4297C41.3873 22.6431 41.3263 22.8693 41.2742 23.0908C41.1824 23.48 40.996 23.8262 40.8521 24.1916C40.7082 24.5574 40.5494 24.9164 40.3657 25.2647C40.1538 25.6672 39.9276 26.0612 39.6706 26.4367C39.4348 26.7813 39.2006 27.1264 38.9712 27.4753C38.9542 27.5013 38.9442 27.5369 38.9187 27.5587C38.6786 27.7642 38.5162 28.0403 38.2815 28.2516C38.0021 28.5039 37.7908 28.8198 37.5131 29.0758C37.2954 29.276 37.0755 29.4772 36.8509 29.6668C36.5302 29.9376 36.1776 30.1739 35.8468 30.4325C35.4756 30.7224 35.071 30.9465 34.6669 31.1786C34.1322 31.4855 33.5688 31.7345 33.0255 32.0229C32.8471 32.1174 32.6544 32.1561 32.4648 32.2066C32.3214 32.2448 32.1929 32.3431 32.0352 32.3155C32.0007 32.3781 32.0087 32.4227 32.0437 32.4854C32.2046 32.7732 32.3687 33.0594 32.5274 33.3477C32.674 33.6138 32.8264 33.8771 32.9677 34.1464C33.0977 34.3944 33.2294 34.6413 33.3733 34.8823C33.4865 35.0719 33.5889 35.2705 33.6962 35.4643C33.856 35.7527 34.0206 36.0389 34.1773 36.3278C34.2899 36.5354 34.4003 36.7488 34.515 36.9554C34.6626 37.222 34.7922 37.5007 34.9727 37.7498C35.0338 37.8342 35.054 37.9473 35.1087 38.0376C35.3609 38.4539 35.5807 38.8883 35.8266 39.3083C35.9498 39.5186 36.064 39.74 36.1808 39.9561C36.322 40.2169 36.4702 40.4755 36.6189 40.7325C36.75 40.9592 36.8738 41.1923 37.0023 41.4217C37.1589 41.7021 37.3049 41.9878 37.4642 42.2671C37.598 42.5013 37.7234 42.7429 37.8556 42.9797C37.9883 43.2171 38.1126 43.4587 38.2544 43.6923C38.3733 43.8882 38.4801 44.0938 38.5916 44.2955C38.7472 44.5764 38.9075 44.8552 39.0594 45.1377C39.1874 45.3761 39.3249 45.6103 39.4481 45.8514C39.5904 46.1302 39.7593 46.3962 39.9037 46.6729C40.0513 46.9564 40.2414 47.2187 40.3497 47.5225C40.3577 47.5453 40.3827 47.5623 40.3986 47.5814C40.1718 47.6228 25.1109 47.6398 24.223 47.5995C24.1896 47.5618 24.1673 47.5193 24.1434 47.4736C23.9246 47.0499 23.6846 46.6373 23.4557 46.2188C23.2858 45.9087 23.1164 45.596 22.9316 45.2933C22.7298 44.9625 22.5466 44.6194 22.3576 44.2817C22.2429 44.0768 22.134 43.8612 22.0193 43.6546C21.8717 43.388 21.7225 43.1204 21.5658 42.8576C21.432 42.6335 21.3094 42.3988 21.183 42.1678C21.0481 41.9219 20.91 41.6782 20.7762 41.4329C20.6461 41.195 20.5091 40.9608 20.3828 40.7208C20.2755 40.5163 20.1603 40.3167 20.0387 40.1197C19.9314 39.945 19.8438 39.7581 19.7445 39.5781C19.6054 39.3258 19.4662 39.0736 19.3223 38.8235C19.1083 38.4523 18.9363 38.0567 18.6846 37.7068C18.623 37.4715 18.4711 37.2804 18.357 37.0733C18.2093 36.8067 18.0644 36.537 17.9029 36.2768C17.7914 36.0973 17.7065 35.8982 17.595 35.7155C17.4399 35.4617 17.3024 35.1978 17.1563 34.9397C17.0406 34.7353 16.9323 34.5197 16.8176 34.3126C16.6699 34.046 16.5404 33.7672 16.3598 33.5182C16.2961 33.43 16.2632 33.3196 16.1973 33.1783C16.1973 38.0095 16.1973 42.7944 16.1973 47.5777C15.9584 47.6223 0.930858 47.6404 0.000531008 47.5984C0 33.0806 0 18.5607 0 4.01377ZM16.1963 15.3242C16.1963 17.4817 16.1963 19.6116 16.1963 21.7494C16.2398 21.7494 16.2738 21.7494 16.3078 21.7494C18.5194 21.7494 20.7316 21.7484 22.9433 21.751C23.0904 21.751 23.2231 21.7006 23.3591 21.664C23.7488 21.5588 24.1067 21.3751 24.4657 21.1961C24.5257 21.1664 24.582 21.1345 24.6335 21.0857C24.8708 20.8579 25.0843 20.6104 25.2686 20.3386C25.4406 20.0853 25.5925 19.8267 25.6456 19.5112C25.687 19.267 25.8038 19.036 25.798 18.78C25.8808 18.6638 25.8798 18.5188 25.8426 18.4068C25.7884 18.2448 25.7974 18.077 25.7486 17.9161C25.6578 17.6177 25.6121 17.3044 25.4273 17.0399C25.3705 16.9587 25.302 16.8774 25.2739 16.7856C25.2165 16.5992 25.0859 16.4638 24.9638 16.3326C24.7928 16.1484 24.5942 15.9859 24.3611 15.8744C24.3244 15.8568 24.2841 15.8563 24.248 15.8234C24.1184 15.7044 23.9533 15.6418 23.7929 15.5802C23.6325 15.5186 23.4849 15.4039 23.2975 15.431C23.1642 15.3343 22.9985 15.4241 22.8716 15.3699C22.724 15.3073 22.5822 15.3269 22.4388 15.3269C20.4481 15.3237 18.4573 15.3248 16.4671 15.3248C16.3795 15.3242 16.2924 15.3242 16.1963 15.3242Z" fill="white"/>
<path d="M146.877 33.1184C144.17 33.1184 141.491 33.1184 138.803 33.1184C138.803 37.9448 138.803 42.7653 138.803 47.598C133.418 47.598 128.042 47.598 122.66 47.598C122.66 33.0749 122.66 18.5545 122.66 4.02394C128.029 4.02394 133.399 4.02394 138.779 4.02394C138.775 4.01969 138.782 4.02447 138.787 4.03137C138.792 4.03774 138.796 4.04624 138.796 4.05367C138.797 8.86673 138.797 13.6798 138.797 18.5019C141.485 18.5019 144.164 18.5019 146.862 18.5019C146.862 13.6819 146.862 8.85505 146.862 4.02075C152.25 4.02075 157.62 4.02075 163 4.02075C163 18.5449 163 33.0717 163 47.6038C157.625 47.6038 152.256 47.6038 146.877 47.6038C146.877 42.7812 146.877 37.9607 146.877 33.1184Z" fill="white"/>
<path d="M80.7139 4.01782C93.6317 4.01782 106.541 4.01782 119.459 4.01782C119.459 9.40756 119.459 14.7941 119.459 20.1913C119.463 20.187 119.458 20.1945 119.451 20.1998C119.445 20.2045 119.436 20.2088 119.429 20.2088C115.678 20.2093 111.927 20.2093 108.167 20.2093C108.167 29.339 108.167 38.4601 108.167 47.5791C107.923 47.6248 93.0099 47.6428 91.9712 47.6003C91.9712 38.4797 91.9712 29.3586 91.9712 20.2481C91.9564 20.2316 91.9516 20.2237 91.9447 20.2189C91.9383 20.2141 91.9298 20.2099 91.9224 20.2099C88.1894 20.2093 84.4559 20.2093 80.7139 20.2093C80.7139 14.8143 80.7139 9.4272 80.7139 4.01782Z" fill="white"/>
<path d="M41.9717 47.6005C45.7445 40.0549 49.5077 32.5284 53.2715 25.0002C53.3284 25.0183 53.3374 25.0714 53.3634 25.1234C54.2433 26.8832 55.1295 28.6398 56.0115 30.3985C56.9631 32.2963 57.9115 34.1952 58.8599 36.0946C60.0175 38.4114 61.1735 40.7292 62.3311 43.046C63.0819 44.5493 63.8338 46.0515 64.5857 47.5548C64.5921 47.5676 64.6001 47.5793 64.6128 47.601C57.0714 47.6005 49.537 47.6005 41.9717 47.6005Z" fill="white"/>
</svg>
