<svg width="130" height="75" viewBox="0 0 130 75" fill="none" xmlns="http://www.w3.org/2000/svg">
<path d="M55.1532 0C55.5081 0 55.8683 0 56.2232 0C62.2127 3.53945 68.2076 7.07354 74.2402 10.6398C80.1867 6.84796 86.4666 3.9745 92.1013 0C92.6389 0 93.1712 0 93.7089 0C93.9992 0.977512 94.9831 1.11179 95.6928 1.53609C100.779 4.5653 105.898 7.54081 111.005 10.5324C109.753 11.8 107.839 12.1706 106.554 13.8517C106.554 18.7929 106.554 23.9383 106.554 29.1642C102.021 31.8175 97.5854 34.4117 93.2088 36.9682C93.0906 38.7621 92.8755 40.3143 93.4239 42.178C99.5694 38.6816 105.505 35.3086 111.436 31.9303C117.473 35.5342 123.775 38.6977 129.619 42.6346C128.194 43.5047 126.77 44.3801 125.221 45.3254C125.221 50.5997 125.221 55.8041 125.221 61.1053C120.592 63.7961 116.076 66.4225 111.419 69.1295C111.419 70.9448 111.419 72.7065 111.419 74.4628C110.473 74.4306 109.823 73.7592 109.075 73.3349C103.596 70.2412 98.1392 67.1046 92.6766 63.9841C92.6766 57.0341 92.6766 50.0841 92.6766 42.8387C90.8216 43.4832 89.6603 44.3962 88.1978 45.3523C88.1978 50.4869 88.1978 55.686 88.1978 60.9871C83.4826 63.7639 78.9232 66.4493 74.466 69.0811C74.466 71.0845 74.466 72.7656 74.466 74.4413C73.6595 74.6508 73.181 74.0116 72.6057 73.684C66.9441 70.4561 61.2987 67.2066 55.6479 63.9626C55.6479 57.0932 55.6479 50.2237 55.6479 43.1448C53.4757 43.4617 52.2929 44.4983 50.8519 45.653C50.8519 50.7501 50.8519 55.9599 50.8519 61.1751C46.2872 63.823 41.916 66.358 37.6362 68.8394C37.2599 70.8213 37.4104 72.5883 37.4964 74.3554C37.3459 74.4145 37.1416 74.5702 37.0502 74.5219C30.8778 71.02 24.7163 67.5021 18.5224 63.968C18.5224 56.7763 18.5224 49.7779 18.5224 42.6507C12.3071 39.0844 6.15621 35.5396 0 31.9947C0 24.7064 0 17.418 0 10.135C0.360233 10.3498 0.672076 10.1833 0.978542 10.0061C6.72076 6.67072 12.463 3.33536 18.2052 0C18.56 0 18.9203 0 19.2751 0C24.9313 3.9369 31.1682 6.8963 37.1685 10.6237C43.1688 7.07891 49.1583 3.53945 55.1532 0ZM73.9982 44.1921C73.7993 42.1619 74.423 40.0458 73.4982 37.8813C69.0195 40.4325 64.6214 42.6937 60.7879 45.3039C60.7879 50.6534 60.7879 55.6161 60.7879 60.8421C63.7612 59.2523 66.4118 57.8344 69.0571 56.4164C69.2184 56.7279 69.4066 57.0287 69.541 57.3563C70.4335 59.5262 71.9551 60.8475 74.4069 60.6917C76.993 60.5306 78.3264 58.8548 78.977 56.5614C79.6867 54.0586 79.6974 51.4966 79.1813 48.9616C78.563 45.927 77.1866 44.7239 73.9982 44.1921ZM18.2912 12.2887C18.1514 10.2317 18.5977 8.12624 17.8987 5.80599C13.3662 8.42702 9.08646 10.903 5.08627 13.2179C5.08627 18.6372 5.08627 23.6161 5.08627 28.987C8.22621 27.1662 10.9844 25.5711 13.7426 23.9759C14.1082 25.4153 13.5222 26.9568 14.1136 28.4177C15.3233 28.5251 16.4524 28.8205 17.7804 28.0363C17.7804 26.2693 17.7804 24.3948 17.7804 21.9887C20.001 24.035 18.9848 26.6829 20.372 28.4499C21.4903 28.4499 22.6248 28.4499 23.9635 28.4499C23.1087 25.8504 23.3829 23.0951 21.4419 20.9359C22.6409 20.0659 23.356 18.9863 23.5173 17.5845C23.8721 14.523 22.5065 13.1373 18.2912 12.2887ZM111.07 48.0592C111.667 44.7507 111.263 41.453 111.312 37.5161C106.333 40.2875 101.833 42.6346 97.7575 45.3469C97.7575 50.6051 97.7575 55.5839 97.7575 60.9173C100.731 59.306 103.36 57.8881 105.989 56.4648C106.36 57.7216 105.731 59.1126 106.414 60.3426C107.43 60.4607 108.387 60.7078 109.495 60.0203C109.495 57.6571 109.495 55.2133 109.495 52.2002C110.962 55.2939 111.575 58.0975 113.081 60.45C114.183 60.407 115.167 60.7024 116.081 60.2191C116.081 54.9985 116.081 49.8209 116.081 44.6218C114.952 44.4876 114 44.219 112.962 44.9441C112.962 47.2751 112.962 49.6813 112.962 52.0874C112.833 52.1143 112.71 52.1411 112.581 52.168C112.07 50.7984 111.57 49.4288 111.07 48.0592ZM34.2597 55.2885C34.7167 56.8837 35.1684 58.4789 35.6093 60.0257C36.5555 60.1922 37.3298 60.2996 38.2599 59.9022C38.7761 57.7323 39.3137 55.4765 39.846 53.2207C40.5719 55.5947 40.2224 58.076 40.9321 60.3748C41.9483 60.4607 42.8247 60.6058 43.9484 60.1761C43.6365 55.0576 43.3193 49.88 43.0021 44.6702C41.545 44.3962 40.3568 44.3479 39.0772 44.6916C38.4696 47.6403 37.8782 50.503 37.2868 53.3657C37.1631 53.3389 37.0394 53.3174 36.9158 53.2905C36.9158 53.0488 36.9158 52.8071 36.9158 52.5655C36.9158 47.7531 36.9158 42.9407 36.9158 37.6127C32.1145 40.2821 27.7648 42.5701 23.8022 45.2126C23.8022 50.4815 23.8022 55.5141 23.8022 60.7615C26.0658 59.5745 28.0175 58.5487 29.9692 57.5228C30.3026 58.4252 29.6143 59.4456 30.3456 60.4715C31.2112 60.2674 32.2005 60.8582 33.1091 59.9881C33.222 57.5873 33.335 55.1435 33.4747 52.1626C33.8027 52.8931 33.8995 53.1133 33.9963 53.3335C33.7436 54.0425 33.3457 54.7568 34.2597 55.2885ZM92.6389 12.2887C92.6389 10.2209 92.6389 8.15847 92.6389 5.53745C87.7677 8.32497 83.4933 10.7687 79.4555 13.0783C79.4555 18.4761 79.4555 23.5194 79.4555 28.7399C82.9503 27.2683 85.6278 24.9642 88.8968 23.7933C89.3431 25.3025 88.6334 26.9514 89.3646 28.4445C90.5044 28.552 91.5475 28.7131 92.7841 28.2565C92.7841 26.3875 92.7841 24.4754 92.7841 22.7137C93.9347 21.9081 95.1229 22.6332 96.1122 21.9887C96.3434 21.081 96.5262 20.1572 95.9885 19.3408C94.9831 18.9165 93.9454 19.4589 92.9723 18.8574C92.7518 17.8853 92.612 16.8809 93.1121 15.8443C94.2089 15.7745 95.2466 15.7046 96.2896 15.6348C96.5423 14.464 96.752 13.4596 96.1445 12.5197C94.9347 12.4391 93.7841 12.3639 92.6389 12.2887ZM55.6317 12.2887C55.578 10.2209 55.9006 8.13161 55.3145 5.63949C50.6584 8.31423 46.3141 10.8063 41.873 13.3629C41.8461 18.5459 41.6042 23.5946 42.0451 29.0676C45.5936 27.0373 48.7228 25.2488 51.852 23.4549C52.2176 25.0716 51.6154 26.7742 52.2337 28.423C54.6747 28.423 57.0297 28.423 59.4007 28.423C59.6965 27.2737 59.8524 26.2586 59.2771 25.3133C58.1157 25.0501 56.9329 25.5389 55.8145 24.9588C55.7178 23.9007 55.4919 22.8641 55.9651 21.9188C57.0243 21.5053 58.1641 22.1498 59.1319 21.4569C59.3362 20.5761 59.4276 19.7275 58.9975 18.7392C58.0082 18.6855 56.9813 18.6318 55.793 18.5674C55.7715 17.5898 55.5296 16.752 55.9328 15.9302C57.0082 15.3716 58.2717 16.1558 59.304 15.3663C59.3954 14.421 59.6534 13.4703 59.0674 12.525C57.906 12.4552 56.7662 12.3747 55.6317 12.2887ZM32.5392 13.3199C32.5392 18.6372 32.5392 23.7718 32.5392 29.0729C27.9046 31.7638 23.3183 34.4331 18.8289 37.0434C18.759 38.8803 18.5278 40.4217 19.0708 42.2855C25.2002 38.7514 31.0284 35.3945 36.8298 32.0538C36.8298 24.9427 36.8298 18.0625 36.8298 10.9943C35.1415 11.3971 34.0447 12.4391 32.5392 13.3199ZM56.0404 42.3123C62.2772 38.7299 68.2829 35.5396 73.6918 32.0377C73.6918 24.8514 73.6918 18.1216 73.6918 11.0104C72.0734 11.8644 70.7346 12.3048 69.5464 13.4972C69.5464 18.5996 69.5464 23.8094 69.5464 29.089C64.8419 31.8336 60.261 34.5083 55.7877 37.124C55.7393 38.9071 55.5242 40.3895 56.0404 42.3123Z" fill="#EFB500"/>
<path d="M51.834 23.5474C48.6987 25.3373 45.5635 27.1326 42.008 29.1643C41.5663 23.6872 41.8087 18.6347 41.8356 13.4478C46.2853 10.8946 50.638 8.39525 55.3032 5.71849C55.885 8.20712 55.5672 10.3034 55.6211 12.3728C54.4575 12.7759 53.1269 12.0556 51.834 12.9909C51.834 16.4524 51.834 19.9999 51.834 23.5474Z" fill="#EFB500"/>
<path d="M129.547 42.6981C130.274 43.3427 129.908 44.1915 129.913 44.9381C129.946 51.2177 129.935 57.4973 129.935 64.0938C123.795 67.5371 117.557 71.0341 111.32 74.5311C111.32 72.7691 111.32 71.0126 111.32 69.1969C115.979 66.4896 120.504 63.8682 125.146 61.1715C125.146 55.8696 125.146 50.6644 125.146 45.3894C126.692 44.4439 128.12 43.5683 129.547 42.6981Z" fill="#EFB500"/>
<path d="M55.6605 63.9889C49.5972 67.4376 43.5338 70.8863 37.4651 74.3404C37.3789 72.5813 37.228 70.8222 37.6052 68.8492C41.89 66.379 46.2772 63.8552 50.853 61.2192C50.853 56.0275 50.853 50.841 50.853 45.7669C52.2974 44.6173 53.4831 43.5854 55.6605 43.2699C55.6605 50.3117 55.6605 57.1503 55.6605 63.9889Z" fill="#EFB500"/>
<path d="M111.015 10.4838C111.802 11.2141 111.414 12.154 111.419 12.9917C111.457 19.2858 111.446 25.5853 111.446 31.8794C105.492 35.252 99.5435 38.63 93.3792 42.1261C92.829 40.2626 93.0448 38.7105 93.1634 36.9168C97.5481 34.3605 101.997 31.7666 106.549 29.1136C106.549 23.8829 106.549 18.7434 106.549 13.8027C107.833 12.1217 109.758 11.7458 111.015 10.4838Z" fill="#EFB500"/>
<path d="M88.9065 23.8252C85.6398 24.9988 82.9685 27.3081 79.4873 28.7831C79.4873 23.5561 79.4873 18.5013 79.4873 13.0858C83.5157 10.7711 87.7801 8.32175 92.6398 5.52789C92.6398 8.15487 92.6398 10.222 92.6398 12.2945C91.5456 12.6498 90.3441 12.0953 88.9119 12.8382C88.9065 16.4019 88.9065 20.1162 88.9065 23.8252Z" fill="#EFB500"/>
<path d="M92.639 64.0553C86.5393 67.5454 80.4396 71.0409 74.3398 74.531C74.3398 72.8478 74.3398 71.17 74.3398 69.1641C78.8241 66.529 83.4057 63.8402 88.1385 61.0599C88.1385 55.7467 88.1385 50.5465 88.1385 45.4054C89.6027 44.4482 90.7751 43.534 92.639 42.8887C92.639 50.1378 92.639 57.0965 92.639 64.0553Z" fill="#EFB500"/>
<path d="M105.953 56.5364C103.345 57.9624 100.741 59.383 97.7861 60.9974C97.7861 55.6539 97.7861 50.6655 97.7861 45.3973C101.824 42.6798 106.294 40.3282 111.234 37.5515C111.186 41.496 111.581 44.8 110.994 48.1148C110.274 47.0171 110.231 45.5749 109.271 44.5686C108.22 44.574 107.175 44.2188 105.953 44.9668C105.953 48.7552 105.953 52.6458 105.953 56.5364Z" fill="#EFB500"/>
<path d="M13.7608 23.9466C11.016 25.5468 8.27117 27.1525 5.14648 28.9737C5.14648 23.5856 5.14648 18.5908 5.14648 13.1541C9.12725 10.8318 13.3862 8.3479 17.8967 5.71849C18.5869 8.04617 18.1482 10.1583 18.2873 12.222C16.864 12.556 15.275 11.9957 13.7661 13.1002C13.7608 16.6618 13.7608 20.3042 13.7608 23.9466Z" fill="#EFB500"/>
<path d="M32.498 13.3736C34.0087 12.4937 35.1055 11.4581 36.7883 11.0556C36.7883 18.117 36.7883 24.9906 36.7883 32.0949C30.9873 35.4324 25.1594 38.7914 19.0305 42.3167C18.4875 40.4548 18.7187 38.9094 18.7886 37.0797C23.2777 34.4719 27.8691 31.8051 32.498 29.1169C32.498 23.8101 32.498 18.6804 32.498 13.3736Z" fill="#EFB500"/>
<path d="M56.0009 42.3167C55.4814 40.3961 55.6956 38.9154 55.7438 37.1396C60.2048 34.5269 64.7676 31.8552 69.4482 29.1138C69.4482 23.8401 69.4482 18.6308 69.4482 13.5396C70.6317 12.3486 71.9652 11.9086 73.5771 11.0556C73.5771 18.1533 73.5771 24.8809 73.5771 32.0591C68.2004 35.557 62.2184 38.7384 56.0009 42.3167Z" fill="#EFB500"/>
<path d="M69.0238 56.3978C66.3948 57.8104 63.7659 59.2176 60.8057 60.8068C60.8057 55.6006 60.8057 50.6566 60.8057 45.3274C64.6155 42.727 68.9864 40.4743 73.4374 37.9328C74.3565 40.0944 73.7366 42.1972 73.9343 44.2198C71.1024 44.6478 69.8039 46.5955 69.0665 49.1049C68.3505 51.5341 68.6871 53.9633 69.0238 56.3978Z" fill="#EFB500"/>
<path d="M36.9807 52.635C35.8379 50.1413 36.0212 47.3211 34.9862 44.6721C33.7788 44.6721 32.5875 44.6721 31.2345 44.6721C30.8195 49.0442 30.4152 53.3093 30.0109 57.5797C28.0542 58.6018 26.0975 59.624 23.8281 60.8066C23.8281 55.5837 23.8281 50.5694 23.8281 45.3143C27.8062 42.6814 32.1617 40.4017 36.9753 37.742C36.9807 43.0399 36.9807 47.8348 36.9807 52.635Z" fill="#EFB500"/>
<path d="M34.0312 53.3727C34.3428 53.9746 34.3377 54.6241 34.2815 55.2788C33.413 54.7561 33.7911 54.0538 34.0312 53.3727Z" fill="#EFB500"/>
<path d="M18.3669 15.4401C20.3294 16.9231 20.3139 17.9656 18.2998 19.443C18.3205 18.105 18.3411 16.7726 18.3669 15.4401Z" fill="#EFB500"/>
<path d="M18.2996 15.4401C18.2806 16.7726 18.2569 18.1106 18.2379 19.443C17.3408 18.0883 17.2458 16.7503 18.2996 15.4401Z" fill="#EFB500"/>
<path d="M73.91 47.8281C74.4361 47.4088 74.7709 47.8335 74.9037 48.1937C76.0515 51.3545 75.8761 54.4508 74.654 57.7567C72.741 56.7891 72.7463 55.4184 72.8526 54.0046C75.0844 52.2737 73.6762 49.9085 73.91 47.8281Z" fill="#EFB500"/>
<path d="M73.9089 47.8448C73.6702 49.8993 75.141 52.2351 72.8044 53.9445C72.649 51.8263 72.1661 49.6497 73.9089 47.8448Z" fill="#EFB500"/>
</svg>
