<svg width="143" height="82" viewBox="0 0 143 82" fill="none" xmlns="http://www.w3.org/2000/svg">
<path d="M60.4341 0C60.823 0 61.2177 0 61.6065 0C68.1696 3.87836 74.7385 7.75083 81.3487 11.6586C87.8646 7.50365 94.7458 4.35506 100.92 0C101.509 0 102.092 0 102.681 0C103 1.07111 104.078 1.21824 104.855 1.68317C110.429 5.00243 116.037 8.26284 121.634 11.5409C120.261 12.9298 118.164 13.3359 116.756 15.178C116.756 20.5924 116.756 26.2304 116.756 31.9567C111.79 34.864 106.929 37.7066 102.134 40.5079C102.004 42.4736 101.768 44.1744 102.369 46.2166C109.103 42.3853 115.607 38.6894 122.105 34.9876C128.722 38.9366 135.626 42.403 142.03 46.7168C140.469 47.6702 138.908 48.6295 137.211 49.6653C137.211 55.4446 137.211 61.1474 137.211 66.9561C132.139 69.9046 127.19 72.7825 122.088 75.7486C122.088 77.7378 122.088 79.6682 122.088 81.5926C121.051 81.5573 120.338 80.8216 119.519 80.3567C113.516 76.9668 107.536 73.5299 101.55 70.1106C101.55 62.4951 101.55 54.8796 101.55 46.9405C99.5178 47.6467 98.2452 48.6472 96.6428 49.6948C96.6428 55.321 96.6428 61.0179 96.6428 66.8266C91.476 69.8693 86.4801 72.8119 81.5961 75.6956C81.5961 77.8908 81.5961 79.7329 81.5961 81.5691C80.7124 81.7986 80.1881 81.0983 79.5577 80.7393C73.354 77.2022 67.168 73.6417 60.9762 70.087C60.9762 62.5598 60.9762 55.0326 60.9762 47.2759C58.596 47.6232 57.2999 48.759 55.721 50.0243C55.721 55.6094 55.721 61.3181 55.721 67.0326C50.7192 69.934 45.9295 72.7118 41.2399 75.4308C40.8275 77.6024 40.9925 79.5387 41.0867 81.4749C40.9218 81.5396 40.6979 81.7103 40.5978 81.6574C33.8344 77.8202 27.0828 73.9654 20.2959 70.0929C20.2959 62.2126 20.2959 54.5442 20.2959 46.7345C13.4855 42.8267 6.74567 38.9425 0 35.0582C0 27.072 0 19.0858 0 11.1054C0.394725 11.3408 0.736427 11.1584 1.07224 10.9642C7.36427 7.30944 13.6563 3.65472 19.9483 0C20.3372 0 20.7319 0 21.1207 0C27.3185 4.31386 34.1525 7.55662 40.7274 11.641C47.3022 7.75671 53.8652 3.87836 60.4341 0ZM81.0836 48.4235C80.8656 46.1989 81.549 43.8802 80.5357 41.5084C75.6281 44.3039 70.8089 46.7816 66.6083 49.6418C66.6083 55.5035 66.6083 60.9414 66.6083 66.6677C69.8663 64.9257 72.7708 63.372 75.6693 61.8183C75.8461 62.1596 76.0523 62.4892 76.1996 62.8482C77.1776 65.2258 78.8448 66.6736 81.5313 66.5029C84.3651 66.3264 85.8261 64.4902 86.539 61.9772C87.3167 59.2347 87.3285 56.4274 86.7629 53.6496C86.0854 50.3245 84.5772 49.0062 81.0836 48.4235ZM20.0426 13.4654C19.8894 11.2113 20.3784 8.90433 19.6125 6.36192C14.6461 9.2339 9.95649 11.947 5.57328 14.4835C5.57328 20.4217 5.57328 25.8773 5.57328 31.7625C9.01387 29.7674 12.0362 28.0195 15.0585 26.2716C15.4591 27.8488 14.8169 29.5379 15.465 31.1387C16.7905 31.2564 18.0277 31.5801 19.4829 30.7208C19.4829 28.7846 19.4829 26.7306 19.4829 24.0941C21.9161 26.3363 20.8026 29.2377 22.3226 31.174C23.548 31.174 24.7911 31.174 26.258 31.174C25.3213 28.3255 25.6218 25.3064 23.495 22.9406C24.8088 21.9872 25.5923 20.8042 25.7691 19.2682C26.1579 15.9136 24.6615 14.3952 20.0426 13.4654ZM121.705 52.6609C122.359 49.0356 121.917 45.4221 121.97 41.1082C116.515 44.145 111.583 46.7168 107.118 49.6889C107.118 55.4505 107.118 60.9061 107.118 66.7501C110.376 64.9845 113.257 63.4308 116.137 61.8713C116.544 63.2484 115.855 64.7727 116.603 66.1204C117.716 66.2499 118.765 66.5206 119.979 65.7673C119.979 63.1778 119.979 60.5 119.979 57.1984C121.587 60.5883 122.259 63.6604 123.908 66.2381C125.116 66.191 126.194 66.5147 127.196 65.985C127.196 60.2646 127.196 54.5913 127.196 48.8944C125.958 48.7472 124.916 48.453 123.779 49.2475C123.779 51.8017 123.779 54.4382 123.779 57.0748C123.637 57.1042 123.502 57.1337 123.36 57.1631C122.801 55.6624 122.253 54.1616 121.705 52.6609ZM37.5401 60.5824C38.0409 62.3303 38.5358 64.0782 39.0189 65.7732C40.0557 65.9556 40.9041 66.0733 41.9233 65.6378C42.4889 63.2602 43.078 60.7884 43.6613 58.3166C44.4566 60.9179 44.0737 63.6368 44.8513 66.1557C45.9648 66.2499 46.9251 66.4088 48.1564 65.938C47.8147 60.3293 47.4671 54.656 47.1195 48.9473C45.523 48.6472 44.221 48.5942 42.8188 48.9709C42.1531 52.2019 41.505 55.3387 40.857 58.4755C40.7215 58.4461 40.586 58.4225 40.4505 58.3931C40.4505 58.1283 40.4505 57.8634 40.4505 57.5986C40.4505 52.3254 40.4505 47.0523 40.4505 41.2142C35.1894 44.1391 30.4233 46.6462 26.0813 49.5417C26.0813 55.3151 26.0813 60.8296 26.0813 66.5794C28.5616 65.2788 30.7002 64.1547 32.8388 63.0307C33.204 64.0194 32.4499 65.1376 33.2512 66.2616C34.1997 66.038 35.2837 66.6854 36.2793 65.732C36.4031 63.1013 36.5268 60.4235 36.68 57.1572C37.0393 57.9576 37.1454 58.1989 37.2514 58.4402C36.9745 59.217 36.5386 59.9998 37.5401 60.5824ZM101.509 13.4654C101.509 11.1996 101.509 8.93964 101.509 6.06766C96.1715 9.12208 91.4878 11.7999 87.0633 14.3305C87.0633 20.2451 87.0633 25.7714 87.0633 31.4918C90.8928 29.8792 93.8267 27.3545 97.4087 26.0715C97.8977 27.7252 97.12 29.532 97.9212 31.1681C99.1702 31.2858 100.313 31.4624 101.668 30.9621C101.668 28.9141 101.668 26.8189 101.668 24.8886C102.929 24.0058 104.231 24.8003 105.315 24.0941C105.568 23.0995 105.769 22.0872 105.179 21.1927C104.078 20.7277 102.941 21.3221 101.874 20.663C101.633 19.5978 101.48 18.4972 102.028 17.3614C103.229 17.2849 104.366 17.2084 105.509 17.1319C105.786 15.8489 106.016 14.7483 105.35 13.7184C104.025 13.6302 102.764 13.5478 101.509 13.4654ZM60.9585 13.4654C60.8996 11.1996 61.2531 8.91022 60.6109 6.17948C55.5089 9.11031 50.7487 11.8411 45.8823 14.6424C45.8529 20.3216 45.5878 25.8537 46.0709 31.8508C49.9592 29.6262 53.388 27.6664 56.8168 25.7007C57.2174 27.4722 56.5576 29.3378 57.2351 31.1446C59.9098 31.1446 62.4903 31.1446 65.0884 31.1446C65.4124 29.8851 65.5832 28.7728 64.9529 27.737C63.6803 27.4486 62.3842 27.9842 61.1588 27.3486C61.0527 26.1892 60.8053 25.0534 61.3237 24.0176C62.4844 23.5644 63.7333 24.2706 64.7938 23.5114C65.0177 22.5463 65.1178 21.6164 64.6465 20.5335C63.5625 20.4747 62.4372 20.4158 61.1352 20.3452C61.1117 19.2741 60.8465 18.356 61.2884 17.4555C62.4667 16.8435 63.8512 17.7027 64.9823 16.8376C65.0825 15.8018 65.3653 14.7601 64.7231 13.7243C63.4506 13.6478 62.2016 13.5595 60.9585 13.4654ZM35.6549 14.5953C35.6549 20.4217 35.6549 26.048 35.6549 31.8567C30.5765 34.8052 25.5511 37.7301 20.6317 40.5903C20.5552 42.6031 20.3018 44.2921 20.8969 46.3343C27.6131 42.4618 33.9994 38.7836 40.3562 35.123C40.3562 27.3309 40.3562 19.792 40.3562 12.047C38.5063 12.4884 37.3044 13.6302 35.6549 14.5953ZM61.4062 46.3637C68.2403 42.4383 74.821 38.9425 80.7477 35.1053C80.7477 27.2309 80.7477 19.8567 80.7477 12.0647C78.9744 13.0004 77.5075 13.483 76.2055 14.7895C76.2055 20.3805 76.2055 26.0892 76.2055 31.8743C71.0505 34.8817 66.031 37.8125 61.1293 40.6786C61.0763 42.6325 60.8407 44.2568 61.4062 46.3637Z" fill="white"/>
<path d="M56.7971 25.8019C53.3616 27.7632 49.9261 29.7303 46.0302 31.9566C45.5462 25.9551 45.8118 20.4188 45.8414 14.7352C50.7171 11.9376 55.4866 9.19893 60.5985 6.26587C61.236 8.99279 60.8877 11.2898 60.9468 13.5573C59.6717 13.999 58.2137 13.2098 56.7971 14.2346C56.7971 18.0276 56.7971 21.9147 56.7971 25.8019Z" fill="#F2F2F2"/>
<path d="M141.95 46.7866C142.747 47.493 142.346 48.423 142.352 49.2411C142.387 56.122 142.375 63.0028 142.375 70.2309C135.647 74.0039 128.813 77.8357 121.979 81.6676C121.979 79.7369 121.979 77.8122 121.979 75.8227C127.084 72.8561 132.041 69.9837 137.129 67.0289C137.129 61.2193 137.129 55.5157 137.129 49.7356C138.822 48.6996 140.386 47.7402 141.95 46.7866Z" fill="#F2F2F2"/>
<path d="M60.9898 70.1159C54.3459 73.8949 47.702 77.6738 41.0522 81.4586C40.9577 79.531 40.7923 77.6035 41.2057 75.4416C45.9008 72.7348 50.708 69.9695 55.7219 67.0811C55.7219 61.3922 55.7219 55.7091 55.7219 50.1491C57.3047 48.8895 58.6039 47.7588 60.9898 47.4131C60.9898 55.1291 60.9898 62.6225 60.9898 70.1159Z" fill="#F2F2F2"/>
<path d="M121.645 11.4878C122.508 12.2881 122.082 13.3179 122.088 14.2359C122.13 21.1327 122.118 28.0353 122.118 34.9321C115.594 38.6276 109.075 42.329 102.321 46.1599C101.718 44.1179 101.954 42.4173 102.084 40.4518C106.889 37.6507 111.764 34.8085 116.752 31.9015C116.752 26.1699 116.752 20.5383 116.752 15.1245C118.158 13.2826 120.268 12.8707 121.645 11.4878Z" fill="#F2F2F2"/>
<path d="M97.4187 26.1064C93.8393 27.3923 90.9122 29.9228 87.0977 31.539C87.0977 25.8115 87.0977 20.2727 87.0977 14.3387C91.5117 11.8024 96.1844 9.1185 101.51 6.05713C101.51 8.93564 101.51 11.2007 101.51 13.4717C100.311 13.861 98.9939 13.2534 97.4246 14.0674C97.4187 17.9723 97.4187 22.0423 97.4187 26.1064Z" fill="#F2F2F2"/>
<path d="M101.51 70.1884C94.826 74.0127 88.1423 77.8429 81.4585 81.6672C81.4585 79.8228 81.4585 77.9843 81.4585 75.7864C86.3722 72.899 91.3924 69.9527 96.5784 66.9062C96.5784 61.0843 96.5784 55.3862 96.5784 49.7529C98.1827 48.704 99.4674 47.7022 101.51 46.9951C101.51 54.9383 101.51 62.5634 101.51 70.1884Z" fill="#F2F2F2"/>
<path d="M116.099 61.9496C113.241 63.5122 110.389 65.0688 107.15 66.8377C107.15 60.9826 107.15 55.5166 107.15 49.744C111.575 46.7663 116.473 44.1895 121.886 41.147C121.833 45.4691 122.266 49.0895 121.623 52.7217C120.834 51.5188 120.787 49.9386 119.735 48.8359C118.584 48.8418 117.438 48.4527 116.099 49.2723C116.099 53.4234 116.099 57.6865 116.099 61.9496Z" fill="#F2F2F2"/>
<path d="M15.0783 26.2393C12.0706 27.9928 9.06303 29.7522 5.63916 31.7478C5.63916 25.8437 5.63916 20.3707 5.63916 14.4135C10.0011 11.8688 14.6679 9.14705 19.6102 6.26587C20.3665 8.81642 19.8857 11.1308 20.0382 13.3921C18.4787 13.7581 16.7374 13.1441 15.0841 14.3544C15.0783 18.257 15.0783 22.2481 15.0783 26.2393Z" fill="#F2F2F2"/>
<path d="M35.6107 14.6542C37.266 13.69 38.4678 12.5552 40.3117 12.1143C40.3117 19.8518 40.3117 27.3835 40.3117 35.168C33.9553 38.8251 27.5694 42.5057 20.8536 46.3686C20.2587 44.3284 20.512 42.6351 20.5886 40.6302C25.5076 37.7727 30.5385 34.8505 35.6107 31.9049C35.6107 26.09 35.6107 20.4691 35.6107 14.6542Z" fill="#F2F2F2"/>
<path d="M61.3642 46.3686C60.795 44.2641 61.0297 42.6416 61.0825 40.6958C65.9706 37.8329 70.9703 34.9054 76.099 31.9015C76.099 26.1229 76.099 20.4148 76.099 14.836C77.3959 13.531 78.857 13.0489 80.6233 12.1143C80.6233 19.8916 80.6233 27.2633 80.6233 35.1288C74.7318 38.9616 68.1771 42.4476 61.3642 46.3686Z" fill="#F2F2F2"/>
<path d="M75.6339 61.798C72.7532 63.3458 69.8726 64.8878 66.6289 66.6291C66.6289 60.9244 66.6289 55.5071 66.6289 49.6676C70.8035 46.8182 75.5929 44.3498 80.4702 41.5649C81.4772 43.9336 80.798 46.2377 81.0147 48.4539C77.9115 48.923 76.4887 51.0571 75.6807 53.8068C74.8962 56.4686 75.265 59.1304 75.6339 61.798Z" fill="#F2F2F2"/>
<path d="M40.5203 57.6749C39.2681 54.9424 39.4689 51.8522 38.3349 48.9496C37.0118 48.9496 35.7065 48.9496 34.2239 48.9496C33.7691 53.7403 33.3262 58.4138 32.8832 63.0931C30.7391 64.2131 28.595 65.3331 26.1084 66.629C26.1084 60.9059 26.1084 55.4115 26.1084 49.6533C30.4674 46.7683 35.2399 44.2703 40.5144 41.356C40.5203 47.1611 40.5203 52.4151 40.5203 57.6749Z" fill="#F2F2F2"/>
<path d="M37.2891 58.4832C37.6306 59.1427 37.625 59.8544 37.5634 60.5718C36.6118 59.999 37.026 59.2295 37.2891 58.4832Z" fill="#F2F2F2"/>
<path d="M20.1248 16.9187C22.2752 18.5437 22.2582 19.6861 20.0513 21.3049C20.0739 19.8388 20.0965 18.3787 20.1248 16.9187Z" fill="white"/>
<path d="M20.0513 16.9187C20.0305 18.3787 20.0045 19.8449 19.9837 21.3049C19.0007 19.8205 18.8967 18.3543 20.0513 16.9187Z" fill="#F2F2F2"/>
<path d="M80.9865 52.4078C81.563 51.9483 81.9298 52.4137 82.0753 52.8083C83.333 56.2718 83.1409 59.6645 81.8017 63.287C79.7056 62.2268 79.7114 60.7248 79.8279 59.1757C82.2733 57.279 80.7303 54.6873 80.9865 52.4078Z" fill="white"/>
<path d="M80.987 52.4258C80.7255 54.677 82.3371 57.2365 79.7767 59.1096C79.6064 56.7886 79.0773 54.4036 80.987 52.4258Z" fill="#F2F2F2"/>
</svg>
