<svg width="71" height="82" viewBox="0 0 71 82" fill="none" xmlns="http://www.w3.org/2000/svg">
<path d="M70.8987 61.3952V20.4613L35.455 0L0 20.4613V61.3952L35.455 81.8677L70.8987 61.3952Z" fill="#EFB500"/>
<path d="M50.5729 41.892C50.5729 41.892 43.7976 49.8961 35.4327 49.8961C27.0678 49.8961 20.2925 41.892 20.2925 41.892C20.2925 41.892 27.0678 33.8878 35.4327 33.8878C43.7976 33.8878 50.5729 41.892 50.5729 41.892Z" stroke="white" stroke-width="2" stroke-miterlimit="10"/>
<path d="M35.9844 47.2356C39.6703 47.2356 42.6583 44.2476 42.6583 40.5617C42.6583 36.8758 39.6703 33.8878 35.9844 33.8878C32.2985 33.8878 29.3105 36.8758 29.3105 40.5617C29.3105 44.2476 32.2985 47.2356 35.9844 47.2356Z" stroke="white" stroke-width="2" stroke-miterlimit="10"/>
</svg>
