<svg width="71" height="82" viewBox="0 0 71 82" fill="none" xmlns="http://www.w3.org/2000/svg">
<path d="M70.8987 61.3952V20.4613L35.455 0L0 20.4613V61.3952L35.455 81.8677L70.8987 61.3952Z" fill="#EFB500"/>
<path d="M35.4979 43L19 37.5955L35.4979 32L52 37.5955L35.4979 43Z" stroke="white" stroke-width="2" stroke-miterlimit="10" stroke-linejoin="round"/>
<path d="M43 46.5247C40.6339 47.4715 37.9881 48 35.2047 48C30.9918 48 27.1075 46.7909 24 44.7529V40" stroke="white" stroke-width="2" stroke-miterlimit="10" stroke-linecap="round" stroke-linejoin="round"/>
<path d="M47 47C48.1046 47 49 46.1046 49 45C49 43.8954 48.1046 43 47 43C45.8954 43 45 43.8954 45 45C45 46.1046 45.8954 47 47 47Z" stroke="white" stroke-width="2" stroke-miterlimit="10" stroke-linecap="round" stroke-linejoin="round"/>
<path d="M35 38L47 39.9984V43" stroke="white" stroke-width="2" stroke-miterlimit="10" stroke-linecap="round" stroke-linejoin="round"/>
<path d="M47 47L45 55H49L47 47Z" stroke="white" stroke-width="2" stroke-miterlimit="10" stroke-linecap="round" stroke-linejoin="round"/>
</svg>
