<svg width="25" height="15" viewBox="0 0 25 15" fill="none" xmlns="http://www.w3.org/2000/svg">
<path fill-rule="evenodd" clip-rule="evenodd" d="M24.4266 0.987479C24.5995 0.418741 24.4266 0 23.5985 0H20.8641C20.1683 0 19.8475 0.361451 19.6735 0.760401C19.6735 0.760401 18.2829 4.0895 16.3132 6.25195C15.6757 6.87902 15.3861 7.07798 15.0382 7.07798C14.8643 7.07798 14.6028 6.87902 14.6028 6.30924V0.987479C14.6028 0.30416 14.4112 0 13.832 0H9.53209C9.09773 0 8.83627 0.31666 8.83627 0.617695C8.83627 1.26456 9.82167 1.41455 9.92271 3.23535V7.19152C9.92271 8.05921 9.76334 8.21649 9.41543 8.21649C8.48836 8.21649 6.2332 4.87177 4.89469 1.04477C4.63532 0.299994 4.37282 0 3.67388 0H0.93748C0.156247 0 0 0.361451 0 0.760401C0 1.4708 0.927064 4.9999 4.31762 9.66751C6.57799 12.8549 9.76021 14.583 12.6591 14.583C14.3976 14.583 14.6122 14.1997 14.6122 13.5383V11.1289C14.6122 10.3612 14.7768 10.2081 15.3278 10.2081C15.734 10.2081 16.4288 10.4081 18.0517 11.9445C19.9058 13.7664 20.211 14.583 21.2548 14.583H23.9891C24.7703 14.583 25.162 14.1997 24.937 13.4414C24.6891 12.6872 23.8037 11.5925 22.6297 10.2935C21.9922 9.55397 21.036 8.75711 20.7454 8.35816C20.3402 7.84671 20.4558 7.61859 20.7454 7.16339C20.7454 7.16339 24.0787 2.55307 24.4255 0.987479H24.4266Z" fill="#EFB500"/>
</svg>
