<svg xmlns="http://www.w3.org/2000/svg" width="71" height="82" fill="none"><path fill="#EFB500" d="M70.899 61.395V20.461L35.455 0 0 20.461v40.934l35.455 20.473 35.444-20.473Z"/><path stroke="#fff" stroke-miterlimit="10" stroke-width="2" d="M40.494 38.983a3.258 3.258 0 1 0 0-6.516 3.258 3.258 0 0 0 0 6.517Z"/><path stroke="#fff" stroke-miterlimit="10" stroke-width="2" d="M50.37 25.85s-9.752-.913-15.208 4.543c-3.27 3.27-4.25 8.072-4.51 11.409l3.766 3.765c3.337-.26 8.14-1.24 11.408-4.51 5.457-5.456 4.544-15.207 4.544-15.207ZM28.736 51.553c-1.725 1.725-7.948 4.194-7.948 4.194s2.469-6.223 4.194-7.948c1.725-1.725 3.168-1.488 4.205-.45 1.026 1.037 1.274 2.48-.451 4.204Z"/><path stroke="#fff" stroke-miterlimit="10" stroke-width="2" d="M25.726 37.383a23.32 23.32 0 0 0-3.912 5.151c3.168-1.758 6.37-2.457 8.94-1.938.316-2.593 1.116-5.75 2.92-8.4-2.683.959-5.479 2.718-7.948 5.187Zm8.038 17.113a23.322 23.322 0 0 0 5.152-3.912c2.56-2.56 4.352-5.445 5.287-8.207-2.66 1.894-5.873 2.717-8.522 3.055.575 2.593-.124 5.85-1.917 9.064Z"/></svg>