<svg xmlns="http://www.w3.org/2000/svg" width="71" height="82" fill="none"><path fill="#EFB500" d="M70.899 61.395V20.461L35.455 0 0 20.461v40.934l35.455 20.473 35.444-20.473Z"/><path stroke="#fff" stroke-miterlimit="10" stroke-width="2" d="M45.556 36.864v14.26a2.278 2.278 0 0 1-2.277 2.278H27.62a2.278 2.278 0 0 1-2.277-2.277V36.864"/><path stroke="#fff" stroke-miterlimit="10" stroke-width="2" d="M31.532 53.391v-8.444c0-.62.507-1.127 1.128-1.127h5.569c.62 0 1.127.507 1.127 1.127v8.444"/><path stroke="#fff" stroke-linecap="round" stroke-miterlimit="10" stroke-width="2" d="m19.886 42.151 14.757-14.756a1.143 1.143 0 0 1 1.623 0L51.025 42.15"/></svg>