<svg xmlns="http://www.w3.org/2000/svg" width="159" height="73" fill="none"><path fill="#fff" d="M140.136 71.42c-26.94-1.85-54.12-4.788-79.538 1.242 22.722-9.992 51.793-8.882 79.538-1.241ZM54.466 8.334c13.677 15.696 13.612 33.329 5.045 52.137 10.11-14.564 10.263-31.87 5.87-45.976-1.043-2.068-1.195-2.416-2.217-4.005-7.828-13.345-28.071-8.839-32.29 4.527 7.132-6.073 14.743-9.687 23.592-6.683ZM34.658 51.742c-4.914 9.23 15.525 25.47 22.005 17.284-10.676.066-20.526-9.012-22.005-17.284ZM15.393 50.13c4.61-4.288 2.566-16.348-1.63-18.111 1.652 2.46 3.914 7.467 1.696 9.992-5.915-2.22-6.915-6.77-8.241-11.19-1.022 6.967 2.392 11.821 6.784 16.197C4.26 47.736-.85 29.842 7.827 23.529c4.11-.13 5.61 3.766 6.697 3.287-.674-2.373-3.131-3.897-5.262-5.573 2.24-.413 5.5.784 7.088-.675-19.178-5.812-20.982 25.056-8.045 30.26 1.805.717 3-.48 7.61.151 4.37.588 8.959 2.003 6.393-3.591-.957 3.004-3.805 3.09-6.915 2.742Z"/><path fill="#fff" d="M22.395 39.246c2.022-6.705-1.327-15.434-6.24-15.369 3.957 4.224 4.304 10.166 6.24 15.37Zm13.241 4.463c6.002-11.168 2.588-21.943-10.958-25.513 7.132 6.835 12.459 14.541 10.958 25.513Zm-.369 1.263c-1.087 3.766-5.457 2.329-7.48 4.636 3.219 1.415 4.915.436 6.915-.065-.044-1.415 2.066-3.853.565-4.571Zm-10.48-16.588c5.87 4.397 1.065 13.867 1.609 20.81 7.11-4.788 5.544-19.526-1.61-20.81ZM144.245 3.676c4.631 20.18 15.112 38.466.131 65.024 18.547-20.594 18.634-50.09-.131-65.024Zm-24.136 33.219.348.566h1.609l-.913-1.415.913-.827-.826-1.154-.805.871-1.022-1.61c.848-.61 1.305-1.35 1.305-2.112 0-.98-.739-1.677-1.761-1.677-1.196 0-1.936.719-1.936 1.764 0 .544.24 1.045.631 1.698-.848.566-1.283 1.306-1.283 2.133 0 1.306.957 2.373 2.218 2.373.609 0 1.109-.196 1.522-.61Zm-1.348-4.637-.239-.391a1.218 1.218 0 0 1-.152-.566c0-.349.239-.588.565-.588.261 0 .435.218.435.544 0 .261-.152.588-.435.85l-.174.151Zm.696 3.57c-.283.153-.522.24-.74.24-.478 0-.869-.414-.869-.98 0-.37.195-.61.587-.849l1.022 1.59ZM95.344 47.344h1.5c1.044 0 1.805-.043 2.392-.566.456-.392.717-1.001.717-1.741 0-1.002-.37-1.568-1.152-1.85.718-.349 1.022-.893 1.022-1.764 0-1.633-.892-2.155-2.914-2.155h-1.565v8.076Zm1.587-1.436v-2.112h.196c.87 0 1.217.305 1.217 1.088 0 .719-.347 1.045-1.195 1.045-.088-.021-.153-.021-.218-.021Zm0-3.288v-2.046h.152c.826 0 1.218.327 1.218 1.045 0 .697-.392 1.002-1.218 1.002h-.152Zm7.132 4.724h4.349v-1.589h-2.348v-1.894h2.131v-1.48h-2.131v-1.633h2.348v-1.48h-4.349v8.076Zm7.654 0h1.5v-3.396c0-.914-.022-1.741-.109-2.481.196.762.326 1.219.37 1.35l1.761 4.527h1.5v-8.076h-1.5v3.113c0 .87.087 1.829.261 2.917a29.939 29.939 0 0 0-.5-1.654l-1.653-4.354h-1.652v8.054h.022Zm9.459.001h1.217c1.022 0 1.805-.066 2.501-.61 1-.74 1.413-1.85 1.413-3.44 0-2.72-1.239-4.048-3.74-4.048h-1.391v8.098Zm1.609-1.502v-5.116h.109c1.217 0 1.804.849 1.804 2.59 0 1.655-.63 2.504-1.783 2.504h-.13v.022Zm7.675 1.501h4.349v-1.589h-2.349v-1.894h2.131v-1.48h-2.131v-1.633h2.349v-1.48h-4.349v8.076Zm7.653 0h1.588v-3.352l1.326 3.352h1.718l-1.566-3.679c.87-.283 1.283-.98 1.283-2.111 0-1.633-.848-2.286-2.653-2.286h-1.696v8.076Zm1.566-4.593V40.51h.217c.718 0 1.022.348 1.022 1.11 0 .762-.369 1.154-1.065 1.154-.044 0-.109-.022-.174-.022ZM80.602 33.26 73.47 14.778h-3.261l7.566 18.482h2.827Zm3.088 3.222a49.025 49.025 0 0 0-2.653-.066h-1.696v.675l2.022 3.853 2.327-4.462Zm.326-3.157 6.85-16.805h51.858v-1.742H88.322l-7.11 18.482h.304c.891 0 1.74.022 2.5.065Z"/><path fill="#fff" d="M79.123 47.344h2.37c2.63 0 4.675-.065 6.37-1.262 1.588-1.132 2.588-3.2 2.588-5.66s-1-4.55-2.587-5.66c-1.13-.806-2.436-1.089-3.958-1.197-.76-.066-1.565-.066-2.435-.066h-.826.022-4.479v25.165h2.935v-11.32Zm0-10.754v-.37h1.522c.783 0 1.5.022 2.153.087 2.957.262 4.413 1.285 4.413 4.289 0 3.483-2.196 4.049-6.566 4.049h-1.522V36.59Zm56.185-33.763C109.564 7.79 82.602 3.741 55.792.781c27.289 8.75 56.251 11.08 79.516 2.046ZM25.352 23.812c-.783-.892-.935-2.068-1.392-3.113-2.435-.5-5.892-2.59-6.197.262 3.588.108 6.567 3.287 7.589 2.851Zm70.188 4.049v-8.076h1.609v3.004h1.804v-3.004h1.609v8.076h-1.609v-3.505H97.15v3.505h-1.61Zm5.849 0 1.891-8.076h1.696l1.805 8.076h-1.631l-.282-1.415h-1.588l-.239 1.415h-1.652Zm2.174-2.656h1.087a39.51 39.51 0 0 1-.544-3.722 103.711 103.711 0 0 1-.543 3.722Zm4.066 2.656v-8.076h1.696c1.805 0 2.653.653 2.653 2.286 0 1.132-.413 1.828-1.283 2.111l1.565 3.68h-1.717l-1.327-3.353v3.352h-1.587Zm1.565-4.571c.066 0 .131.021.174.021.696 0 1.066-.391 1.066-1.153s-.305-1.11-1.022-1.11c-.065 0-.131 0-.218.021v2.22Zm4.654 4.571v-6.574h-1.24v-1.502h4.131v1.502H115.5v6.574h-1.652Zm3.5 0 .805-8.076h2.087l.413 3.091c.109.87.218 1.72.261 2.612.131-1.306.218-2.177.283-2.612l.522-3.091h2.065l.696 8.076h-1.631l-.174-3.744a47.232 47.232 0 0 1-.087-2.808l-1.065 6.552h-1.174l-1-6.596c0 1.023-.087 1.96-.131 2.874l-.261 3.722h-1.609Zm7.567 0 1.892-8.076h1.696l1.804 8.076h-1.609l-.282-1.415h-1.631l-.239 1.415h-1.631Zm2.153-2.656h1.087a39.51 39.51 0 0 1-.544-3.722 103.711 103.711 0 0 1-.543 3.722Zm4.066 2.656v-8.076h1.652l1.653 4.354a30 30 0 0 1 .5 1.654c-.152-1.067-.261-2.046-.261-2.917v-3.091h1.5v8.076h-1.5l-1.783-4.528c-.065-.13-.174-.587-.37-1.35.087.74.109 1.568.109 2.482v3.396h-1.5Zm6.544 0v-8.076h1.653l1.652 4.354c.087.24.261.805.501 1.654-.153-1.067-.261-2.046-.261-2.917v-3.091h1.5v8.076h-1.5l-1.783-4.528c-.066-.13-.174-.587-.37-1.35.087.74.109 1.568.109 2.482v3.396h-1.501Zm-38.79 26.972c0 .305.196.457.457.457a.655.655 0 0 0 .63-.435c.022-.044.022-.109.022-.152v-.458c-.522 0-1.109.087-1.109.588Zm33.333-1.568c-.478 0-.696.436-.718.762h1.392c0-.305-.13-.762-.674-.762Zm-22.635 1.568c0 .305.196.457.457.457a.656.656 0 0 0 .631-.435c.021-.044.021-.109.021-.152v-.458c-.522 0-1.109.087-1.109.588Zm19.7-1.546c-.5 0-.783.436-.783 1.002 0 .522.261.957.761.957a.715.715 0 0 0 .696-.565c.021-.066.021-.131.021-.196v-.457c0-.066 0-.131-.021-.196a.703.703 0 0 0-.674-.545Zm-8.567 0a.737.737 0 0 0-.718.588c0 .044-.022.109-.022.196v.457c0 .066 0 .109.022.174.087.327.37.544.718.544.5 0 .783-.413.783-1-.022-.502-.283-.959-.783-.959Z"/><path fill="#fff" d="M95.41 49.239v9.404h47.313v-9.404H95.41Zm2.457 6.356h-.479v-1.502c0-.414-.152-.784-.609-.784-.304 0-.543.218-.63.48-.022.064-.022.13-.022.217v1.567h-.478v-3.81h.478v1.633a.728.728 0 0 1 .348-.326.877.877 0 0 1 .479-.13c.347 0 .913.217.913 1.11v1.545Zm2.196 0-.044-.326h-.022a1.027 1.027 0 0 1-.804.391c-.522 0-.805-.37-.805-.74 0-.631.566-.98 1.566-.98v-.043c0-.218-.065-.61-.587-.61-.24 0-.5.066-.674.196l-.109-.304a1.7 1.7 0 0 1 .848-.24c.805 0 .979.544.979 1.067v.98c0 .217 0 .457.043.63h-.391v-.021Zm2.413-2.22c-.043 0-.087-.022-.152-.022-.326 0-.565.261-.63.61 0 .065-.022.13-.022.217v1.393h-.457v-1.785c0-.304 0-.566-.022-.805h.414l.021.5h.022c.109-.348.413-.566.718-.566.065 0 .087 0 .13.022v.436h-.022Zm1.848-.044h-.674v1.415c0 .327.087.5.348.5.131 0 .218-.021.283-.021l.022.348c-.087.044-.239.066-.413.066a.706.706 0 0 1-.522-.196c-.131-.131-.174-.37-.174-.675v-1.415h-.392v-.37h.392v-.631l.456-.131v.74h.674v.37Zm4.24 2.264h-.456v-1.48c0-.5-.174-.806-.565-.806-.261 0-.479.196-.566.436a.776.776 0 0 0-.043.24v1.61h-.457v-1.567c0-.414-.174-.719-.543-.719-.305 0-.501.24-.588.48a.807.807 0 0 0-.043.239v1.567h-.457v-1.916c0-.26 0-.479-.021-.696h.413l.021.413h.022c.152-.24.392-.479.826-.479a.78.78 0 0 1 .74.523c.087-.152.174-.261.282-.348a.925.925 0 0 1 .566-.175c.348 0 .848.218.848 1.132v1.546h.021Zm2.197 0-.044-.326h-.022a1.027 1.027 0 0 1-.804.391c-.522 0-.805-.37-.805-.74 0-.631.566-.98 1.566-.98v-.043c0-.218-.065-.61-.587-.61-.239 0-.5.066-.674.196l-.109-.304c.217-.13.522-.24.848-.24.805 0 .978.544.978 1.067v.98c0 .217 0 .457.044.63h-.391v-.021Zm3.37 0h-.479v-1.502c0-.414-.152-.762-.608-.762-.305 0-.544.218-.631.479-.022.065-.022.13-.022.218v1.567h-.478v-1.916c0-.26 0-.479-.022-.696h.413l.022.435c.131-.24.435-.479.87-.479.369 0 .913.218.913 1.11v1.546h.022Zm2.957 0h-.478v-1.502c0-.414-.153-.762-.609-.762-.305 0-.544.218-.631.479-.022.065-.022.13-.022.218v1.567h-.478v-1.916c0-.26 0-.479-.022-.696h.413l.022.435c.131-.24.435-.479.87-.479.37 0 .913.218.913 1.11v1.546h.022Zm1.87-1.284h-1.326v-.349h1.326v.349Zm1.848 1.328c-.37 0-.674-.153-.87-.48h-.021l-.022.436h-.413c0-.174.021-.435.021-.675v-3.156h.457v1.632c.174-.283.457-.479.892-.479.652 0 1.108.545 1.087 1.328.021.936-.566 1.394-1.131 1.394Zm3.827-1.263h-1.827c0 .631.414.914.892.914.348 0 .544-.065.717-.13l.087.348c-.173.087-.456.152-.869.152-.805 0-1.283-.522-1.283-1.306 0-.783.456-1.415 1.217-1.415.848 0 1.066.74 1.066 1.22a.365.365 0 0 1 0 .217Zm2.827 1.219h-.479v-1.502c0-.414-.152-.762-.609-.762-.304 0-.543.218-.63.479-.022.065-.022.13-.022.218v1.567h-.478v-1.916c0-.26 0-.479-.022-.696h.413l.022.435c.13-.24.435-.479.87-.479.369 0 .913.218.913 1.11v1.546h.022Zm2.587 0-.022-.457a.987.987 0 0 1-.891.522c-.631 0-1.109-.544-1.109-1.328 0-.87.543-1.393 1.174-1.393.391 0 .674.196.783.392v-1.546h.478v3.157c0 .24 0 .5.022.675h-.435v-.022Zm3.283-1.219h-1.826c0 .631.413.914.891.914.348 0 .544-.065.718-.13l.087.348c-.174.087-.457.152-.87.152-.804 0-1.283-.522-1.283-1.306 0-.783.457-1.415 1.218-1.415.848 0 1.065.74 1.065 1.22v.217Zm1.87-1.001c-.043 0-.087-.022-.152-.022-.326 0-.565.261-.631.61 0 .065-.021.13-.021.217v1.393h-.457v-1.785c0-.304 0-.566-.022-.805h.414l.021.5h.022c.109-.348.413-.566.718-.566.065 0 .087 0 .13.022v.436h-.022Zm.392 2.264c-.196 0-.327-.153-.327-.349 0-.196.131-.348.327-.348.195 0 .326.13.326.348 0 .218-.131.349-.326.349Zm2.739-.044-.021-.457a.99.99 0 0 1-.892.522c-.63 0-1.109-.544-1.109-1.328 0-.87.544-1.393 1.174-1.393.392 0 .674.196.783.392v-1.546h.478v3.157c0 .24 0 .5.022.675h-.435v-.022Zm3.284-1.219h-1.827c0 .631.413.914.892.914.347 0 .543-.065.717-.13l.087.348c-.174.087-.456.152-.87.152-.804 0-1.282-.522-1.282-1.306 0-.783.456-1.415 1.217-1.415.848 0 1.066.74 1.066 1.22v.217Z"/><path fill="#fff" d="M140.506 53.265c-.479 0-.696.436-.718.762h1.392c0-.305-.131-.762-.674-.762Zm-16.96 0c-.479 0-.696.436-.718.762h1.392c-.022-.305-.153-.762-.674-.762Zm14.025.022c-.5 0-.783.436-.783 1.002 0 .522.261.957.761.957a.715.715 0 0 0 .696-.565c.022-.066.022-.131.022-.196v-.457c0-.066 0-.131-.022-.196a.703.703 0 0 0-.674-.545Zm-56.664-4.048v9.404H95.41v-9.404H80.907Zm4.522 6.356h-.434l-.392-1.24c-.087-.284-.174-.545-.239-.85a9.715 9.715 0 0 1-.24.871l-.412 1.24h-.435l-.783-2.611h.478l.348 1.327c.087.283.153.566.196.828h.022c.065-.262.152-.545.239-.828l.435-1.328h.391l.413 1.307c.087.304.174.587.24.849h.021c.044-.262.109-.545.196-.85l.37-1.306h.456l-.87 2.591Zm4.001 0h-.435l-.391-1.24c-.087-.284-.174-.545-.24-.85a10.06 10.06 0 0 1-.238.871l-.413 1.24h-.435l-.783-2.611h.478l.348 1.327c.087.283.152.566.196.828h.022c.065-.262.152-.545.239-.828l.435-1.328h.39l.414 1.307c.087.304.174.587.24.849h.021c.043-.262.109-.545.196-.85l.37-1.306h.456l-.87 2.591Zm4.023 0h-.435l-.392-1.24c-.087-.284-.174-.545-.239-.85-.065.305-.152.588-.239.871l-.413 1.24H91.3l-.783-2.611h.479l.326 1.306c.087.283.152.566.196.827h.021c.066-.261.153-.544.24-.827l.434-1.328h.392l.413 1.306c.087.305.174.588.239.849h.022c.043-.261.109-.544.196-.85l.37-1.305h.456l-.848 2.612Zm1.283.044c-.196 0-.327-.153-.327-.349 0-.196.13-.348.327-.348.195 0 .326.13.326.348 0 .218-.13.349-.326.349Z"/></svg>