<svg xmlns="http://www.w3.org/2000/svg" width="177" height="81" fill="none"><path fill="#EFB500" d="M156.687 78.983c-30.122-2.069-60.512-5.354-88.932 1.388 25.406-11.172 57.91-9.931 88.932-1.388ZM60.9 8.446c15.292 17.55 15.219 37.264 5.64 58.294 11.305-16.283 11.475-35.633 6.564-51.406-1.167-2.312-1.337-2.702-2.48-4.478-8.752-14.92-31.386-9.882-36.102 5.062C42.496 9.128 51.005 5.087 60.9 8.446ZM38.751 56.98C33.257 67.3 56.11 85.458 63.355 76.306c-11.937.073-22.95-10.077-24.604-19.326Zm-21.539-1.802c5.154-4.794 2.868-18.279-1.824-20.25 1.848 2.75 4.376 8.348 1.897 11.172-6.613-2.483-7.732-7.57-9.215-12.511-1.142 7.789 2.675 13.217 7.586 18.109C4.764 52.5-.95 32.494 8.75 25.435c4.595-.146 6.273 4.21 7.488 3.675-.754-2.653-3.5-4.357-5.883-6.23 2.504-.463 6.15.876 7.925-.755C-3.163 15.626-5.18 50.14 9.285 55.957c2.018.804 3.355-.535 8.509.17 4.887.658 10.016 2.24 7.148-4.015-1.07 3.359-4.255 3.456-7.732 3.066Z"/><path fill="#EFB500" d="M25.04 43.009c2.26-7.497-1.483-17.257-6.977-17.184 4.424 4.722 4.813 11.366 6.977 17.184Zm14.806 4.989c6.71-12.486 2.893-24.534-12.253-28.526 7.974 7.643 13.93 16.259 12.253 28.526Zm-.414 1.412c-1.215 4.211-6.102 2.605-8.363 5.185 3.598 1.582 5.495.487 7.731-.073-.048-1.582 2.31-4.308.633-5.112ZM27.714 30.863c6.564 4.917 1.191 15.505 1.799 23.27 7.95-5.355 6.2-21.834-1.8-23.27ZM161.283 3.237c5.179 22.564 16.897 43.01.146 72.704 20.738-23.026 20.835-56.006-.146-72.704ZM134.295 40.38l.389.633h1.799l-1.021-1.582 1.021-.925-.924-1.29-.899.973-1.143-1.8c.948-.682 1.459-1.51 1.459-2.362 0-1.095-.827-1.874-1.97-1.874-1.337 0-2.163.803-2.163 1.972 0 .608.267 1.168.705 1.898-.948.633-1.435 1.46-1.435 2.385 0 1.46 1.07 2.654 2.48 2.654.681 0 1.24-.22 1.702-.682Zm-1.507-5.184-.268-.438a1.366 1.366 0 0 1-.17-.633c0-.39.267-.658.632-.658.292 0 .486.244.486.609 0 .292-.17.657-.486.95l-.194.17Zm.778 3.991c-.317.17-.584.268-.827.268-.535 0-.973-.462-.973-1.095 0-.414.219-.682.657-.95l1.143 1.777Zm-26.961 12.876h1.678c1.167 0 2.018-.049 2.674-.633.511-.438.803-1.12.803-1.947 0-1.12-.414-1.752-1.289-2.069.802-.39 1.143-.998 1.143-1.971 0-1.826-.997-2.41-3.258-2.41h-1.751v9.03Zm1.775-1.606v-2.361h.219c.972 0 1.361.34 1.361 1.217 0 .803-.389 1.168-1.337 1.168-.097-.024-.17-.024-.243-.024Zm0-3.676v-2.288h.17c.924 0 1.362.365 1.362 1.169 0 .779-.438 1.12-1.362 1.12h-.17Zm7.974 5.282h4.863v-1.777h-2.626V48.17h2.383v-1.655h-2.383v-1.826h2.626v-1.655h-4.863v9.03Zm8.557 0h1.678v-3.797c0-1.022-.025-1.947-.122-2.775.219.852.365 1.363.413 1.51l1.97 5.062h1.677v-9.03h-1.677v3.48c0 .974.097 2.045.291 3.262a33.384 33.384 0 0 0-.559-1.85l-1.848-4.868h-1.847v9.006h.024Zm10.576 0h1.362c1.142 0 2.018-.073 2.796-.681 1.118-.828 1.58-2.07 1.58-3.846 0-3.043-1.386-4.527-4.182-4.527h-1.556v9.054Zm1.799-1.68v-5.72h.122c1.361 0 2.018.95 2.018 2.897 0 1.85-.705 2.8-1.994 2.8h-.146v.024Zm8.583 1.68h4.862v-1.777h-2.625V48.17h2.382v-1.655h-2.382v-1.826h2.625v-1.655h-4.862v9.03Zm8.558 0h1.775v-3.748l1.483 3.748h1.92l-1.75-4.113c.972-.317 1.434-1.096 1.434-2.361 0-1.826-.948-2.556-2.966-2.556h-1.896v9.03Zm1.75-5.136V44.42h.243c.803 0 1.143.39 1.143 1.242s-.413 1.29-1.191 1.29c-.049 0-.122-.025-.195-.025ZM90.121 36.315 82.147 15.65H78.5l8.46 20.665h3.161Zm3.454 3.602c-.9-.048-1.872-.073-2.966-.073h-1.896v.755l2.26 4.308 2.602-4.99Zm.365-3.529 7.658-18.79h57.983V15.65H98.754l-7.95 20.665h.34a49.6 49.6 0 0 1 2.796.073Z"/><path fill="#EFB500" d="M88.469 52.063h2.65c2.941 0 5.227-.073 7.123-1.412 1.775-1.265 2.893-3.578 2.893-6.328 0-2.75-1.118-5.087-2.893-6.328-1.264-.901-2.723-1.217-4.425-1.34-.85-.072-1.75-.072-2.723-.072h-.923.024-5.009V64.72h3.283V52.063Zm0-12.024v-.414h1.701c.876 0 1.678.025 2.407.098 3.307.292 4.936 1.436 4.936 4.795 0 3.894-2.456 4.527-7.343 4.527h-1.7v-9.006Zm62.822-37.751C122.506 7.838 92.36 3.31 62.384 0c30.51 9.785 62.894 12.39 88.907 2.288ZM28.345 25.752c-.875-.998-1.045-2.313-1.556-3.48-2.723-.56-6.588-2.897-6.929.291 4.012.122 7.343 3.676 8.485 3.189Zm78.479 4.527v-9.03h1.799v3.359h2.018v-3.36h1.799v9.03h-1.799V26.36h-2.018v3.919h-1.799Zm6.54 0 2.115-9.03h1.896l2.018 9.03h-1.823l-.316-1.582h-1.775l-.267 1.582h-1.848Zm2.431-2.97h1.216a43.773 43.773 0 0 1-.608-4.162 115.3 115.3 0 0 1-.608 4.162Zm4.546 2.97v-9.03h1.897c2.018 0 2.966.73 2.966 2.555 0 1.266-.462 2.045-1.435 2.361l1.751 4.114h-1.921l-1.483-3.749v3.749h-1.775Zm1.751-5.112c.073 0 .146.025.194.025.778 0 1.192-.438 1.192-1.29 0-.852-.341-1.242-1.143-1.242-.073 0-.146 0-.243.025v2.482Zm5.203 5.112v-7.35h-1.386v-1.68h4.619v1.68h-1.386v7.35h-1.847Zm3.914 0 .899-9.03h2.334l.462 3.456c.122.974.243 1.923.292 2.92.146-1.46.243-2.433.316-2.92l.583-3.456h2.31l.778 9.03h-1.823l-.195-4.187a52.91 52.91 0 0 1-.097-3.14l-1.191 7.327h-1.313l-1.119-7.375c0 1.144-.097 2.19-.145 3.213l-.292 4.162h-1.799Zm8.46 0 2.115-9.03h1.897l2.018 9.03h-1.8l-.316-1.582h-1.823l-.267 1.582h-1.824Zm2.407-2.97h1.216a43.773 43.773 0 0 1-.608-4.162 115.3 115.3 0 0 1-.608 4.162Zm4.546 2.97v-9.03h1.848l1.848 4.868c.097.267.291.9.559 1.85-.17-1.193-.292-2.288-.292-3.262v-3.456h1.678v9.03h-1.678l-1.993-5.063c-.073-.146-.195-.657-.414-1.509.098.828.122 1.752.122 2.775v3.797h-1.678Zm7.318 0v-9.03h1.848l1.848 4.868c.097.267.291.9.559 1.85-.17-1.193-.292-2.288-.292-3.262v-3.456h1.677v9.03h-1.677l-1.994-5.063c-.073-.146-.194-.657-.413-1.509.097.828.122 1.752.122 2.775v3.797h-1.678Zm-43.373 30.157c0 .34.219.511.511.511.389 0 .608-.243.705-.486.024-.05.024-.122.024-.17v-.512c-.583 0-1.24.097-1.24.657Zm37.271-1.752c-.534 0-.778.486-.802.852h1.556c0-.341-.146-.852-.754-.852Zm-25.308 1.752c0 .34.219.511.511.511.389 0 .608-.243.705-.486.024-.05.024-.122.024-.17v-.512c-.583 0-1.24.097-1.24.657Zm22.027-1.728c-.559 0-.875.487-.875 1.12 0 .584.291 1.07.851 1.07.364 0 .68-.243.778-.632.024-.073.024-.146.024-.22v-.51c0-.073 0-.146-.024-.22a.786.786 0 0 0-.754-.608Zm-9.579 0a.822.822 0 0 0-.802.657c0 .049-.025.122-.025.22v.51c0 .074 0 .122.025.195a.81.81 0 0 0 .802.609c.559 0 .875-.463.875-1.12-.024-.56-.316-1.07-.875-1.07Z"/><path fill="#EFB500" d="M106.678 54.181v10.515h52.902V54.18h-52.902Zm2.747 7.107h-.535v-1.68c0-.462-.17-.875-.681-.875-.34 0-.607.243-.705.535-.024.073-.024.146-.024.243v1.753h-.535v-4.26h.535v1.826a.815.815 0 0 1 .389-.365.979.979 0 0 1 .535-.146c.389 0 1.021.243 1.021 1.241v1.728Zm2.455 0-.048-.365h-.025c-.17.22-.486.438-.899.438-.584 0-.9-.413-.9-.827 0-.706.633-1.096 1.751-1.096v-.048c0-.244-.073-.682-.657-.682-.267 0-.559.073-.753.22l-.122-.341c.243-.147.584-.268.948-.268.9 0 1.094.608 1.094 1.192v1.096c0 .243 0 .51.049.706h-.438v-.025Zm2.699-2.482c-.049 0-.097-.025-.17-.025-.365 0-.632.292-.705.682 0 .073-.025.146-.025.243v1.558h-.51v-1.996c0-.34 0-.633-.024-.9h.462l.024.56h.024c.122-.39.462-.634.802-.634.073 0 .098 0 .146.025v.487h-.024Zm2.066-.05h-.753v1.583c0 .365.097.56.389.56.146 0 .243-.025.316-.025l.024.39c-.097.049-.267.073-.462.073-.243 0-.437-.073-.583-.22-.146-.145-.195-.413-.195-.754v-1.582h-.437v-.414h.437v-.705l.511-.146v.827h.753v.414Zm4.741 2.532h-.51v-1.655c0-.56-.195-.9-.632-.9-.292 0-.535.219-.632.486a.856.856 0 0 0-.049.268v1.801h-.511v-1.752c0-.463-.194-.803-.607-.803-.341 0-.56.267-.657.535a.886.886 0 0 0-.048.268v1.752h-.511v-2.142c0-.292 0-.535-.024-.779h.462l.024.463h.024c.17-.268.438-.536.924-.536.389 0 .705.244.827.585a1.29 1.29 0 0 1 .316-.39c.17-.122.364-.195.632-.195.389 0 .948.244.948 1.266v1.728h.024Zm2.456 0-.049-.365h-.024c-.17.22-.486.438-.9.438-.583 0-.899-.413-.899-.827 0-.706.632-1.096 1.75-1.096v-.048c0-.244-.073-.682-.656-.682-.268 0-.559.073-.754.22l-.121-.341c.243-.147.583-.268.948-.268.899 0 1.094.608 1.094 1.192v1.096c0 .243 0 .51.048.706h-.437v-.025Zm3.768 0h-.535v-1.68c0-.462-.17-.851-.681-.851-.34 0-.607.243-.705.535-.024.073-.024.146-.024.244v1.752h-.535v-2.142c0-.292 0-.535-.024-.779h.462l.024.487c.146-.267.486-.535.973-.535.413 0 1.021.243 1.021 1.241v1.728h.024Zm3.306 0h-.534v-1.68c0-.462-.171-.851-.681-.851-.341 0-.608.243-.705.535-.025.073-.025.146-.025.244v1.752h-.534v-2.142c0-.292 0-.535-.025-.779h.462l.025.487c.145-.267.486-.535.972-.535.413 0 1.021.243 1.021 1.241v1.728h.024Zm2.091-1.436h-1.483v-.39h1.483v.39Zm2.067 1.485c-.414 0-.754-.17-.973-.536h-.024l-.024.487h-.462c0-.194.024-.487.024-.754v-3.53h.511v1.826c.194-.316.51-.536.996-.536.73 0 1.24.609 1.216 1.485.024 1.047-.632 1.558-1.264 1.558Zm4.279-1.412h-2.043c0 .706.462 1.023.997 1.023.389 0 .608-.074.802-.147l.098.39c-.195.097-.511.17-.973.17-.899 0-1.434-.584-1.434-1.46s.51-1.582 1.361-1.582c.948 0 1.192.827 1.192 1.363a.418.418 0 0 1 0 .243Zm3.16 1.363h-.535v-1.68c0-.462-.17-.851-.681-.851-.34 0-.607.243-.705.535-.024.073-.024.146-.024.244v1.752h-.535v-2.142c0-.292 0-.535-.024-.779h.462l.024.487c.146-.267.486-.535.973-.535.413 0 1.021.243 1.021 1.241v1.728h.024Zm2.893 0-.024-.51c-.17.316-.511.583-.997.583-.705 0-1.24-.608-1.24-1.484 0-.974.608-1.558 1.313-1.558.438 0 .754.219.875.438v-1.728h.535v3.529c0 .268 0 .56.024.755h-.486v-.025Zm3.671-1.363h-2.042c0 .706.462 1.023.997 1.023.389 0 .608-.074.802-.147l.097.39c-.194.097-.51.17-.972.17-.9 0-1.435-.584-1.435-1.46s.511-1.582 1.362-1.582c.948 0 1.191.827 1.191 1.363v.243Zm2.091-1.12c-.049 0-.097-.024-.17-.024-.365 0-.632.292-.705.682 0 .073-.025.146-.025.243v1.558h-.51v-1.996c0-.34 0-.633-.024-.9h.462l.024.56h.024c.122-.39.462-.634.802-.634.073 0 .098 0 .146.025v.487h-.024Zm.438 2.532c-.219 0-.365-.17-.365-.39 0-.219.146-.389.365-.389.218 0 .364.146.364.39 0 .243-.146.389-.364.389Zm3.063-.049-.024-.51a1.106 1.106 0 0 1-.997.583c-.705 0-1.24-.608-1.24-1.484 0-.974.608-1.558 1.313-1.558.437 0 .753.219.875.438v-1.728h.535v3.529c0 .268 0 .56.024.755h-.486v-.025Zm3.671-1.363h-2.042c0 .706.462 1.023.997 1.023.389 0 .607-.074.802-.147l.097.39c-.194.097-.51.17-.972.17-.9 0-1.435-.584-1.435-1.46s.511-1.582 1.362-1.582c.948 0 1.191.827 1.191 1.363v.243Z"/><path fill="#EFB500" d="M157.1 58.684c-.535 0-.778.486-.802.852h1.556c0-.341-.146-.852-.754-.852Zm-18.963 0c-.535 0-.778.486-.802.852h1.556c-.024-.341-.17-.852-.754-.852Zm15.682.024c-.56 0-.876.487-.876 1.12 0 .584.292 1.07.851 1.07.365 0 .681-.243.778-.632.025-.073.025-.146.025-.22v-.51c0-.073 0-.146-.025-.22a.785.785 0 0 0-.753-.608Zm-63.355-4.527v10.515h16.216V54.18H90.464Zm5.057 7.107h-.487l-.437-1.387c-.097-.317-.195-.609-.268-.95-.072.341-.17.658-.267.974l-.462 1.388h-.486l-.875-2.921h.534l.39 1.484c.097.317.17.633.218.925h.025c.072-.292.17-.608.267-.925l.486-1.484h.438l.462 1.46c.097.34.194.657.267.95h.025c.048-.293.121-.61.218-.95l.414-1.46h.51l-.972 2.896Zm4.473 0h-.486l-.438-1.387c-.097-.317-.194-.609-.267-.95-.073.341-.17.658-.268.974l-.462 1.388h-.486l-.875-2.921h.535l.389 1.484c.097.317.17.633.219.925h.024c.073-.292.17-.608.267-.925l.487-1.484h.437l.462 1.46c.097.34.195.657.267.95h.025a8.51 8.51 0 0 1 .219-.95l.413-1.46h.51l-.972 2.896Zm4.498 0h-.487l-.437-1.387c-.097-.317-.195-.609-.268-.95-.073.341-.17.658-.267.974l-.462 1.388h-.486l-.875-2.921h.534l.365 1.46c.097.317.17.633.219.925h.024c.073-.292.17-.608.268-.925l.486-1.485h.438l.461 1.46c.098.342.195.658.268.95h.024a8.82 8.82 0 0 1 .219-.95l.413-1.46h.511l-.948 2.921Zm1.434.049c-.219 0-.365-.17-.365-.39 0-.219.146-.389.365-.389s.365.146.365.39c0 .243-.146.389-.365.389Z"/></svg>