<svg xmlns="http://www.w3.org/2000/svg" width="18" height="18" fill="none"><path fill="#EFB500" fill-rule="evenodd" d="M5.29.054C6.25.01 6.555 0 9 0c2.445 0 2.75.01 3.71.054.958.043 1.613.196 2.186.418.6.227 1.144.581 1.594 1.04a4.39 4.39 0 0 1 1.037 1.592c.223.573.375 1.227.419 2.185C17.99 6.25 18 6.556 18 9c0 2.445-.01 2.75-.054 3.71-.043.958-.196 1.612-.419 2.185-.226.6-.58 1.145-1.037 1.595-.45.458-.994.811-1.594 1.037-.573.223-1.228.375-2.185.419-.96.044-1.266.054-3.711.054s-2.75-.01-3.71-.054c-.958-.043-1.612-.196-2.185-.419A4.416 4.416 0 0 1 1.51 16.49a4.41 4.41 0 0 1-1.038-1.594C.25 14.323.098 13.668.054 12.71.01 11.75 0 11.444 0 9c0-2.445.01-2.75.054-3.71.043-.959.196-1.613.418-2.186.227-.6.581-1.144 1.04-1.594A4.406 4.406 0 0 1 3.104.472C3.677.25 4.331.098 5.29.054Zm7.347 1.62c-.95-.043-1.234-.052-3.637-.052s-2.688.009-3.637.052c-.878.04-1.354.187-1.671.31-.42.164-.72.358-1.035.673a2.78 2.78 0 0 0-.673 1.035c-.123.317-.27.793-.31 1.671-.043.95-.052 1.234-.052 3.637s.009 2.688.052 3.637c.04.878.187 1.354.31 1.671.144.39.374.745.673 1.035.29.299.644.529 1.035.673.317.124.793.27 1.671.31.95.043 1.233.052 3.637.052s2.688-.009 3.637-.052c.878-.04 1.354-.186 1.671-.31.42-.164.72-.358 1.035-.673a2.78 2.78 0 0 0 .673-1.035c.124-.317.27-.793.31-1.671.043-.95.052-1.234.052-3.637s-.009-2.688-.052-3.637c-.04-.878-.186-1.354-.31-1.671a2.794 2.794 0 0 0-.673-1.035 2.793 2.793 0 0 0-1.035-.673c-.317-.123-.793-.27-1.671-.31Zm-4.787 10.1a3.002 3.002 0 1 0 2.162-5.6 3.003 3.003 0 0 0-2.162 5.6ZM5.73 5.73a4.626 4.626 0 1 1 6.542 6.542A4.626 4.626 0 0 1 5.73 5.73Zm8.923-.666a1.094 1.094 0 1 0-1.501-1.592 1.094 1.094 0 0 0 1.501 1.592Z" clip-rule="evenodd"/></svg>