<svg xmlns="http://www.w3.org/2000/svg" width="71" height="82" fill="none"><path fill="#EFB500" d="M70.899 61.395V20.461L35.455 0 0 20.461v40.934l35.455 20.473 35.444-20.473Z"/><path stroke="#fff" stroke-miterlimit="10" stroke-width="2" d="M47.404 40.9c0-1.714 1.128-3.157 2.672-3.675a15.047 15.047 0 0 0-1.68-4.07 3.871 3.871 0 0 1-4.486-.71 3.871 3.871 0 0 1-.71-4.487 14.694 14.694 0 0 0-4.07-1.68c-.519 1.545-1.95 2.672-3.675 2.672-1.714 0-3.157-1.127-3.675-2.672-1.455.36-2.819.936-4.07 1.68a3.871 3.871 0 0 1-.71 4.487 3.871 3.871 0 0 1-4.487.71 14.695 14.695 0 0 0-1.68 4.07c1.545.518 2.672 1.95 2.672 3.675 0 1.713-1.127 3.156-2.672 3.675.36 1.454.936 2.818 1.68 4.07a3.871 3.871 0 0 1 4.487.71 3.871 3.871 0 0 1 .71 4.487 14.695 14.695 0 0 0 4.07 1.68c.518-1.545 1.95-2.672 3.675-2.672 1.713 0 3.156 1.127 3.675 2.672a15.045 15.045 0 0 0 4.07-1.68 3.871 3.871 0 0 1 .71-4.487 3.871 3.871 0 0 1 4.487-.71 14.694 14.694 0 0 0 1.68-4.07c-1.556-.519-2.672-1.962-2.672-3.675Zm-11.96 3.89a3.89 3.89 0 1 1 0-7.78 3.89 3.89 0 0 1 0 7.78Z"/></svg>