<svg xmlns="http://www.w3.org/2000/svg" width="71" height="82" fill="none"><path fill="#EFB500" d="M70.899 61.395V20.461L35.455 0 0 20.461v40.934l35.455 20.473 35.444-20.473Z"/><path stroke="#fff" stroke-linejoin="round" stroke-miterlimit="10" stroke-width="2" d="m36.996 24-13.612 4.47c-.825.268-1.384 1.067-1.384 1.969V54h15V24h-.004ZM37 27l9.078 3.266c.55.242.922.96.922 1.773V54H37V27Z"/><path stroke="#fff" stroke-linecap="round" stroke-linejoin="round" stroke-miterlimit="10" stroke-width="2" d="M20 54h29"/><path fill="#fff" d="M27.275 32.746H25.68v1.596h1.596v-1.596Zm3.208 0h-1.596v1.596h1.596v-1.596Zm3.204 0h-1.596v1.596h1.596v-1.596Zm8.909 0H41v1.596h1.596v-1.596Zm-15.321 3.227H25.68v1.596h1.596v-1.596Zm3.208 0h-1.596v1.596h1.596v-1.596Zm3.204 0h-1.596v1.596h1.596v-1.596Zm8.909 0H41v1.596h1.596v-1.596ZM27.275 39.2H25.68v1.597h1.596V39.2Zm3.208 0h-1.596v1.597h1.596V39.2Zm3.204 0h-1.596v1.597h1.596V39.2Zm8.909 0H41v1.597h1.596V39.2Zm-15.321 3.223H25.68v1.597h1.596v-1.597Zm3.208 0h-1.596v1.597h1.596v-1.597Zm3.204 0h-1.596v1.597h1.596v-1.597Zm8.909 0H41v1.597h1.596v-1.597ZM27.275 45.65H25.68v1.597h1.596v-1.596Zm3.208 0h-1.596v1.597h1.596v-1.596Zm3.204 0h-1.596v1.597h1.596v-1.596Zm8.909 0H41v1.597h1.596v-1.596Zm-15.321 3.228H25.68v1.596h1.596v-1.596Zm3.208 0h-1.596v1.596h1.596v-1.596Zm3.204 0h-1.596v1.596h1.596v-1.596Zm8.909 0H41v1.596h1.596v-1.596Z"/></svg>