<svg xmlns="http://www.w3.org/2000/svg" width="140" height="45" fill="none"><path fill="#252F5C" d="M42.58 27.408c-3.02 0-5.125-2.353-5.125-5.212 0-2.858 2.134-5.24 5.154-5.24s5.126 2.354 5.126 5.212c0 2.858-2.134 5.24-5.154 5.24Zm0-8.823c-1.952 0-3.315 1.601-3.315 3.583 0 1.982 1.391 3.61 3.344 3.61 1.954 0 3.316-1.6 3.316-3.582 0-1.972-1.391-3.61-3.344-3.61Zm13.547 8.823-2.42-3.525h-2.162v3.525H49.82V17.299h4.383c2.258 0 3.649 1.23 3.649 3.211 0 1.677-.972 2.687-2.344 3.077l2.658 3.83h-2.038v-.009Zm-2.057-8.489h-2.516v3.392h2.525c1.239 0 2.02-.667 2.02-1.706 0-1.105-.753-1.686-2.03-1.686Zm7.727-1.249h-1.725v9.747h1.725v-9.746Zm9.917 1.525H66.16v2.535h4.925v1.534H66.16v2.62h5.63v1.524h-7.364v-9.737h7.288v1.524Zm8.996-1.525h1.695v9.738h-1.448l-5.421-6.927v6.927H73.84v-9.737h1.6l5.27 6.736V17.67Zm8.383 9.738H87.35v-8.156h-3.116v-1.581h7.975v1.581h-3.116v8.156Zm6.764-9.738h-1.724v9.747h1.724v-9.746Zm6.422 3.955c2.077.505 3.164 1.238 3.164 2.867 0 1.84-1.449 2.925-3.516 2.925a6.042 6.042 0 0 1-4.097-1.562l1.039-1.23c.943.81 1.876 1.268 3.106 1.268 1.067 0 1.743-.486 1.743-1.239 0-.714-.391-1.086-2.22-1.505-2.096-.505-3.268-1.115-3.268-2.925 0-1.696 1.41-2.839 3.354-2.839 1.429 0 2.572.429 3.563 1.23l-.924 1.295c-.886-.658-1.772-1-2.668-1-1.01 0-1.6.514-1.6 1.171-.01.762.438 1.096 2.324 1.544ZM42.047 39.822h-1.744v-8.155h-3.115v-1.582h7.974v1.582h-3.115v8.155ZM54.28 31.61h-5.563v2.534h4.925v1.534h-4.925v2.62h5.63v1.534h-7.355v-9.747h7.289v1.525Zm6.679 8.384c-2.868 0-5.002-2.21-5.002-5.021 0-2.782 2.096-5.05 5.069-5.05 1.81 0 2.905.63 3.849 1.515l-1.105 1.267c-.791-.724-1.63-1.21-2.754-1.21-1.886 0-3.24 1.534-3.24 3.45 0 1.924 1.363 3.477 3.24 3.477 1.21 0 1.982-.486 2.82-1.267l1.115 1.114c-1.029 1.058-2.153 1.725-3.992 1.725Zm7.527-4.278v4.106h-1.724v-9.737h1.724v4.05h4.697v-4.05h1.725v9.737h-1.725v-4.106h-4.697Zm15.815-5.631h1.705v9.737h-1.448l-5.42-6.926v6.926h-1.706v-9.737h1.6l5.269 6.736v-6.736Zm8.919 9.909c-3.02 0-5.126-2.268-5.126-5.021 0-2.754 2.134-5.05 5.154-5.05s5.126 2.268 5.126 5.021c0 2.754-2.134 5.05-5.154 5.05Zm0-8.508c-1.954 0-3.316 1.543-3.316 3.449 0 1.905 1.391 3.477 3.344 3.477 1.953 0 3.316-1.543 3.316-3.449 0-1.905-1.391-3.477-3.344-3.477Zm7.249-1.401h1.724v8.184h5.174v1.553h-6.898v-9.737Zm12.825 9.909c-3.02 0-5.126-2.268-5.126-5.021 0-2.754 2.134-5.05 5.154-5.05 3.021 0 5.126 2.268 5.126 5.021 0 2.754-2.134 5.05-5.154 5.05Zm0-8.508c-1.953 0-3.316 1.543-3.316 3.449 0 1.905 1.391 3.477 3.344 3.477 1.953 0 3.316-1.543 3.316-3.449 0-1.905-1.391-3.477-3.344-3.477Zm11.909 8.508c-3.078 0-5.098-2.172-5.098-5.021 0-2.744 2.106-5.05 5.069-5.05 1.715 0 2.763.477 3.783 1.325l-1.096 1.295c-.762-.638-1.506-1.048-2.754-1.048-1.81 0-3.191 1.563-3.191 3.45 0 2.02 1.334 3.496 3.344 3.496.924 0 1.772-.296 2.372-.743v-1.82h-2.515v-1.486h4.183v4.096c-.972.81-2.363 1.506-4.097 1.506Zm10.556-.172h-1.743v-3.84l-3.897-5.897h2.029l2.754 4.316 2.782-4.316h1.982l-3.907 5.86v3.877ZM6.242 16.07s11.29-6.164 27.363-2.372c0 0 3.192-15.473-8.86-13.53.01 0-10.443 1.944-18.503 15.902Zm.887 14.015s-4.888-.781-6.25-3.182c-1.392-2.477.81-5.002 3.172-6.517 6.431-4.116 13.463-4.525 15.654-4.773 0-.01-15.006 6.021-12.576 14.472Z"/><path fill="#252F5C" d="M.507 31.038s15.749 8.927 32.374-14.177c0 0-6.974 26.63-23.228 28.135 0 0-12.262.648-9.146-13.958Z"/></svg>