<svg xmlns="http://www.w3.org/2000/svg" width="101" height="33" fill="none"><path fill="#fff" d="M30.793 19.82c-2.184 0-3.707-1.702-3.707-3.769s1.543-3.789 3.727-3.789 3.707 1.702 3.707 3.769-1.543 3.79-3.727 3.79Zm0-6.38c-1.413 0-2.398 1.158-2.398 2.59 0 1.434 1.006 2.612 2.418 2.612 1.413 0 2.398-1.157 2.398-2.59 0-1.427-1.006-2.612-2.418-2.612Zm9.791 6.38-1.75-2.55H37.27v2.55h-1.247v-7.31h3.17c1.633 0 2.639.889 2.639 2.322 0 1.212-.703 1.943-1.695 2.225l1.922 2.77h-1.474v-.007Zm-1.488-6.139h-1.819v2.453h1.826c.896 0 1.46-.482 1.46-1.233 0-.8-.544-1.22-1.467-1.22Zm5.592-.902h-1.247v7.048h1.247v-7.048Zm7.176 1.102h-4.016v1.833h3.562v1.109h-3.562v1.895h4.072v1.102h-5.326v-7.04h5.27v1.102Zm6.506-1.102h1.226v7.041H58.55l-3.92-5.009v5.01h-1.227v-7.042h1.158l3.81 4.87v-4.87Zm6.058 7.041h-1.261v-5.898h-2.253V12.78h5.767v1.143h-2.253v5.898Zm4.889-7.041H68.07v7.048h1.247v-7.048Zm4.643 2.859c1.502.365 2.287.896 2.287 2.074 0 1.33-1.047 2.115-2.542 2.115a4.369 4.369 0 0 1-2.963-1.13l.751-.889c.682.586 1.358.917 2.246.917.772 0 1.261-.352 1.261-.896 0-.517-.282-.785-1.605-1.089-1.516-.365-2.363-.806-2.363-2.115 0-1.226 1.02-2.053 2.425-2.053 1.033 0 1.86.31 2.577.889l-.669.937c-.64-.476-1.281-.724-1.929-.724-.73 0-1.157.372-1.157.848-.007.551.317.792 1.68 1.116ZM30.404 28.797h-1.26V22.9H26.89v-1.144h5.766V22.9h-2.253v5.898Zm8.847-5.939h-4.023v1.833h3.562v1.11h-3.563v1.894H39.3v1.11h-5.32v-7.049h5.271v1.102Zm4.835 6.064c-2.074 0-3.617-1.599-3.617-3.631 0-2.012 1.515-3.652 3.665-3.652 1.31 0 2.102.455 2.784 1.096l-.8.916c-.572-.524-1.178-.875-1.99-.875-1.365 0-2.343 1.11-2.343 2.494 0 1.392.985 2.515 2.342 2.515.875 0 1.433-.352 2.04-.917l.806.806c-.744.765-1.557 1.248-2.887 1.248Zm5.438-3.094v2.97h-1.247v-7.042h1.247v2.928h3.397v-2.928h1.247v7.041h-1.247v-2.969h-3.397Zm11.436-4.072h1.233v7.041h-1.047l-3.92-5.008v5.008h-1.234v-7.04h1.158l3.81 4.87v-4.87Zm6.45 7.166c-2.184 0-3.707-1.64-3.707-3.631 0-1.992 1.543-3.652 3.727-3.652 2.185 0 3.707 1.64 3.707 3.631 0 1.991-1.543 3.652-3.727 3.652Zm0-6.153c-1.413 0-2.398 1.116-2.398 2.494 0 1.378 1.006 2.515 2.418 2.515 1.413 0 2.398-1.116 2.398-2.494 0-1.378-1.006-2.515-2.418-2.515Zm5.238-1.013h1.248v5.918h3.74v1.123h-4.988v-7.04Zm9.285 7.166c-2.184 0-3.706-1.64-3.706-3.631 0-1.992 1.543-3.652 3.727-3.652s3.707 1.64 3.707 3.631c0 1.991-1.544 3.652-3.728 3.652Zm0-6.153c-1.412 0-2.397 1.116-2.397 2.494 0 1.378 1.005 2.515 2.418 2.515 1.412 0 2.398-1.116 2.398-2.494 0-1.378-1.006-2.515-2.419-2.515Zm8.605 6.153c-2.226 0-3.686-1.571-3.686-3.631 0-1.985 1.522-3.652 3.665-3.652 1.24 0 1.998.345 2.735.958l-.792.937c-.551-.462-1.089-.758-1.991-.758-1.31 0-2.308 1.13-2.308 2.494 0 1.46.964 2.529 2.418 2.529.668 0 1.282-.214 1.716-.538v-1.316h-1.82V24.87H93.5v2.963a4.604 4.604 0 0 1-2.962 1.089Zm7.634-.125h-1.26v-2.776l-2.818-4.265h1.467l1.991 3.121 2.012-3.12h1.433l-2.825 4.236v2.805ZM4.512 11.621s8.164-4.457 19.787-1.715c0 0 2.308-11.19-6.407-9.784.007 0-7.551 1.406-13.38 11.5Zm.641 10.135s-3.534-.565-4.52-2.301c-1.005-1.791.586-3.617 2.295-4.713 4.65-2.976 9.735-3.272 11.32-3.452 0-.006-10.852 4.355-9.095 10.466Z"/><path fill="#fff" d="M.367 22.445s11.388 6.456 23.411-10.252c0 0-5.043 19.257-16.797 20.346 0 0-8.867.468-6.614-10.094Z"/></svg>