<svg xmlns="http://www.w3.org/2000/svg" width="163" height="48" fill="none"><path fill="#fff" d="M65.412.775c-.025.076.034.133.06.187 1.623 3.24 3.259 6.473 4.875 9.716 1.34 2.693 2.69 5.382 4.035 8.073l4.036 8.072c1.24 2.477 2.478 4.956 3.717 7.434 1.24 2.477 2.477 4.956 3.716 7.434.972 1.942 1.936 3.889 2.914 5.829.01.02.007.046.011.08H71.01L56.48 18.544c.11-.232.22-.47.337-.704 1.713-3.415 3.431-6.826 5.141-10.243C63.08 5.355 64.19 3.105 65.305.859c.015-.03.06-.04.053-.084h.053ZM0 4.014h.271c9.125 0 18.248 0 27.373-.004.192 0 .368.08.562.061.193-.018.397-.037.582.005.208.047.411.043.617.04.09-.001.147.084.244.062.07-.016.146.019.22.037.118.03.25.052.373.057.223.009.424.1.64.132.178.026.35.089.524.142.376.116.761.188 1.126.36.338.158.687.305 1.036.446.247.1.505.206.716.382.037.03.077.031.113.052.26.145.527.276.769.451.058.043.13.07.2.095.193.072.336.217.496.338l.626.477c.115.087.215.192.334.279.463.338.839.773 1.232 1.185.155.161.309.328.457.498.378.434.73.888 1.041 1.373.189.295.388.582.573.879.174.279.32.571.44.88.064.167.13.338.215.494.107.197.18.405.255.611.16.439.288.89.447 1.328.083.226.121.462.192.69.032.104.017.233.074.313.073.101.002.213.076.318.058.082.039.229.053.344.03.229.092.457.067.694-.019.179.073.35.054.535-.017.175-.038.363.004.529.077.295.024.59.046.882.011.139-.076.26-.057.404.018.139.032.29-.004.422-.039.145-.035.287-.047.431-.013.143-.038.287-.06.428-.03.19-.075.378-.093.569-.018.185-.123.35-.11.54-.132.198-.124.441-.207.657-.083.213-.144.44-.196.66-.092.39-.278.736-.422 1.102-.144.365-.303.724-.486 1.073-.212.402-.438.796-.695 1.172-.236.344-.47.69-.7 1.038-.017.026-.027.062-.052.084-.24.205-.403.481-.637.693-.28.252-.491.568-.769.824-.218.2-.438.401-.662.59-.32.272-.673.508-1.004.767-.371.29-.776.514-1.18.746-.535.306-1.098.556-1.642.844-.178.094-.37.133-.56.184-.144.038-.272.136-.43.108-.034.063-.026.108.009.17.16.288.325.574.483.863.147.266.3.53.44.798.13.248.262.495.406.736.114.19.216.389.323.582.16.289.325.575.481.864.113.207.223.42.338.627.148.267.277.546.458.795.06.084.081.197.136.288.252.416.472.85.718 1.27.123.21.237.432.354.648.141.26.29.52.438.776.131.227.255.46.383.69.157.28.303.566.462.845.134.234.26.476.392.713s.257.479.398.712c.12.196.226.402.338.603.155.281.316.56.467.843.128.238.266.472.39.713.141.28.31.545.455.822.147.283.337.546.446.85.008.022.033.04.049.058-.227.042-15.288.059-16.176.018a.603.603 0 0 1-.08-.125c-.218-.424-.458-.837-.687-1.255-.17-.31-.34-.623-.524-.926-.202-.33-.385-.674-.574-1.011-.115-.205-.224-.42-.339-.627a28.636 28.636 0 0 0-.453-.797c-.134-.224-.257-.46-.383-.69-.135-.246-.273-.49-.407-.735-.13-.238-.267-.472-.393-.712a9.913 9.913 0 0 0-.344-.601c-.108-.175-.195-.362-.295-.542-.139-.252-.278-.504-.422-.755-.214-.37-.386-.766-.637-1.116-.062-.236-.214-.427-.328-.634-.148-.266-.293-.536-.454-.796-.112-.18-.197-.379-.308-.562-.155-.253-.293-.517-.439-.775-.115-.205-.224-.42-.338-.627-.148-.267-.278-.546-.458-.795-.064-.088-.097-.198-.163-.34v14.4c-.239.044-15.266.062-16.196.02L0 4.014Zm16.196 11.31v6.425h.112c2.211 0 4.424 0 6.635.002.147 0 .28-.05.416-.087.39-.105.748-.289 1.107-.468a.656.656 0 0 0 .168-.11c.237-.228.45-.476.635-.747.172-.254.324-.512.377-.828.041-.244.158-.475.152-.731a.419.419 0 0 0 .045-.373c-.055-.162-.046-.33-.094-.49-.091-.3-.137-.613-.322-.877-.056-.081-.125-.163-.153-.254-.058-.187-.188-.322-.31-.453a2.02 2.02 0 0 0-.603-.459c-.037-.017-.077-.018-.113-.05-.13-.12-.295-.182-.455-.244-.16-.061-.308-.176-.495-.149-.134-.097-.3-.007-.426-.061-.148-.063-.29-.043-.433-.043-1.99-.003-3.982-.002-5.972-.002h-.27Zm130.681 17.794h-8.074v14.48H122.66V4.024h16.119c-.004-.004.003 0 .008.007a.04.04 0 0 1 .009.023l.001 14.448h8.065V4.02H163v43.583h-16.123V33.118Zm-66.163-29.1h38.745V20.19c.004-.004-.001.004-.008.009a.04.04 0 0 1-.022.009h-11.262v27.37c-.244.046-15.157.064-16.196.021V20.248l-.026-.03a.04.04 0 0 0-.023-.008H80.714V4.017ZM41.972 47.6l11.3-22.6c.056.018.065.071.091.123.88 1.76 1.767 3.517 2.648 5.275.952 1.898 1.9 3.797 2.849 5.697l3.471 6.951c.75 1.503 1.503 3.005 2.255 4.509.006.013.014.024.027.046H41.972Z"/></svg>