<svg xmlns="http://www.w3.org/2000/svg" width="148" height="43" fill="none"><path fill="#EFB500" d="M59.37 0c-.022.069.031.121.055.17 1.473 2.94 2.958 5.875 4.424 8.819 1.218 2.444 2.441 4.884 3.663 7.326 1.22 2.442 2.441 4.885 3.663 7.327l3.374 6.747 3.373 6.748c.882 1.763 1.756 3.53 2.644 5.29.01.018.006.042.01.073H64.452L51.265 16.128c.1-.21.198-.427.305-.64 1.555-3.098 3.115-6.195 4.667-9.296 1.018-2.035 2.025-4.077 3.037-6.115.013-.028.055-.037.048-.077h.048ZM0 2.94h.246c8.282 0 16.563 0 24.845-.004.174 0 .333.072.51.056.175-.017.36-.034.528.004.188.043.373.04.56.037.082-.001.133.076.222.056.063-.015.132.017.198.034.108.027.228.046.34.051.202.008.385.09.58.12.162.024.32.08.476.129.341.105.691.17 1.022.326.307.144.624.277.94.406.224.09.459.187.65.347.034.027.07.028.103.046.236.132.478.25.698.41.053.039.118.063.18.086.177.065.307.197.452.307l.568.433c.105.08.195.174.303.253.42.307.761.701 1.118 1.075.14.147.28.298.415.452.343.394.663.807.945 1.247.171.267.352.528.52.797.158.253.291.519.399.8.058.15.118.306.195.447.098.18.163.368.232.556.145.398.26.807.406 1.205.075.205.11.42.174.626.029.094.015.211.067.284.066.092.001.193.07.289.051.074.034.207.047.312.027.208.084.414.061.63-.017.162.066.317.05.486-.017.159-.036.329.003.48.07.267.02.534.042.8.01.126-.07.236-.052.366a1.01 1.01 0 0 1-.004.384c-.035.132-.032.26-.043.391-.012.13-.034.26-.055.388-.027.172-.067.344-.084.517-.016.168-.11.318-.1.49-.12.18-.112.4-.188.596-.074.194-.13.399-.177.6-.083.353-.253.668-.383 1a10.66 10.66 0 0 1-1.072 2.038c-.215.312-.427.625-.635.941-.016.024-.025.056-.048.076-.218.187-.365.437-.578.63-.254.228-.446.515-.698.747-.197.182-.397.364-.6.537-.292.245-.612.46-.912.695-.337.263-.704.466-1.071.677-.485.278-.997.504-1.49.766-.162.086-.337.121-.509.167-.13.035-.247.124-.39.099-.031.056-.024.097.008.154.146.261.295.52.44.783.132.241.27.48.399.724.118.226.237.45.368.668.102.172.195.353.293.529.145.261.294.521.436.783.103.189.203.383.307.57.134.242.252.495.415.721.056.077.074.18.124.261.229.378.428.772.651 1.154.112.19.216.391.322.588.128.236.263.47.398.704.119.206.23.418.348.626.142.254.274.514.419.767.121.213.235.432.355.647.12.215.233.435.362.647.108.178.205.364.306.547.141.255.287.508.425.765.116.216.24.428.352.647.13.253.283.495.414.746.134.257.306.495.405.771.007.02.03.036.044.054-.206.037-13.876.053-14.681.016a.546.546 0 0 1-.073-.114c-.198-.385-.416-.76-.624-1.14-.154-.28-.308-.565-.476-.84-.183-.3-.349-.61-.52-.917-.105-.186-.203-.382-.308-.57a26.163 26.163 0 0 0-.411-.723c-.122-.203-.233-.416-.348-.626-.122-.223-.247-.444-.369-.667-.118-.216-.242-.428-.357-.646a8.966 8.966 0 0 0-.312-.546c-.098-.158-.177-.328-.267-.492-.127-.229-.253-.457-.383-.684-.195-.337-.35-.696-.58-1.014-.055-.214-.193-.387-.297-.575-.134-.242-.265-.487-.412-.723-.1-.163-.178-.344-.28-.51-.14-.23-.265-.47-.397-.704-.105-.185-.204-.38-.308-.569-.134-.242-.251-.495-.415-.72-.058-.08-.088-.181-.148-.31v13.07c-.217.04-13.856.057-14.7.019L0 2.94Zm14.7 10.266v5.832h.102c2.007 0 4.015-.001 6.022.001.134 0 .254-.046.377-.079.354-.096.68-.262 1.005-.425a.592.592 0 0 0 .152-.1 4.19 4.19 0 0 0 .577-.678c.156-.23.294-.465.342-.75.037-.223.143-.432.138-.665a.38.38 0 0 0 .04-.338c-.048-.147-.04-.3-.085-.446-.082-.27-.123-.555-.291-.795-.052-.074-.114-.147-.14-.23-.052-.17-.17-.293-.281-.412a1.83 1.83 0 0 0-.547-.416c-.033-.016-.07-.016-.103-.046-.117-.108-.267-.165-.413-.22-.145-.057-.28-.16-.45-.136-.12-.088-.27-.007-.386-.056-.134-.057-.263-.039-.393-.039-1.807-.003-3.613-.002-5.42-.002H14.7Zm118.611 16.15h-7.328v13.142h-14.652V2.95h14.631c-.005-.004.002 0 .006.007a.034.034 0 0 1 .009.02V16.09h7.32V2.946h14.648v39.558h-14.634V29.356ZM73.259 2.944h35.166v14.68l-.007.007a.039.039 0 0 1-.02.008H98.176v24.842c-.221.042-13.757.058-14.7.02V17.675c-.013-.015-.017-.022-.024-.027a.037.037 0 0 0-.02-.008H73.259V2.944ZM38.095 42.5 48.35 21.989c.052.017.06.065.083.112.799 1.597 1.603 3.191 2.404 4.788.864 1.722 1.724 3.446 2.585 5.17l3.15 6.31 2.047 4.091.025.042h-20.55Z"/></svg>