<svg xmlns="http://www.w3.org/2000/svg" width="143" height="82" fill="none"><path fill="#fff" d="M60.434 0h1.172C68.17 3.878 74.74 7.75 81.35 11.659 87.865 7.504 94.746 4.355 100.92 0h1.761c.319 1.071 1.397 1.218 2.174 1.683 5.574 3.32 11.182 6.58 16.779 9.858-1.373 1.389-3.47 1.795-4.878 3.637v16.779c-4.966 2.907-9.827 5.75-14.622 8.55-.13 1.967-.366 3.667.235 5.71 6.734-3.832 13.238-7.528 19.736-11.23 6.617 3.95 13.521 7.416 19.925 11.73-1.561.953-3.122 1.913-4.819 2.948v17.291l-15.123 8.793v5.844c-1.037-.036-1.75-.771-2.569-1.236-6.003-3.39-11.983-6.827-17.969-10.246V46.94c-2.032.706-3.305 1.706-4.907 2.754v17.132a13402.25 13402.25 0 0 0-15.047 8.869v5.873c-.884.23-1.408-.47-2.038-.83-6.204-3.537-12.39-7.097-18.582-10.652v-22.81c-2.38.347-3.676 1.483-5.255 2.748v17.009L41.24 75.43c-.413 2.171-.248 4.108-.153 6.044-.165.065-.39.235-.49.182-6.763-3.837-13.514-7.692-20.301-11.564V46.734C13.486 42.828 6.746 38.944 0 35.058V11.105c.395.236.736.053 1.072-.14L19.948 0h1.173c6.198 4.314 13.032 7.557 19.606 11.641C47.302 7.757 53.865 3.878 60.434 0Zm20.65 48.423c-.218-2.224.465-4.543-.548-6.915-4.908 2.796-9.727 5.274-13.928 8.134v17.026c3.258-1.742 6.163-3.296 9.061-4.85.177.342.383.671.53 1.03.979 2.378 2.646 3.826 5.332 3.655 2.834-.177 4.295-2.013 5.008-4.526.778-2.742.79-5.55.224-8.327-.678-3.325-2.186-4.644-5.68-5.227ZM20.043 13.465c-.154-2.254.335-4.56-.43-7.103l-14.04 8.121v17.28c3.44-1.996 6.463-3.744 9.486-5.491.4 1.577-.242 3.266.406 4.867 1.326.117 2.563.441 4.018-.418v-6.627c2.433 2.242 1.32 5.144 2.84 7.08h3.935c-.937-2.848-.636-5.868-2.763-8.233 1.314-.954 2.097-2.137 2.274-3.673.389-3.354-1.107-4.873-5.726-5.803Zm101.662 39.196c.654-3.625.212-7.239.265-11.553-5.455 3.037-10.387 5.609-14.852 8.58V66.75c3.258-1.766 6.139-3.32 9.019-4.879.407 1.377-.282 2.902.466 4.25 1.113.129 2.162.4 3.376-.354v-8.569c1.608 3.39 2.28 6.462 3.929 9.04 1.208-.047 2.286.277 3.288-.253v-17.09c-1.238-.148-2.28-.442-3.417.352v7.828l-.419.088c-.559-1.5-1.107-3.001-1.655-4.502ZM37.54 60.582c.5 1.748.996 3.496 1.479 5.191 1.037.183 1.885.3 2.904-.135.566-2.378 1.155-4.85 1.738-7.321.796 2.6.413 5.32 1.19 7.839 1.114.094 2.074.253 3.305-.218-.341-5.609-.689-11.282-1.036-16.99-1.597-.3-2.899-.354-4.301.023l-1.962 9.505c-.136-.03-.271-.053-.407-.083V41.214c-5.26 2.925-10.027 5.432-14.369 8.328v17.037c2.48-1.3 4.62-2.424 6.758-3.548.365.988-.39 2.107.412 3.23.949-.223 2.033.424 3.028-.529.124-2.63.248-5.309.401-8.575.36.8.465 1.042.571 1.283-.276.777-.712 1.56.29 2.142Zm63.969-47.117V6.068L87.063 14.33v17.16c3.83-1.612 6.764-4.136 10.346-5.42.489 1.654-.289 3.461.512 5.097 1.25.118 2.392.294 3.747-.206V24.89c1.261-.883 2.563-.089 3.647-.795.253-.995.454-2.007-.136-2.901-1.101-.465-2.238.13-3.305-.53-.241-1.065-.394-2.166.154-3.302 1.201-.076 2.338-.153 3.481-.23.277-1.282.507-2.383-.159-3.413l-3.841-.253Zm-40.55 0c-.06-2.265.294-4.555-.348-7.286-5.102 2.931-9.862 5.662-14.729 8.463-.03 5.68-.294 11.212.189 17.209 3.888-2.225 7.317-4.185 10.746-6.15.4 1.771-.26 3.637.418 5.444h7.853c.324-1.26.495-2.372-.135-3.408-1.273-.288-2.569.247-3.794-.388-.106-1.16-.354-2.296.165-3.331 1.16-.454 2.41.253 3.47-.507.224-.965.324-1.895-.147-2.977-1.085-.06-2.21-.118-3.512-.189-.023-1.07-.288-1.989.153-2.89 1.179-.611 2.563.248 3.694-.617.1-1.036.383-2.078-.259-3.114a242.461 242.461 0 0 1-3.764-.259Zm-25.304 1.13v17.262c-5.079 2.948-10.104 5.873-15.023 8.733-.077 2.013-.33 3.702.265 5.744 6.716-3.872 13.102-7.55 19.46-11.211V12.047c-1.85.441-3.053 1.583-4.702 2.548Zm25.751 31.769c6.834-3.926 13.415-7.421 19.342-11.259v-23.04c-1.774.935-3.24 1.418-4.543 2.725v17.084c-5.154 3.008-10.174 5.939-15.076 8.805-.053 1.953-.288 3.578.277 5.685Z"/><path fill="#F2F2F2" d="M56.797 25.802c-3.435 1.961-6.87 3.928-10.767 6.155-.484-6.002-.218-11.538-.189-17.222 4.876-2.797 9.646-5.536 14.758-8.47.637 2.728.289 5.025.348 7.292-1.275.442-2.733-.347-4.15.678v11.567Zm85.153 20.985c.797.706.396 1.636.402 2.454.035 6.881.023 13.762.023 20.99l-20.396 11.437v-5.845c5.105-2.967 10.062-5.84 15.15-8.794V49.736c1.693-1.036 3.257-1.996 4.821-2.95ZM60.99 70.116c-6.644 3.779-13.288 7.558-19.938 11.343-.094-1.928-.26-3.856.154-6.017 4.695-2.707 9.502-5.472 14.516-8.36V50.148c1.583-1.26 2.882-2.39 5.268-2.736v22.703Zm60.655-58.628c.863.8.437 1.83.443 2.748.042 6.897.03 13.8.03 20.696-6.524 3.696-13.043 7.397-19.797 11.228-.603-2.042-.367-3.743-.237-5.708l14.668-8.55V15.123c1.406-1.841 3.516-2.253 4.893-3.636ZM97.419 26.106c-3.58 1.286-6.507 3.817-10.321 5.433v-17.2c4.414-2.537 9.086-5.22 14.412-8.282v7.415c-1.199.389-2.516-.219-4.085.595-.006 3.905-.006 7.975-.006 12.04Zm4.091 44.082c-6.684 3.825-13.368 7.655-20.052 11.48v-5.882c4.914-2.887 9.934-5.833 15.12-8.88V49.753c1.605-1.049 2.89-2.05 4.932-2.758v23.193Zm14.589-8.238-8.949 4.888V49.744c4.425-2.978 9.323-5.554 14.736-8.597-.053 4.322.38 7.943-.263 11.575-.789-1.203-.836-2.783-1.888-3.886-1.151.006-2.297-.383-3.636.436V61.95ZM15.078 26.24c-3.007 1.753-6.015 3.512-9.439 5.508V14.414c4.362-2.545 9.029-5.267 13.971-8.148.756 2.55.276 4.865.428 7.126-1.56.366-3.3-.248-4.954.962-.006 3.903-.006 7.894-.006 11.885ZM35.61 14.654c1.656-.964 2.858-2.099 4.702-2.54v23.054c-6.357 3.657-12.743 7.338-19.458 11.2-.595-2.04-.342-3.733-.265-5.738l15.022-8.725v-17.25Zm25.754 31.715c-.569-2.105-.334-3.727-.281-5.673l15.016-8.794V14.835c1.297-1.305 2.758-1.787 4.524-2.722V35.13c-5.891 3.833-12.446 7.319-19.259 11.24Zm14.27 15.429c-2.88 1.548-5.761 3.09-9.005 4.831V49.668c4.174-2.85 8.964-5.318 13.841-8.103 1.007 2.369.328 4.673.545 6.889-3.103.469-4.526 2.603-5.334 5.353-.785 2.662-.416 5.323-.047 7.991ZM40.52 57.675c-1.252-2.733-1.051-5.823-2.185-8.725h-4.111c-.455 4.79-.898 9.464-1.34 14.143-2.145 1.12-4.289 2.24-6.776 3.536V49.653c4.36-2.885 9.132-5.383 14.406-8.297.006 5.805.006 11.06.006 16.319Z"/><path fill="#F2F2F2" d="M37.29 58.483c.34.66.335 1.371.273 2.089-.951-.573-.537-1.343-.274-2.089Z"/><path fill="#fff" d="M20.125 16.919c2.15 1.625 2.133 2.767-.074 4.386.023-1.466.046-2.926.074-4.386Z"/><path fill="#F2F2F2" d="M20.051 16.919c-.02 1.46-.046 2.926-.067 4.386-.983-1.485-1.087-2.95.067-4.386Z"/><path fill="#fff" d="M80.987 52.408c.576-.46.943.006 1.088.4 1.258 3.464 1.066 6.856-.273 10.479-2.096-1.06-2.09-2.562-1.974-4.111 2.445-1.897.902-4.489 1.159-6.768Z"/><path fill="#F2F2F2" d="M80.987 52.426c-.261 2.251 1.35 4.81-1.21 6.684-.17-2.321-.7-4.706 1.21-6.684Z"/></svg>