<svg xmlns="http://www.w3.org/2000/svg" width="130" height="75" fill="none"><path fill="#EFB500" d="M55.153 0h1.07c5.99 3.54 11.985 7.074 18.017 10.64C80.187 6.848 86.467 3.974 92.101 0h1.608c.29.978 1.274 1.112 1.984 1.536 5.086 3.03 10.205 6.005 15.312 8.996-1.252 1.268-3.166 1.639-4.451 3.32v15.312a17786.04 17786.04 0 0 1-13.345 7.804c-.118 1.794-.334 3.346.215 5.21 6.145-3.496 12.081-6.87 18.012-10.248 6.037 3.604 12.339 6.768 18.183 10.705-1.425.87-2.849 1.745-4.398 2.69v15.78c-4.629 2.691-9.145 5.318-13.802 8.024v5.334c-.946-.032-1.596-.704-2.344-1.128-5.479-3.094-10.936-6.23-16.398-9.35V42.838c-1.855.644-3.017 1.557-4.48 2.513v15.635c-4.714 2.777-9.274 5.462-13.731 8.094v5.36c-.806.21-1.285-.43-1.86-.757-5.662-3.228-11.307-6.477-16.958-9.721V43.145c-2.172.317-3.355 1.353-4.796 2.508v15.522L37.636 68.84c-.376 1.982-.226 3.75-.14 5.516-.15.06-.354.215-.446.167-6.172-3.502-12.334-7.02-18.528-10.554V42.651C12.307 39.084 6.156 35.54 0 31.995v-21.86c.36.215.672.048.979-.129L18.205 0h1.07c5.656 3.937 11.893 6.896 17.894 10.624 6-3.545 11.99-7.085 17.984-10.624Zm18.845 44.192c-.199-2.03.425-4.146-.5-6.31-4.479 2.55-8.877 4.812-12.71 7.422v15.538c2.973-1.59 5.624-3.008 8.27-4.426.16.312.349.613.483.94.892 2.17 2.414 3.491 4.866 3.336 2.586-.161 3.92-1.837 4.57-4.13.71-2.503.72-5.065.204-7.6-.618-3.035-1.994-4.238-5.183-4.77ZM18.291 12.29c-.14-2.057.307-4.163-.392-6.483a46620.94 46620.94 0 0 0-12.813 7.412v15.769c3.14-1.82 5.898-3.416 8.657-5.011.365 1.44-.22 2.98.37 4.442 1.21.107 2.34.402 3.667-.382V21.99c2.221 2.046 1.205 4.694 2.592 6.46h3.591c-.854-2.599-.58-5.354-2.521-7.513 1.199-.87 1.914-1.95 2.075-3.352.355-3.061-1.01-4.447-5.226-5.295Zm92.779 35.77c.597-3.308.193-6.606.242-10.543-4.979 2.772-9.479 5.119-13.555 7.83v15.571c2.974-1.611 5.603-3.029 8.232-4.452.371 1.257-.258 2.648.425 3.878 1.016.118 1.973.365 3.081-.323V52.2c1.467 3.094 2.08 5.897 3.586 8.25 1.102-.043 2.086.252 3-.23V44.621c-1.129-.134-2.081-.403-3.119.322v7.143l-.381.081c-.511-1.37-1.011-2.74-1.511-4.109Zm-76.81 7.23c.457 1.595.908 3.19 1.35 4.737.946.166 1.72.274 2.65-.124.516-2.17 1.054-4.425 1.586-6.681.726 2.374.376 4.855 1.086 7.154 1.016.086 1.893.23 3.016-.199l-.946-15.506c-1.457-.274-2.645-.322-3.925.022-.607 2.948-1.199 5.811-1.79 8.674-.124-.027-.248-.049-.371-.075V37.613c-4.801 2.67-9.151 4.957-13.114 7.6V60.76a6476.16 6476.16 0 0 0 6.167-3.238c.334.902-.355 1.923.377 2.948.865-.204 1.854.387 2.763-.483l.366-7.825c.328.73.425.95.521 1.17-.252.71-.65 1.424.264 1.956Zm58.379-43V5.537c-4.871 2.788-9.146 5.232-13.183 7.541V28.74c3.494-1.472 6.172-3.776 9.44-4.947.447 1.51-.263 3.158.469 4.652 1.14.107 2.183.268 3.42-.189v-5.542c1.15-.806 2.338-.08 3.327-.725.231-.908.414-1.832-.123-2.648-1.006-.425-2.044.118-3.017-.484-.22-.972-.36-1.976.14-3.013 1.097-.07 2.135-.14 3.178-.21.252-1.17.462-2.174-.146-3.114l-3.505-.231Zm-37.007 0c-.054-2.068.269-4.157-.317-6.65-4.657 2.675-9 5.167-13.442 7.724-.027 5.183-.269 10.232.172 15.705 3.549-2.03 6.678-3.82 9.807-5.613.366 1.617-.237 3.32.382 4.968H59.4c.295-1.15.451-2.164-.124-3.11-1.161-.263-2.344.226-3.462-.354-.097-1.058-.323-2.095.15-3.04 1.06-.414 2.2.23 3.167-.462.204-.88.296-1.73-.134-2.718-.99-.053-2.017-.107-3.205-.172-.021-.977-.263-1.815.14-2.637 1.075-.558 2.339.226 3.371-.564.091-.945.35-1.896-.237-2.841-1.161-.07-2.3-.15-3.435-.236Zm-23.093 1.03v15.754c-4.634 2.69-9.22 5.36-13.71 7.97-.07 1.837-.301 3.379.242 5.242 6.13-3.534 11.957-6.89 17.759-10.231v-21.06c-1.688.403-2.785 1.445-4.29 2.326ZM56.04 42.313c6.237-3.582 12.243-6.772 17.652-10.274V11.01c-1.619.854-2.957 1.295-4.146 2.487V29.09c-4.704 2.745-9.285 5.42-13.758 8.035-.049 1.783-.264 3.265.252 5.188Z"/><path fill="#EFB500" d="M51.834 23.547c-3.135 1.79-6.27 3.586-9.826 5.617-.442-5.477-.2-10.53-.172-15.716 4.45-2.553 8.802-5.053 13.467-7.73.582 2.49.264 4.585.318 6.655-1.163.403-2.494-.317-3.787.618v10.556Zm77.713 19.151c.727.645.361 1.493.366 2.24.033 6.28.022 12.56.022 19.156L111.32 74.53v-5.334c4.659-2.707 9.184-5.329 13.826-8.026V45.39c1.546-.945 2.974-1.82 4.401-2.69ZM55.66 63.989c-6.063 3.449-12.126 6.897-18.195 10.351-.086-1.759-.237-3.518.14-5.49 4.285-2.471 8.672-4.995 13.248-7.63V45.766c1.444-1.15 2.63-2.182 4.807-2.497v20.719Zm55.355-53.505c.787.73.399 1.67.404 2.508.038 6.294.027 12.593.027 18.887-5.954 3.373-11.903 6.751-18.067 10.247-.55-1.863-.334-3.415-.216-5.21l13.386-7.802V13.803c1.284-1.681 3.209-2.057 4.466-3.32ZM88.906 23.825c-3.266 1.174-5.938 3.483-9.419 4.958V13.086c4.029-2.315 8.293-4.764 13.153-7.558v6.766c-1.094.356-2.296-.199-3.728.544-.006 3.564-.006 7.278-.006 10.987Zm3.733 40.23c-6.1 3.49-12.2 6.986-18.3 10.476v-5.367c4.485-2.635 9.067-5.324 13.8-8.104V45.405c1.464-.957 2.636-1.871 4.5-2.516v21.166Zm13.314-7.519c-2.608 1.426-5.212 2.847-8.167 4.461v-15.6c4.038-2.717 8.508-5.069 13.448-7.846-.048 3.945.347 7.249-.24 10.564-.72-1.098-.763-2.54-1.723-3.546-1.051.005-2.096-.35-3.318.398v11.57ZM13.76 23.947c-2.744 1.6-5.489 3.206-8.614 5.027v-15.82l12.75-7.436c.69 2.328.252 4.44.391 6.504-1.423.334-3.012-.226-4.52.878-.006 3.562-.006 7.204-.006 10.847Zm18.738-10.573c1.51-.88 2.608-1.916 4.29-2.318v21.039c-5.8 3.337-11.629 6.696-17.757 10.222-.543-1.862-.312-3.408-.242-5.237l13.709-7.963V13.374ZM56 42.317c-.519-1.92-.304-3.402-.256-5.177l13.704-8.026V13.54c1.184-1.191 2.517-1.631 4.13-2.484v21.003C68.2 35.557 62.217 38.74 56 42.317Zm13.024 14.081-8.218 4.409v-15.48c3.81-2.6 8.18-4.853 12.631-7.394.92 2.161.3 4.264.497 6.287-2.832.428-4.13 2.376-4.867 4.885-.716 2.43-.38 4.858-.043 7.293ZM36.98 52.635c-1.142-2.494-.959-5.314-1.994-7.963h-3.751L30.01 57.58c-1.957 1.022-3.913 2.044-6.183 3.227V45.314c3.978-2.633 8.334-4.912 13.147-7.572.006 5.298.006 10.093.006 14.893Z"/><path fill="#EFB500" d="M34.031 53.373c.312.602.307 1.251.25 1.906-.868-.523-.49-1.225-.25-1.906ZM18.367 15.44c1.962 1.483 1.947 2.526-.067 4.003.02-1.338.041-2.67.067-4.003Zm-.067 0c-.02 1.333-.043 2.67-.062 4.003-.897-1.355-.992-2.693.062-4.003Zm55.61 32.388c.526-.42.86.005.994.366 1.148 3.16.972 6.257-.25 9.563-1.913-.968-1.908-2.339-1.801-3.752 2.231-1.731.823-4.097 1.057-6.177Z"/><path fill="#EFB500" d="M73.909 47.845c-.239 2.054 1.232 4.39-1.105 6.1-.155-2.119-.638-4.295 1.105-6.1Z"/></svg>