<svg xmlns="http://www.w3.org/2000/svg" width="71" height="82" fill="none"><path fill="#EFB500" d="M70.899 61.395V20.461L35.455 0 0 20.461v40.934l35.455 20.473 35.444-20.473Z"/><path stroke="#fff" stroke-linejoin="round" stroke-miterlimit="10" stroke-width="2" d="M35.498 43 19 37.596 35.498 32 52 37.596 35.498 43Z"/><path stroke="#fff" stroke-linecap="round" stroke-linejoin="round" stroke-miterlimit="10" stroke-width="2" d="M43 46.525A20.996 20.996 0 0 1 35.205 48c-4.213 0-8.097-1.21-11.205-3.247V40m23 7a2 2 0 1 0 0-4 2 2 0 0 0 0 4Z"/><path stroke="#fff" stroke-linecap="round" stroke-linejoin="round" stroke-miterlimit="10" stroke-width="2" d="m35 38 12 1.998V43m0 4-2 8h4l-2-8Z"/></svg>