<svg xmlns="http://www.w3.org/2000/svg" width="25" height="15" fill="none"><path fill="#EFB500" fill-rule="evenodd" d="M24.427.987c.172-.568 0-.987-.828-.987h-2.735c-.696 0-1.017.361-1.19.76 0 0-1.391 3.33-3.36 5.492-.638.627-.928.826-1.276.826-.174 0-.435-.199-.435-.769V.987c0-.683-.192-.987-.771-.987h-4.3c-.434 0-.696.317-.696.618 0 .647.986.797 1.087 2.617v3.957c0 .867-.16 1.024-.508 1.024-.927 0-3.182-3.344-4.52-7.171C4.635.3 4.373 0 3.674 0H.937C.157 0 0 .361 0 .76 0 1.47.927 5 4.318 9.668c2.26 3.187 5.442 4.915 8.341 4.915 1.739 0 1.953-.383 1.953-1.045v-2.41c0-.767.165-.92.716-.92.406 0 1.1.2 2.724 1.736 1.854 1.822 2.159 2.639 3.203 2.639h2.734c.781 0 1.173-.383.948-1.142-.248-.754-1.133-1.849-2.307-3.148-.638-.739-1.594-1.536-1.885-1.935-.405-.511-.29-.74 0-1.195 0 0 3.334-4.61 3.68-6.176h.002Z" clip-rule="evenodd"/></svg>